<?xml version="1.0" encoding="utf-8"?>
<svg id="fdf61296-5c97-48b7-a77a-f690cc2f26d9" data-name="Layer 2" viewBox="0 0 2634.3 2652" xmlns="http://www.w3.org/2000/svg">
  <title>safari-pinned-tab</title>
  <path d="M 1013.8 575.6 C 1002.7 558.6 1020.3 566.2 1032.4 563.9 C 1088.1 566.3 1055.6 551.3 1079.9 530.2 C 1113.1 533 1026.7 487.2 1016 499.4 C 1035 505.6 1053.9 515.4 1070.4 524.8 C 1051.3 523.9 1009.3 504.7 1004.8 515.2 C 1015.6 515.1 1083.2 534.2 1050.1 531.7 C 997.1 525.2 1004 532.5 1040.3 535.9 C 1066.9 547 1022.8 540 1014.2 542.4 C 1059 554 1026.1 557.2 1001.8 558 C 979.3 570.5 1004.3 570.7 1014.1 575.3 C 1003.8 586.5 997.8 591 992.1 571.6 C 964.1 497.1 1043.2 426 1013.3 442 C 996.1 450.3 965.8 499.4 975.2 470.1 C 973.5 441.1 969.6 443.8 958 463.7 C 920.2 468.7 872.1 461 865.1 424.9 C 883.5 374.4 950.3 402.3 989.8 402.8 C 1017.2 406.1 1007.6 376 1015.6 355.8 C 1015.9 344.6 1040.2 299.9 1039.7 320.9 C 1043.6 336 1041.2 358.2 1053.7 354.2 C 1066.8 283.1 1082.6 229.4 1151.6 204.1 C 1175.2 178.6 1185.8 148.2 1207.3 121.2 C 1202.7 164.2 1210.9 189.9 1237.6 142 C 1258.4 118.8 1278.8 96.1 1302.9 76 C 1304.5 97.8 1278.8 133.1 1287.2 137.7 C 1300.5 149.2 1313.9 123.4 1325.4 119.7 C 1355.5 101 1384.8 85.2 1416.1 67.4 C 1327.5 89 1287.2 150.2 1310.7 99.7 C 1313.8 80.2 1332.5 65.8 1334.5 52.2 C 1326.2 48.6 1321.4 45 1314.6 53.7 C 1196.7 155.4 1219.1 171.6 1228.5 84.3 C 1213.2 80.1 1211.1 95 1205 105.5 C 1181.1 135.6 1161.4 165.3 1138.5 195.7 C 1095.5 225.9 1055.2 257.4 1025 301.1 C 1007.6 334.7 1000 319 975.7 317.2 C 708.1 248.1 734.9 573.1 958.4 530.6 C 972.5 534.2 962.6 594.3 978.7 598.7 C 1028.1 602.6 1120.4 576.6 1013.8 575.6 Z M 822.6 2651.4 C 821.4 2639.7 826.4 2632.8 840 2631.9 C 814.1 2632 849.9 2576 859.9 2574.1 C 869.2 2568.9 879.1 2580.3 889.3 2577.9 C 900.9 2567.9 928.3 2577.3 940 2578.9 C 947.1 2580.9 944.1 2592 951.3 2594 C 970 2576 975.7 2587.3 996.7 2591 C 996.9 2595.2 992.3 2604.5 1001.3 2603.2 C 1019.6 2584.6 1046.2 2616.9 1072.6 2618.8 C 1078.5 2619 1082.5 2616.6 1084.9 2609.7 C 1097.8 2560.1 1144.5 2477.7 1155.7 2472.5 C 1218.8 2473.7 1280.9 2485 1344.8 2483.5 C 1420.8 2488.4 1355 2381.4 1347.9 2349.3 C 1328.5 2303.9 1323.5 2251.9 1298.4 2220.8 C 1281.2 2193.2 1158.3 2153.2 1185.3 2135.7 C 1266.9 2040.4 1294.9 1983.1 1164.9 1941.7 C 1191.2 1874.7 1178.8 1886.3 1220 1906 C 1232 1912.4 1271.4 1923.7 1242.8 1905.4 C 1215.7 1891.5 1173.8 1851.2 1169.7 1876.6 C 1164.5 1906.1 1122.5 1982.4 1160.6 1964.8 C 1195.9 1963.2 1242.6 1990.8 1231.5 2031.4 C 1207.4 2127.1 1136 2160.7 1059.7 2139 C 1042.6 2204 1051.7 2157.6 1034.4 2194.5 C 1017.2 2222.9 1007.5 2239.9 1016.1 2196.2 C 1018.2 2182.1 1005 2135.1 997.8 2148.6 C 1017.5 2200.8 1007.5 2244.4 957.5 2263.1 C 902.3 2291.6 847.4 2311.8 785.6 2323.8 C 505.8 2283.5 538.2 2225.1 462 2121.4 C 456.9 2111.3 442.9 2091.7 446.7 2113.8 C 460.7 2137.3 542.2 2251.2 502.3 2216.7 C 347.3 2069.4 413.2 2040.4 399.1 2028 C 387.3 2023.3 378.3 2043.5 364.6 2038.1 C 224.2 2024.2 272.2 1837.2 305 1825.8 C 343.6 1798.8 400.4 1864.8 392.5 1822 C 367.7 1674 403.8 1705.3 278.7 1712.2 C 268.4 1713 264.8 1711.4 266.6 1724 C 269.2 1746.1 345.7 1711.3 354.7 1724.1 C 361.5 1727.6 379.1 1818 370.4 1809.8 C 256.7 1783.5 241.6 1890.5 258.1 1971.4 C 271.4 2031.9 327.5 2054.7 381.7 2056.4 C 386.6 2206.2 630.1 2275.5 507 2268.5 C 416.6 2271.8 330.9 2278.1 240.8 2271.5 C 154.1 2266.7 164.5 2250.3 180 2292.5 C 179.3 2303.8 137.7 2290.1 129.2 2293.2 C 96.2 2293.4 103.9 2292.5 112.1 2268.1 C 164.8 2151.2 146.9 2204.3 202.6 2217 C 205.2 2231.5 212.3 2251.9 228.1 2257.4 C 259.4 2270.7 271.8 2251.9 292.2 2246.3 C 317.8 2247.8 330.3 2255.8 350.8 2238 C 384 2205.3 359.5 2200 369.8 2177.2 C 399.8 2145.1 321.7 2071.7 305.5 2057.3 C 275.3 2046 212.4 2091.9 194 2094.2 C 171.8 2105 147.1 2104.6 125.2 2117.2 C 92.4 2149.1 74.6 2194.5 49.7 2233.4 C -65.1 2403.4 37.7 2362 167.7 2383.1 C 196.1 2384.8 190.2 2384.5 193.3 2405.8 C 218.4 2593.8 205 2485.6 333.5 2526.8 C 367.5 2536.7 386.3 2531 400.5 2549.4 C 404.7 2551.2 409.5 2546.2 416.1 2544.7 C 417 2557.4 407.6 2581.5 395.2 2589.3 C 407 2596.2 397.8 2608.6 396.8 2620.8 C 392.3 2648.9 387.8 2652.8 396.3 2651.4 L 822.6 2651.4 Z M 1706.3 267.4 C 1689 270.1 1680.9 243.4 1663.2 241.1 C 1667.5 246.2 1702.8 273.8 1683.7 271 C 1670.8 263 1661.3 244.9 1648.5 246 C 1705.8 297.5 1665.7 267.3 1651.1 261.8 C 1640.8 258.1 1669 276.3 1667.6 281.5 C 1660.4 278.8 1652.7 271.2 1643.9 270.3 C 1656.5 281.5 1680.2 293.3 1646.9 284.4 C 1659.1 291.8 1645.5 293.2 1639.4 298.1 C 1627.8 305.8 1655.3 302 1648.2 308.1 C 1622.1 332.7 1674.6 306.2 1677.9 294.6 C 1713.8 261.1 1635.3 373 1756.8 287.3 C 1758.6 274.6 1700.3 219.8 1722.4 213.5 C 1814.6 124.9 1785.4 28.4 1704.6 7.3 C 1627.6 -20.3 1572.7 35.4 1533.5 90.4 C 1519 97.4 1498.2 89.6 1480.7 91.2 C 1400.3 87.8 1406.5 111.1 1411.3 83.1 C 1409.9 78.4 1406.6 84.9 1402.2 89 C 1386.2 107.4 1371.9 111.9 1398.7 119.8 C 1406.3 114.3 1416.1 107.2 1425.3 104.6 C 1531.3 103.4 1523 137.3 1555.3 143.7 C 1578.7 147.8 1546.4 127.4 1544.4 116.2 C 1536.3 108 1591.2 128 1582 137.2 C 1593.9 137.3 1606.5 142.2 1616.3 149 C 1621.3 153.8 1621.9 140 1625.7 134.5 C 1631.1 137.1 1635.2 133.7 1637.2 128.4 C 1651.8 90.1 1695.9 78.3 1700.7 94.5 C 1719.4 129.5 1691.3 184.2 1648 167.9 C 1651.3 190.8 1578.3 173.4 1602.6 191 C 1633.4 200.8 1668.9 199.5 1692.4 222.6 C 1761.7 314.1 1746.4 307.1 1683.3 239 C 1670.5 233.4 1703.2 263.3 1706.3 267.4 Z M 1420.2 181.7 C 1323.6 241.3 1398 374 1323.9 258 C 1330.2 273.8 1340.8 291.4 1343.5 309.5 C 1316.6 254.5 1288.3 220.7 1229.5 221.9 C 1099.4 214.6 1075.6 381.7 1138 464.3 C 1136.2 493.7 1154.9 452.4 1164 447.2 C 1179.5 428.8 1221.9 394.9 1204.6 438.2 C 1203.1 450.7 1194.2 455.9 1184.6 465.9 C 1170.3 479.4 1194.8 466.5 1201.1 462.6 C 1197.7 495.2 1217.5 515.8 1237.5 530.3 C 1298.7 562.5 1370.9 551 1433.7 533.3 C 1570.2 499.9 1568.3 345.6 1526.7 325.9 C 1520 317.4 1504.7 316.9 1502.3 307.4 L 1598.4 300.5 C 1616.9 294.4 1545.8 298.4 1541.1 298.6 C 1527.6 299.3 1449.2 303.9 1484.2 294.2 C 1514.7 281.3 1541.6 277.3 1548.7 265.2 C 1533.2 269.5 1518.2 276.4 1501.6 281.4 C 1299.2 339.7 1487.5 210.5 1533.3 213.5 C 1558.7 211.5 1583.1 213.6 1602 231.5 C 1601.6 229.9 1615.4 229.9 1610.3 225.3 C 1589.8 213.5 1565.7 174.9 1546.4 178.8 C 1632.6 251 1518.6 152.2 1429.4 245.7 C 1413.9 259.3 1402.1 276.9 1390.2 293.7 C 1365.8 315.9 1388.8 210.3 1396.7 206.6 C 1401.5 198.2 1437 166.5 1420.2 181.7 L 1420.2 181.7 Z M 578.3 1994.3 C 462.9 1995.3 494.4 2165.9 581 2200.3 C 728.1 2282.8 891.5 2266.7 935.7 2220.3 C 941 2230.9 921.8 2242.6 941.6 2239.2 C 957.5 2219.2 953.1 2184.9 946.9 2160.8 C 911 2040.5 809.1 2096.4 728 2073.8 C 677.8 2061 634 2036.7 586.3 2016.7 C 539 1999 533.1 2010.2 578.3 1994.3 Z M 1967.4 255.4 C 1943.6 290.4 1907.2 320.8 1907.5 347.6 C 1919.4 370.2 2035.4 342.5 1962.3 345.8 C 1912.6 345.5 1916.9 347.9 1932.4 323.3 C 1945.7 295.8 1982.8 271.7 1992.1 253.1 C 1986.8 250.3 1970.9 249.7 1983 244.5 C 2005.5 229.1 1967.3 238.3 1959.4 244.7 C 1913.4 266.6 1871.9 287.4 1830.5 316 C 1828.3 249 1855.2 172.2 1818.8 218.5 C 1742 360.7 1791.9 252.7 1732.4 313.4 C 1725.9 316.6 1735.9 321.9 1740 323.2 C 1796.8 345.5 1795.1 295.4 1814.8 260.2 C 1824.9 240.4 1815.6 325.3 1819.9 327.4 C 1831.5 347.8 1847.5 322.3 1860.4 315.8 C 1896.5 294.8 1929.7 273.5 1967.4 255.4 Z M 956.9 869.9 C 946.2 970.2 906.9 979.3 916.1 991.5 C 931.9 994.8 967.2 919.8 973 916 C 1050.9 804.7 917.4 862.8 871 889.7 C 854.8 895.1 779 907.2 796.7 920.7 C 806.4 944.4 939.8 860.4 956.9 869.9 Z M 969.4 760.4 C 954.6 739.5 872.8 750.2 860.2 749.3 C 792.7 736 798.7 753.2 770.8 733.6 C 743.8 732.2 791.7 757.3 799.9 755.9 C 876.1 766.6 955.4 754.9 930.3 771.6 C 790 909.4 801 872.5 804.7 891.7 C 812 912.9 958.1 758.6 966.7 774 C 971.3 772.5 961.9 765.5 969.4 760.4 Z M 384.5 1658.9 C 372.8 1667.2 371.4 1666.5 357.9 1663.7 C 319.7 1658.6 285.9 1642 281.2 1659.4 C 300.1 1680.4 417.3 1679.8 420.3 1674.8 C 443 1657.4 395.9 1667.2 389.8 1634.7 C 377.6 1614.8 353.6 1532.7 333.2 1564.2 C 347.5 1595.3 367.9 1626.6 384.5 1658.9 Z M 650.7 1669.9 C 748.7 1635.5 944.2 1657.3 976.2 1669.6 C 981.7 1673.2 983.9 1673.5 985.1 1665.5 C 955.1 1642.5 593.7 1616.9 650.7 1669.9 Z M 913.5 690.1 C 897.5 706.7 754.9 727 787.4 733.5 C 800.3 734.2 816.8 731.9 830.6 728.1 C 954.6 690.5 1025.6 718.7 906.1 666 C 897.4 659.4 839.8 634.7 853.9 654.1 C 872.6 670 893.8 673.3 913.5 690.1 Z M 1147.4 1792.4 C 1161.2 1837.8 1289.6 1882.5 1265.5 1859.5 C 1254.2 1850.5 1183.2 1826.9 1209.7 1818.6 C 1236.2 1818.7 1276.7 1831.2 1296.5 1827.6 C 1273.3 1804 1237.2 1811.3 1206.2 1803.5 C 1173.3 1798.6 1161.9 1785.4 1147.4 1792.4 Z M 1125.5 1078.1 C 1140.2 1079.4 1135.1 1002.5 1138 995.2 C 1144.6 937.8 1135.8 936.2 1111.4 984.2 C 1050.5 1075 1040.3 1074.1 1051.5 1084.6 C 1061.2 1099.2 1072.9 1055 1078.9 1049.8 C 1089.8 1036.1 1127.6 972.9 1124.4 988 C 1125.6 1019.7 1121.8 1046.1 1125.5 1078.1 Z M 1206.8 975.5 C 1195 990.6 1133.6 1103.5 1180.2 1076.4 C 1180.8 1060.3 1211.8 978.2 1213.3 1003.2 C 1220.4 1024.9 1221.6 1058.4 1236.2 1059.5 C 1249.3 1064.1 1225.4 990.2 1227.5 986.1 C 1225.6 972.9 1219.5 972.2 1206.8 975.5 L 1206.8 975.5 Z M 1147.5 1718.9 C 1150.8 1750 1186.1 1740.9 1208.1 1750 C 1236.3 1764.4 1267 1765.1 1296.9 1773.4 C 1315.3 1775.3 1355.3 1796.8 1355.8 1787.2 C 1365.2 1772.2 1250.7 1754.9 1244.7 1750.9 C 1238.7 1746.9 1226.9 1748.7 1223.5 1743 C 1229.4 1719 1159.6 1728.9 1147.5 1718.9 Z M 441.3 1637.3 C 412.9 1597.7 396.1 1553.1 380.2 1504.3 C 328.9 1459.4 388.9 1578.9 395.3 1590.2 C 416.5 1625.9 415.7 1649.1 441.3 1637.3 L 441.3 1637.3 Z M 459 1404.1 C 459.7 1523.5 422.9 1632.4 453.9 1631.3 C 475.6 1638.8 454.6 1533.5 457.7 1526.8 C 466 1446.3 477.7 1403.5 459 1404.1 L 459 1404.1 Z M 981.6 636.4 C 948.8 646.4 915 621.7 880.5 626 C 889.1 636.4 903.5 636.3 917.8 640.2 C 1037.6 669.8 959.2 641.3 1025.9 632 C 1056.1 624.6 975.4 598.2 981.6 611.2 C 991.6 640.6 968.7 624.9 981.6 636.4 L 981.6 636.4 Z M 556.3 1775.5 C 631.7 1750.7 655 1745.8 717.2 1791.7 C 745.5 1825.1 745.6 1794.9 772.9 1806.3 C 781.3 1794.8 732.2 1804.8 728.5 1794.5 C 678.6 1739.9 583.3 1741.1 556.3 1775.5 Z M 577.7 1654.3 C 599.6 1676.6 594.5 1621.2 715.9 1596.9 C 674 1592.3 611.6 1616.4 577.7 1654.3 L 577.7 1654.3 Z M 783.6 1799.3 C 808.5 1822.6 838 1684 960 1762.8 C 881.1 1693.4 825.7 1756.3 783.6 1799.3 L 783.6 1799.3 Z M 706 1820.2 C 679.3 1792 583.3 1770.2 571.5 1798.2 C 617.4 1781.4 669.7 1791.1 704.7 1827.5 C 716.4 1828.8 728.6 1817.1 743.6 1818.1 C 730.4 1815 717.8 1816.9 706 1820.2 L 706 1820.2 Z M 919.9 1708.9 C 893.1 1686.4 793.2 1725.7 802.6 1747.2 C 831.7 1714.3 874.6 1700.7 919.9 1708.9 Z M 652.8 1736.5 C 681.9 1748.5 722.3 1734 742.5 1769.5 C 743.1 1770.3 745.2 1772.2 746.9 1767.4 C 731.7 1739.6 685.2 1735.6 652.8 1736.5 Z M 1122.4 1888.1 C 1112.5 1880.8 1102.1 1878 1092 1873 C 1093.9 1889.8 1110.2 1895.6 1122.4 1888.1 Z M 1019.4 482.8 C 1026.4 490 1047.9 501 1057 502.1 C 1046.2 491.4 1035.1 484.9 1019.4 482.8 Z M 1091 1537 C 1077.7 1538.9 1063.6 1538.5 1054.6 1551.1 C 1066.9 1546.8 1079.9 1544.4 1091 1537 Z M 1025.5 466.8 C 1026 472.6 1040.2 477.2 1046 482.4 C 1073.5 499.5 1037.1 462.9 1025.5 466.8 Z M 1107.3 1914.6 C 1105.5 1904.6 1096.2 1904.1 1086.9 1901.4 C 1093 1915.9 1093.6 1914 1107.3 1914.6 L 1107.3 1914.6 Z M 1539 1497.9 C 1533.7 1481.3 1545.1 1451 1545.8 1431.4 C 1549.6 1391.8 1471.6 1481.9 1491.5 1442.2 C 1525.9 1335.9 1521.8 1352.9 1511.7 1349.1 C 1491.2 1470.2 1464.4 1447.7 1485.3 1467.5 C 1503.7 1462.9 1514.4 1444.9 1532 1435.9 C 1526.4 1520.4 1518.6 1532.4 1562 1488.7 C 1587.2 1456.3 1567.1 1527.5 1585.3 1532.4 C 1594.1 1530.5 1612.5 1508.9 1605 1510.6 C 1568.9 1547.5 1594.1 1466.3 1580.2 1460.4 C 1563 1468.7 1555.4 1487.4 1539 1497.9 Z M 1653.6 2337.5 C 1661.8 2320.4 1667.1 2302.6 1666.4 2281.7 C 1656.6 2291.1 1652.4 2309.1 1653.6 2337.5 L 1653.6 2337.5 Z M 1683.5 2392.8 C 1690.9 2386.7 1684.8 2361.9 1686.5 2350.9 C 1676.7 2317.9 1673.5 2388.3 1683.5 2392.8 Z M 1584.6 1621.4 C 1593.4 1613.5 1600.6 1598.6 1592.7 1591.4 C 1578.9 1582.6 1582.2 1612.8 1584.6 1621.4 L 1584.6 1621.4 Z M 2272.6 2651.4 C 2138.6 2093.1 2111.6 2081.9 2147.4 2107.8 C 2156.1 2117.1 2151.7 2086.9 2148.2 2082.1 C 2130.5 2018.4 2124.3 2040.5 2120.1 2021.8 C 2123.5 1980.1 2095.2 1934.8 2087.5 1892.6 C 2079.9 1871.1 2078 1852.5 2072.1 1828.4 C 2063.4 1818.3 2057.7 1806.5 2053 1793.8 C 2049.2 1784.6 2069.6 1794.4 2074.3 1793.3 C 2062.8 1770.1 2049.2 1749.4 2030.8 1729.6 C 1987.2 1687 2084.2 1752 2071.3 1719.1 C 2062.3 1677.8 2032.4 1644.2 2010.7 1607.7 C 1994.7 1585 2054.7 1599.5 2065 1596.2 C 2056.2 1581.1 2040.6 1569.3 2026.9 1557.6 C 1922.3 1487 2062.8 1510.3 2030.2 1480.6 C 2001 1465 1978.6 1442.7 1960.5 1414 C 1928.2 1357 2034.2 1411.4 2013 1383.9 C 2008 1373.2 2001.2 1362.6 1995.4 1351.5 C 1972 1312 1956.4 1274 1926.1 1252.2 C 1904.9 1209.6 2000.9 1278 2008.5 1281.4 C 1998.7 1223.6 1944.8 1139.2 1898.1 1088.5 C 1891.5 1082 1893.8 1063.5 1907.6 1067.8 C 2015.9 1085.7 1862.5 1018.5 1861.3 1000.5 C 1858.1 985.9 1883.3 988.8 1895.5 986.4 C 1977.9 977.1 1775 962.5 1840.3 917.1 C 1857.5 891.1 1807 921.7 1788.5 899.2 C 1803.4 895.3 1832.9 900.8 1850.9 886.5 C 1866.4 876.8 1901.2 893.9 1877.2 899.9 C 1859.7 902.2 1858.9 915.9 1851.1 925.3 C 1841.2 931.3 1832.3 935.2 1845.7 944.1 C 1864.3 955.7 2003.2 990.9 1959.6 994.3 C 1938.8 995.7 1917.5 995.2 1895.6 997.8 C 1847.4 1002.3 1919.4 1027 1930.1 1037.4 C 1944.4 1047.3 1992.1 1086.3 1968.1 1086.9 C 1921.5 1083.7 1910.9 1075.5 1946.3 1115.5 C 1956.4 1117 1997.3 1079.6 1994.4 1093.4 C 1984.2 1148.4 1953.7 1131.3 1959.7 1144.6 C 2020.3 1253.4 1996 1245.4 2035.5 1192.7 C 2050.1 1163.8 2030.8 1159.6 2036.8 1140.3 C 2111 1085.1 2134.6 1134.5 2144.6 1034.4 C 2156.3 962.5 2140.2 821 2089.8 797 C 2075.7 808.3 2072 832.4 2053.7 836.7 C 2023.8 831.6 1993.2 824.3 1964.9 811.7 C 1954.7 805 1944 802.4 1931.4 805 C 1902.1 803.2 1943.4 833.9 1943.2 851.1 C 1955.2 867.5 2009.6 1040.6 1972.4 973.5 C 1965.7 921.2 1847.9 831.5 1824.9 832.1 C 1814.1 831.3 1773.1 812.9 1777.7 824.2 C 1763.8 896.5 1762.2 955.8 1733.4 976.4 C 1679 1020.9 1615.6 1043.8 1548.8 1062.2 C 1378.7 1129 1335.3 987.4 1308.6 1017.7 C 1292.6 1022.7 1294.1 1016.2 1286.2 1032.4 C 1237.8 1097.1 1335.2 1171.6 1318.3 1185.6 C 1290.7 1205.9 1244.4 1152.5 1233.4 1138.5 C 1228.2 1131 1226.9 1148.5 1222.2 1153 C 1212.7 1176.2 1193.9 1198.8 1190.5 1220.5 C 1208.7 1245.7 1209.7 1280.6 1225.1 1309.2 C 1239.1 1350.5 1265.6 1386.6 1291.1 1421.4 C 1293.9 1438.9 1344.5 1443.3 1314.8 1463.9 C 1169.5 1600 1160.2 1573.7 1263.7 1609.1 C 1317.4 1614.3 1311.5 1628 1325.6 1599.9 C 1329 1592.5 1330.4 1581.3 1336.7 1582.6 C 1355.1 1586.6 1399.5 1605.8 1395.2 1579.6 C 1396 1529.5 1407.4 1479.4 1391.8 1483.2 C 1374.1 1483.2 1355 1471 1347.2 1492.4 C 1319.3 1513.4 1331.5 1458.2 1333.1 1443.7 C 1344 1394.2 1365.6 1349.8 1375.1 1303.1 C 1380.6 1277.8 1345.4 1325.8 1337.4 1328.5 C 1311.8 1348 1287 1342.3 1302 1310.6 C 1317 1278.9 1329.9 1250.4 1342.4 1220.8 C 1327.3 1215.1 1291.2 1253 1302.3 1210 C 1427.2 1061.3 1261.2 1215.7 1334.6 1109.5 C 1359.4 1083.5 1276.5 1129.5 1296.6 1093.6 C 1319 1083.4 1336.1 1063.7 1354.6 1048.1 C 1362.4 1067.3 1332.1 1086.8 1315.7 1089.6 C 1301 1097 1360.4 1082.4 1363.2 1097.2 C 1349.7 1108.6 1339.3 1126.7 1320.6 1136.1 C 1337 1137.1 1354.3 1127.7 1365.5 1118.7 C 1387 1127.7 1315 1207.6 1312 1212.1 C 1306.4 1219.9 1329.9 1207.6 1335.3 1205.8 C 1436.8 1150.5 1264.1 1364.9 1343.1 1301.7 C 1473.3 1199.6 1341.8 1414 1349.6 1459.7 C 1340.6 1494 1407.4 1405.8 1407.7 1403.7 C 1416.8 1400.2 1425.6 1402 1437.3 1400.3 C 1404.1 1485.6 1419.8 1580.6 1406.6 1671.2 C 1500.4 1546.5 1477.6 1637 1481.2 1664 C 1480.8 1687.9 1486.7 1820.7 1498.5 1799.5 C 1554.2 1719.4 1521 1823.2 1545.7 1846.9 C 1530.5 1861.9 1537.3 1883.7 1537 1904.2 C 1534.5 1941.1 1526.2 1980.8 1529 2018.4 C 1530.5 2074.8 1560.7 1921 1552.7 2075.7 C 1572.8 2274.3 1580.1 2117.7 1587.6 2204.1 C 1590.9 2288.8 1615.1 2365.1 1634.2 2444.4 C 1645.6 2511.5 1653.3 2595.2 1665.6 2651.4 L 1579.1 2651.4 C 1565.3 2649.4 1536.5 2655.6 1539.3 2648.6 C 1542.3 2628.8 1516.4 2630.1 1532.1 2618.8 C 1526.3 2482.3 1487 2343.4 1464.4 2206.7 C 1425.1 2024.3 1395.6 1860.2 1371.7 1794.8 C 1395.6 1759.9 1403.2 1851.1 1411.5 1864.9 C 1426.5 1865.4 1444.3 1862.6 1459.2 1858 C 1536.6 1831.4 1518.5 1837.3 1520.4 1793.5 C 1488.7 1839.6 1485.8 1843.4 1478.2 1785 C 1460.4 1629.6 1473.4 1615.2 1457.5 1631.7 C 1404.6 1682.9 1371.5 1791.1 1390 1640.1 C 1375.1 1635.8 1381.4 1655.6 1375.3 1662.7 C 1374.2 1669.3 1354.9 1666.3 1364.6 1672.4 C 1370.4 1675 1377.2 1671.7 1380.4 1680.5 C 1389 1701.5 1318.4 1672.3 1312.7 1671.5 C 1286.7 1669.6 1261.4 1669.6 1233.2 1664.5 C 1136.3 1654.3 1035.2 1669.8 1111.2 1618.2 C 1260.4 1483.6 1300.2 1466 1276 1468.8 C 1263.1 1473.2 1251.7 1474.6 1238.7 1473.2 C 1223.5 1487.4 1204 1487.3 1184.9 1492.4 C 1160.2 1501 1140.5 1513.2 1114.7 1521.1 C 1068.6 1533.4 1027.9 1547.8 983.5 1563.9 C 910.6 1570.2 950.9 1509.8 967.8 1478.2 C 989.7 1436.2 1010.2 1396.4 1031.9 1354.4 C 1063.1 1295.7 1054.2 1314.6 1013.8 1334.3 C 923.4 1379.7 914.3 1401.6 885.6 1417.4 C 879.9 1408.2 871.8 1435.6 867.8 1437.3 C 825.8 1449.5 778.9 1523.9 744.6 1498 C 728.5 1489.7 745.4 1481.5 745.5 1471 C 749.1 1449.8 755.2 1428.9 759.9 1407.2 C 768.8 1366 779.4 1327.6 786.5 1285.8 C 750.8 1339.7 701.3 1385.2 674.8 1446.7 C 595.3 1541.4 614.7 1536.5 586.9 1525.7 C 600.5 1373.4 612.3 1427.2 603.2 1461.8 C 585.1 1542.3 625.3 1466.6 647.7 1434.1 C 642.6 1419.3 614.6 1412.6 605.3 1395.9 C 606.8 1379.5 637.7 1403.3 644.1 1408.5 C 650.4 1409.7 655.1 1424.1 660.4 1417 C 671.9 1400.7 683.4 1387 696.7 1370.5 C 728.7 1334.1 721.3 1341 708.1 1307 C 660.2 1191.9 658.5 1086.5 634.5 1056.1 C 607.8 1003.6 539.4 1021.2 520.1 1064.2 C 482.4 1146.3 609.8 1323 613.1 1376.5 C 619 1395.7 607.4 1385 601 1377.3 C 575 1444.6 540 1508.3 517 1577 C 516 1596.8 511.5 1598.6 494.7 1590.3 C 496.7 1581.5 501.3 1569.9 505 1559.4 C 533 1497.3 512.6 1504.9 510 1462.4 C 512.7 1400.2 548.9 1386 594.5 1372.1 C 565.2 1274.6 496.3 1184.7 495.6 1106.5 C 491.7 1038 542.9 1001 603.5 1006.3 C 667.9 994.8 667.7 1109 677 1147 C 689.5 1208.5 707.2 1266.7 731.3 1322.3 C 777 1320.1 761.5 1059.3 786.7 1041.2 C 814.4 984.5 882.2 973.1 925.4 1014.9 L 925.3 1014.9 C 978.1 1062.9 894.2 1246.8 896 1297 C 874 1387.5 904.2 1385 966.8 1344.1 C 998.2 1324.4 1030.2 1312.9 1061.3 1292.5 C 1079.8 1257.6 1108.7 1297.3 1094.3 1308.4 C 1069.4 1335.8 1050.8 1369.1 1035.9 1404.4 C 1008.5 1450.8 963.9 1490.4 988 1533.6 C 1052.7 1439.5 1106.2 1335.5 1157 1233.9 C 1188.1 1188.4 1209.5 1136.4 1236.5 1088 C 1244.7 1067.9 1267 1051.2 1254.3 1040.9 C 1263.4 1009.1 1297.9 997.4 1292.6 991.1 C 1237.6 967.5 1297.2 973.5 1314.2 991.8 C 1361.9 1025.5 1416.3 1055.8 1474.7 1051.3 C 1566.2 1035.7 1670.5 996.8 1712.9 953.1 C 1769.3 883.3 1758.6 791.7 1784.9 712.8 C 1808.9 652 1780.8 775.9 1777.1 785.2 C 1794.8 789.2 1803.3 805.6 1820.6 812.6 C 1826.3 804.7 1829.9 798.9 1821.5 789.3 C 1775.7 669.2 1938.1 808.2 1903.2 764.3 C 1887 739.6 1862.6 719.6 1852.9 696 C 1864.9 683.5 1946.8 708.1 1910.6 684 C 1849.1 645.8 1857.8 616.9 1884.6 570.3 C 1886.8 561 1857.9 587.9 1859.3 593.9 C 1857 595.8 1855.1 594.9 1850.5 593.5 C 1873.5 564.3 1882.1 550.4 1844.6 580.3 C 1828.9 589.4 1806.2 656.8 1803 639.9 C 1802.4 627.6 1818.5 612.8 1815.2 605 C 1786.3 623.8 1763.3 655.3 1731.4 671.1 C 1781 614.2 1855.8 557.7 1829.8 566.3 C 1754.7 566.3 1751 569.7 1708.4 596.5 C 1610 664.9 1566.4 784.7 1474.6 858.7 C 1439.4 918.2 1396.2 984.5 1323 951.6 C 1223.7 888.9 1296.7 784.7 1279.8 781.3 C 1214.3 742.8 1216.1 702.7 1194.7 746.2 C 1175.2 772.7 1204.5 700.9 1216.3 702.7 C 1238.3 689.7 1260.9 687.1 1285.6 681.8 C 1296.7 677 1340.1 656.9 1313 682.1 C 1314.1 682.9 1313.8 685 1317.1 683.1 C 1334.3 678.8 1394.9 607.9 1386.1 654.4 C 1385.7 659.2 1386.2 658.1 1390.4 653.4 C 1413.7 622.4 1409.7 613.7 1424.2 649.7 C 1425.9 653.7 1425.7 652.4 1428.9 645.7 C 1450.5 586.6 1436.3 603.3 1485.1 604.7 C 1509.6 607.7 1456.9 595 1520.6 581.6 C 1534.7 577.8 1516.6 574 1511.1 568.5 C 1501.1 563.5 1562.3 559 1563.6 556.8 C 1578.2 553 1566.7 561.6 1559 566.9 C 1568.9 580.7 1583.6 618.3 1595.1 606.7 C 1611.7 589 1606.4 559.8 1605.4 541.4 C 1594.1 544 1549.9 558.3 1579 541.8 C 1632.7 520.9 1533.7 533.7 1631.6 498.2 C 1667.8 488.7 1606.7 492.8 1641.7 483.4 C 1669.9 461.3 1708 448.6 1739.1 427.8 C 1786.1 392.7 1802.6 406.4 1832.9 399.4 C 1916.2 389.2 1871.5 375.9 1827.7 369.6 C 1744.7 371.1 1693.1 371.7 1667.6 384.7 C 1682.3 359.4 1718.3 372.6 1742.9 365.1 C 1733.3 354.3 1685.4 348.8 1673.5 347 C 1688.4 335.5 1733.8 358.2 1748.6 357.1 C 2019.4 370.2 1824.3 400.4 1991.4 377.7 C 2024.3 380.6 1990.5 332 1999.3 312.4 C 2025.3 179.8 2133.2 225.8 2152.6 242.6 C 2166.3 262.8 2151.8 288.7 2150.7 312.5 C 2135.7 379.7 2186.5 367.2 2212.9 399.2 C 2253.9 495.7 2295.5 510.5 2384.6 509.9 C 2465.9 515 2560.5 507.2 2634.1 525.2 L 2634.1 802.8 C 2634.1 811.2 2636.2 816.9 2624.3 813.9 C 2588 806.5 2553.2 792 2515.3 782.7 C 2513.7 910.2 2498.6 920.6 2453.9 987.4 C 2668.4 927.7 2630 932.6 2633.8 957.6 C 2626.9 960.8 2621.1 960.1 2611.4 962.3 C 2493.7 995.1 2458 1000.9 2414.8 1025.4 C 2372.42 1032.987 2330.957 1045.02 2291.1 1061.3 C 2138.9 1128.6 2089.5 1130.1 2069.5 1153 C 2056.5 1158.6 2071.2 1186.8 2071.2 1196.5 C 2108.5 1386.9 2147.1 1573.7 2196.7 1761.1 C 2354.3 2438.9 2333 2366.4 2352.1 2388.4 C 2337.8 2410.6 2358.4 2444.2 2365.4 2466.6 C 2368.2 2528 2403 2597.6 2402.9 2651.4 C 2396.1 2649.4 2379.6 2656 2381.2 2647.3 C 2371.3 2614.5 2356.1 2519.5 2349.2 2532.1 C 2275.7 2604.3 2271.7 2562.5 2271.2 2587 C 2274.5 2639.9 2320.6 2655 2272.6 2651.4 Z M 2066 728 C 2188.1 794.1 2288.2 690.5 2317.8 709.7 C 2324.4 715.3 2318.5 715.6 2311.4 718.1 C 2316.3 721.2 2321.5 724.3 2324.9 724.4 C 2332.1 724.1 2341.6 714.3 2349.3 708.4 C 2377.5 669.5 2395 527.4 2334.7 527.5 C 2320.2 525 2325.1 536.3 2314.6 530.7 C 2283.5 512.3 2255.7 490 2225.1 470.4 C 2220.7 466.6 2191.3 449.5 2202.2 451.3 C 2234 466.4 2192.6 399.4 2185.4 395.9 C 2061.7 329.4 2200.8 238.3 2086.4 239.3 C 2001.4 252.2 2006.6 350.9 2026.4 371.6 C 2055.5 392.2 2095.8 389.7 2123.4 414.6 C 2093.2 414 2062.8 397.5 2031.3 394.7 C 1958.8 393.4 1887.4 402 1815.9 415.5 C 1696.2 434.7 1695 550.8 1771.7 557.9 C 1816.4 552.2 1867.7 547.5 1909.5 539.5 C 1915.4 513.4 1944.6 444.3 1966.9 467.9 C 1963.9 470.5 1962.7 470.9 1956.9 475.2 C 1922 502.1 1927.2 515.7 1926 551.6 C 1923.3 556.8 1924.1 562 1918.8 565.9 C 1868.4 600.5 1887.1 654.4 1930.8 676.7 C 1947.2 674.5 1943.2 614.6 1949.8 605.5 C 1961 570.4 1961.1 600.6 1957.8 618 C 1966.1 696.6 1915.4 717 1932.3 763.2 C 1946.3 792.6 1982.6 797.7 2010.7 807.4 C 2049.4 828.3 2076.6 792.9 2095.5 764.8 C 2102 747.3 2063.9 747.6 2057.3 758.4 C 2027.4 777.3 2059.2 735.5 2066 728 Z M 2206.1 779.3 C 2266.8 827.5 2243.5 923.6 2240.1 997.2 C 2250.1 1071.3 2263.3 1044.1 2299.2 1036.6 C 2403.4 1003.8 2381.7 1016.9 2400.2 989.8 C 2433.1 938.3 2437.9 872.9 2424.3 812.9 C 2418.9 786.4 2405.4 753 2378.8 757.1 C 2320.2 762.7 2265.4 772.1 2206.1 779.3 Z M 2133.1 2005.2 C 2163.4 2001.1 2226.2 1946.4 2214.8 1928.7 C 2199.3 1859.2 2182.8 1792.5 2165.8 1724 C 2147 1720.4 2104.2 1776 2083.5 1764.3 C 2077.9 1762 2069.9 1762.8 2079 1756.4 C 2122.2 1719.1 2167.7 1694.2 2147.6 1649.5 C 2136.5 1614.5 2136.2 1578.9 2118.2 1546.7 C 2114.2 1540.6 2103.5 1553 2096.1 1554.5 C 2041 1579.3 2062.4 1570.4 2084.9 1608.9 C 2088.2 1621.9 2011.6 1595.3 2037.3 1621.9 C 2053.2 1650 2122.3 1771 2054.8 1740.9 C 2043.6 1737.2 2048.7 1740 2053.6 1748.1 C 2063.1 1766.2 2115.8 1822.7 2091.6 1811.9 C 2086.3 1812 2068.4 1801.2 2074.9 1811.2 C 2102 1871.8 2105.1 1943.1 2133.1 2005.2 L 2133.1 2005.2 Z M 2431 530 C 2488.8 616.7 2442.1 664.1 2410.6 737.8 C 2600.9 774.2 2575.8 790 2591.6 767.4 C 2621.1 714.9 2624.8 653.8 2605.3 596.8 C 2588.2 505.1 2495.5 539.8 2431 530 Z M 871.8 1355.8 C 887.7 1220.8 950.5 1052.2 912.1 1025.8 C 888 1002.5 851.3 1002.9 825.8 1023.1 C 764.8 1065.5 787.3 1211 768 1266.4 C 765.4 1310.8 800 1186.6 826 1230.2 C 783.7 1399.8 765.1 1321.8 871.8 1355.8 Z M 1402.9 727.5 C 1285.3 697.3 1239.3 921.7 1358 944.8 C 1435.8 938.7 1438.1 872.2 1475.1 838.8 C 1548.1 790.3 1508.9 737.2 1480.6 733.3 C 1453.2 727.1 1425.7 725.6 1401 742.6 C 1375.2 741.6 1392.6 733.1 1402.9 727.5 L 1402.9 727.5 Z M 1465.7 2126.1 C 1528.1 2408.6 1493.8 2390.6 1603.5 2403.6 C 1617.7 2408.4 1607.1 2390.4 1607.8 2381.2 C 1571.8 2152.7 1580.3 2257.4 1563.9 2215.7 C 1535.8 2078.8 1559.8 2141.7 1465.7 2126.1 Z M 2230.2 2008.3 C 2180.7 2041.2 2144.5 2036.5 2147.9 2049.2 C 2167.8 2141.9 2179.3 2143 2158.3 2147 C 2166.2 2175.6 2172.7 2203.2 2180.6 2232 C 2187.5 2250 2181.8 2264.7 2201.5 2251.2 C 2236.9 2230.1 2277.6 2218.6 2270.8 2204.8 C 2257.2 2137.7 2249.8 2074.2 2230.2 2008.3 L 2230.2 2008.3 Z M 2211.1 2363 C 2277.9 2599.9 2256.7 2559.5 2284.1 2537.9 C 2309.9 2507.8 2333.7 2475.4 2331.7 2444.5 C 2318 2393.1 2304.6 2344.4 2289.1 2293.3 C 2285.6 2258.6 2218.3 2360.5 2211.1 2363 L 2211.1 2363 Z M 1268.5 1446.5 C 1137.1 1323.8 1137.2 1326.1 1138.8 1309.8 C 1075 1438.2 1060 1440.2 1082.4 1474.7 C 1090.3 1484.1 1096.5 1501.1 1109.3 1497.8 C 1161.4 1480.2 1215.7 1467.2 1268.5 1446.5 L 1268.5 1446.5 Z M 1985.6 1405.7 C 1962.8 1440.5 2094.8 1523.7 2104.3 1487.8 C 2051.8 1219.9 2079.1 1269.9 2027 1285.5 C 2015.9 1302.6 1995.1 1285.1 1979.7 1282.5 C 1957.7 1275.7 1995.5 1329.9 1996.7 1337.1 C 2034.2 1395.8 2069.7 1424.2 1985.6 1405.7 L 1985.6 1405.7 Z M 1457 2084 C 1549 2088.9 1523.3 2092.4 1520.3 2027.5 C 1512.1 1953.7 1524.9 1940.8 1516.2 1913.4 C 1411.6 1923.5 1420.5 1901 1423.1 1924.8 C 1429.3 1962.4 1452.4 2072 1457 2084 L 1457 2084 Z M 1534.2 2467.4 C 1543.6 2524.2 1549.7 2592.9 1558.8 2593.4 C 1582.6 2601 1632.1 2604.2 1636.8 2577.7 C 1615.7 2418.4 1650 2469.3 1534.2 2467.4 L 1534.2 2467.4 Z M 768.6 1466.1 C 785.9 1458.3 908.7 1387.6 889.7 1388.4 C 823.9 1351.4 837.8 1374.5 795.3 1363.3 C 778.7 1364.9 784.7 1399.3 780.4 1411.6 C 777.7 1430.9 770.6 1445.6 768.6 1466.1 Z M 1825.1 752.7 C 1818.9 811.2 1872.8 788.8 1905.1 785.3 C 1874.5 772.7 1846.8 754.4 1825.1 752.7 Z M 537.1 1480.8 C 552.2 1451.4 566.4 1424.1 580.9 1396 C 547.4 1397.7 523.6 1442.9 537.1 1480.8 Z M 1904.6 755.1 C 1930.3 693.8 1915 712.1 1870.9 703.1 C 1861.8 703.9 1904.5 751 1904.6 755.1 Z M 2213.9 758.1 C 2226.1 761.1 2295.2 748.6 2309.5 743.4 C 2316.5 741.9 2284 734.9 2275.4 732.6 C 2253.9 735.3 2234.7 750.4 2213.9 758.1 Z M 1331.7 681.4 C 1348.8 701.6 1400.5 714.6 1371.3 676.1 C 1362.6 648.2 1345.1 671.6 1331.7 681.4 Z M 1339.8 1667.9 C 1330.7 1619.3 1324.7 1631.7 1306.9 1664.8 L 1339.8 1667.9 Z M 1026.8 1522 C 1065.9 1513.3 1057.1 1510.1 1047.5 1485.5 C 1037.7 1496.5 1029 1511.8 1026.8 1522 L 1026.8 1522 Z M 2137.1 766.3 C 2121.5 757.5 2103.6 764.3 2108.2 775.6 C 2118.9 775 2128.4 777 2137.1 766.3 Z M 1182.9 2305.1 C 1183.7 2306.9 1180.5 2329.4 1187.9 2319.2 C 1209.3 2276.8 1215.7 2376.1 1127 2310 C 1108.8 2288.8 1151.4 2244.6 1146.6 2229.6 C 1143.5 2202.1 1145.6 2209.4 1136 2228 C 1114.5 2273 1110.7 2289.5 1117.8 2319.9 C 1063.2 2319.7 1054.5 2241.4 1110.4 2297.4 C 1112.8 2287.3 1101.2 2282.3 1094.5 2274.1 C 1075.7 2251.6 1134 2206.9 1133.9 2189 C 1119.5 2182.3 1085.3 2244.3 1082.3 2247.2 C 1061.3 2219.1 1105.4 2202.7 1117.7 2180.8 C 1153.7 2131.1 1159 2150.3 1194.5 2171.1 C 1230.3 2194.4 1268.9 2206.3 1294.1 2234.1 C 1300.3 2241.4 1305.8 2249.7 1307.9 2260.7 C 1339.2 2382.3 1385 2442.9 1363.8 2465.8 C 1329.3 2480.5 1221.6 2459.7 1206.7 2462.8 C 1166.7 2457.8 1151.2 2469.8 1179.2 2433.1 C 1190.4 2421.1 1195.1 2404.2 1209.9 2397.9 C 1241.6 2401.2 1268.7 2406.4 1300 2412.3 C 1300 2386.3 1271.2 2276.8 1260.8 2289.8 C 1227.6 2324 1219.1 2302 1188 2290.5 C 1168.6 2293.5 1155.7 2307.6 1182.9 2305.1 Z M 147.1 2367.7 C 105.4 2357.9 66.5 2366.3 25.3 2353 C -22.5 2339.6 116.8 2160 120.1 2137.3 C 130.6 2117.5 157.4 2121.5 176.6 2114 C 217.3 2103.6 244.3 2082.6 286.2 2066.8 C 312.2 2049.9 349.9 2136.5 362.8 2150.2 C 366 2156.4 356.3 2180.1 351.5 2164.7 C 333.6 2139.8 312.3 2090.1 310.3 2107.3 C 311.6 2130.1 334.8 2148.3 339.7 2172.5 C 332.4 2245.8 293.3 2145 292.1 2126.5 C 271.7 2158.6 325.6 2196.7 300.3 2222.7 C 201.2 2291.8 202 2184.8 254.9 2219.6 C 255.5 2214 256.3 2206 257.1 2198.7 C 265.2 2180.9 218.4 2215 204.4 2204.4 C 127.9 2177.8 159.4 2140.4 86.6 2298.1 C 115.6 2316.4 149.4 2306.7 182.8 2313.5 C 190.3 2385.6 202.7 2372.5 147.1 2367.7 Z M 1070.8 2307.3 C 1090.2 2332.4 1112.2 2329.2 1136.6 2335.3 C 1157.9 2342.6 1184.8 2358.2 1197.8 2346.7 C 1226.1 2293.7 1221.2 2346.9 1257 2308.9 C 1262 2304.4 1262.9 2303.6 1263.7 2307.3 C 1300.7 2423.5 1291.5 2391.1 1239.1 2389 C 1204.5 2388.1 1250.8 2376.4 1212 2368.6 C 1112.5 2360.7 1018.3 2335.1 921.5 2312.1 C 883.8 2300.5 937 2293.9 948 2285.5 C 976.8 2270.9 1001.2 2255.3 1027 2236.8 C 1079.8 2194 1054.6 2141.6 1108.9 2171.4 C 1078.5 2209.8 1050.7 2213.6 1065.5 2249.5 C 1066 2275.3 1051.1 2284.2 1070.8 2307.3 Z M 318.7 2224 C 327.8 2219.1 363.4 2183.2 360.2 2194.2 C 362 2231.7 283.5 2254.5 318.7 2224 L 318.7 2224 Z M 1305.1 327.7 C 1299 292.5 1257.1 280.4 1248.3 316.8 C 1241.9 333.6 1254.5 347.5 1252.1 362.6 C 1221.8 399.6 1180.1 417.5 1144.8 449.8 C 1100.7 408.7 1100.5 323.8 1137.7 276.2 C 1199.2 193.4 1304.2 224.1 1333.7 313.6 L 1305.1 327.7 Z M 1277.7 327.8 C 1281.5 338.9 1265.1 336.4 1263.3 330.2 C 1263 306.9 1270.7 317.8 1277.7 327.8 L 1277.7 327.8 Z M 797.6 2244.4 C 734.5 2256.7 784.7 2191.2 770.8 2159.7 C 762.1 2151 766.9 2169 765.3 2175.2 C 759.8 2255.6 772 2248.1 707.7 2239 C 690.9 2233.1 655.4 2227.4 654.4 2216.6 C 652.3 2200 673 2107.6 652.5 2141.4 C 641.1 2231.1 657.5 2221.6 623.4 2207.7 C 559.9 2176.3 538 2164.8 559.6 2111 C 570.3 2105.2 573.6 2122.1 588.8 2116.8 C 604.6 2115.2 593.3 2177.8 597.4 2185.1 C 608 2211.9 605.8 2174 605.4 2163.9 C 604.6 2148.3 607.7 2136.1 609.9 2119.4 C 605.1 2109.1 575.9 2115.9 581.6 2096.5 C 590.2 2022.2 592.5 2023.9 643.6 2057.2 C 643.8 2067.3 631.6 2149.2 642.8 2125.5 C 647.6 2099.8 645.1 2051.7 659 2061.6 C 725 2085.1 712.7 2076.3 709.9 2103.1 C 709.3 2111 701.5 2152.8 710 2145.8 C 719.8 2124.3 712.4 2087.7 723 2084.4 C 744.2 2089 781.7 2087 780.5 2095.2 C 777.2 2119.3 780.5 2186.2 788.5 2132.8 C 791.6 2119.5 786.6 2096.9 794.9 2092.9 C 802.9 2092.4 844.9 2086.3 846.9 2096.3 C 846.3 2115.5 848.1 2143.4 841.4 2157.8 C 838 2159.3 822.2 2157.4 834.3 2163.1 C 843.4 2170.7 861.5 2166.2 862.6 2176.9 C 863.2 2189.9 847 2246.7 861.6 2229.8 C 876.4 2187.3 864.6 2170.1 887 2172.2 C 895.1 2173 906.9 2166 903.1 2178.8 C 896.1 2200.1 894.3 2225 884.3 2235 C 774.8 2256 811.6 2251.6 821.5 2179.4 C 826.2 2164.7 825.4 2152.1 813.5 2162.6 C 810.9 2191.4 804.5 2216.9 797.6 2244.4 Z M 584.9 2027.6 C 570.6 2110.2 580 2107.1 556.8 2093.6 C 524.6 2073.1 537.7 2055.4 541.7 2027.7 C 550 2009.7 569.5 2023.9 584.9 2027.6 Z M 881.2 2095.7 C 880.5 2139.9 890.6 2170.5 850.3 2154.9 C 859.5 2085.7 852.6 2087.8 881.2 2095.7 Z M 915.7 2172.6 C 950.2 2165.7 891 2257.3 899.8 2222.8 C 906 2205.1 909.9 2192.3 915.7 2172.6 L 915.7 2172.6 Z M 671.9 1915.9 C 635.1 1905.4 596.4 1890.7 556.9 1893 C 542.7 1842.4 696 1876 671.9 1915.9 Z M 811.6 1916.9 C 806.4 1941.1 828.7 1948.3 818.4 1949.5 C 779.7 1955.6 799.3 1922 811.6 1916.9 Z M 827.3 1911.7 C 833.4 1918.8 832.4 1922.4 822.7 1928.9 C 818.5 1922.3 819.8 1917.6 827.3 1911.7 L 827.3 1911.7 Z M 688 1908.1 C 693.3 1911.8 699.1 1916.1 687.1 1915.8 C 687.3 1914.5 687.5 1912.5 688 1908.1 L 688 1908.1 Z M 925.3 1014.8 L 925.4 1014.8 C 937.9 980.6 1032.3 932.4 1043.7 924.6 C 1084.2 915.3 1051.1 965.5 1042.2 975.7 C 1037.3 995.7 1018.2 1069.1 1014.2 1057.6 C 1008.8 1025.7 1043.8 992.7 1033.5 957.1 C 1053.1 913.8 980.9 977.8 973.7 984 C 959 996.2 947 1024.9 925.3 1014.8 L 925.3 1014.8 Z M 1420.2 181.7 C 1421.8 182.2 1423 172.9 1426.9 177.8 C 1425.8 178.7 1424.3 178.5 1420.2 181.7 L 1420.2 181.7 Z M 708.4 2235.6 C 715.2 2237.6 716.1 2218.4 717.5 2209.7 C 718.3 2186.3 731.8 2143.5 718.5 2148.9 C 707.5 2167.7 707.3 2220.9 708.4 2235.6 Z M 708.4 2235.6 C 715.2 2237.6 716.1 2218.4 717.5 2209.7 C 718.3 2186.3 731.8 2143.5 718.5 2148.9 C 707.5 2167.7 707.3 2220.9 708.4 2235.6 Z M 474.4 1766.3 C 469.9 1776 424.2 1787.4 436.4 1769.3 C 448.7 1768 464.3 1762 474.4 1766.3 Z M 459.9 1739.4 C 450.6 1751.3 438.2 1752.5 429.2 1743.1 C 439.1 1741.1 448.3 1738.4 459.9 1739.4 Z M 835 1947.9 C 865.9 1903 820.2 1905 827.3 1897.2 C 855.8 1856.6 897.6 1845.6 943.1 1865.4 C 972.6 1880.8 974.9 1926.9 960.1 1958.4 C 923.3 1954.9 877 1945.5 835 1947.9 Z M 894.7 1834.4 C 834.4 1836.9 740.4 2016.6 766 1893.8 C 763.3 1893.4 756.7 1917.5 754.9 1918.6 C 755.6 1950.6 729.3 1932.5 731.9 1926.2 C 724.7 1908.7 732 1883.9 724.6 1888.4 C 713.3 1888.4 718.4 1891 718.4 1900.2 C 741.7 1981.8 664.6 1844 622.5 1850.3 C 580.4 1839.7 568 1845.1 534.3 1867.6 C 520.9 1875.5 523.4 1883.5 539.1 1883.4 C 547.5 1877.5 548.8 1887.9 550.6 1893.4 C 548.7 1896.4 535 1894.2 538.8 1900.1 C 569.6 1903.7 605 1898.6 628.7 1909.3 C 655.6 1917 671.5 1923.5 692.1 1932 C 720.5 1943.5 624.7 1947.7 614 1943.6 C 592.7 1941.3 569.9 1926.2 567.2 1931.4 C 579.5 1938.8 592.7 1943.5 604 1946.8 C 653.7 1959.8 729.2 1936.3 703.4 1947.5 C 670.4 1963 668.3 1958.1 645.5 1956.6 C 613.1 1955.9 590.3 1963.1 561.3 1971.7 C 556 1977.2 617.4 1967.6 623.9 1967.3 C 638.8 1964.9 666 1967 671.9 1969.8 C 651.1 2045.8 817.1 2088.9 826.9 2002.5 C 857.7 2013.7 940.3 2117 916.1 2083.8 C 838.9 1976.2 796.6 1975.8 820.4 1975.5 C 869.7 1982.1 996.5 2027 896.9 1988 C 891.1 1983.3 923.4 1991.1 920.7 1987 C 764.7 1965.1 827.4 1954.2 775.2 1961.1 C 759.7 1966.1 814.4 1969.7 803.9 1984.9 C 804 1986.9 805.1 1987.2 808.8 1990.6 C 823.9 2024.5 743.8 2035.8 724.4 2025.6 C 660.4 2006.4 685.5 1946.1 726 1974.6 C 728.5 1975.3 728 1973.2 724.6 1969.4 C 719.7 1962.9 705.2 1959.1 705.1 1955.4 C 705 1951.7 733.6 1955.7 729.2 1951 C 725.7 1944.7 707.9 1950.8 719.6 1939.1 C 740.8 1944.9 749.7 1945.5 760.3 1943.8 C 764.4 1950.3 760.1 1966.4 768.4 1968.8 C 772.6 1938.5 777 1956 798.6 1953.4 C 803.9 1957 802.3 1960.5 811.9 1958.3 C 948.2 1943.7 950.9 1977.5 984 1975.9 C 993.5 1971.3 960.6 1967.6 965.9 1962.1 C 993.3 1909.2 954.2 1862.2 969.5 1879.4 C 1023 1958.8 982.1 1820.5 894.7 1834.4 L 894.7 1834.4 Z"/>
</svg>