<svg id="fdf61296-5c97-48b7-a77a-f690cc2f26d9" data-name="Layer 2" xmlns="http://www.w3.org/2000/svg" viewBox="0 0 2634.3 2652"><title>safari-pinned-tab</title><path d="M1046.4,590.7c-11.1-17,6.5-9.4,18.6-11.7,55.7,2.4,23.2-12.6,47.5-33.7,33.2,2.8-53.2-43-63.9-30.8,19,6.2,37.9,16,54.4,25.4-19.1-.9-61.1-20.1-65.6-9.6,10.8-.1,78.4,19,45.3,16.5-53-6.5-46.1.8-9.8,4.2,26.6,11.1-17.5,4.1-26.1,6.5,44.8,11.6,11.9,14.8-12.4,15.6-22.5,12.5,2.5,12.7,12.3,17.3-10.3,11.2-16.3,15.7-22-3.7-28-74.5,51.1-145.6,21.2-129.6-17.2,8.3-47.5,57.4-38.1,28.1-1.7-29-5.6-26.3-17.2-6.4-37.8,5-85.9-2.7-92.9-38.8,18.4-50.5,85.2-22.6,124.7-22.1,27.4,3.3,17.8-26.8,25.8-47,.3-11.2,24.6-55.9,24.1-34.9,3.9,15.1,1.5,37.3,14,33.3,13.1-71.1,28.9-124.8,97.9-150.1,23.6-25.5,34.2-55.9,55.7-82.9-4.6,43,3.6,68.7,30.3,20.8,20.8-23.2,41.2-45.9,65.3-66,1.6,21.8-24.1,57.1-15.7,61.7,13.3,11.5,26.7-14.3,38.2-18,30.1-18.7,59.4-34.5,90.7-52.3-88.6,21.6-128.9,82.8-105.4,32.3,3.1-19.5,21.8-33.9,23.8-47.5-8.3-3.6-13.1-7.2-19.9,1.5-117.9,101.7-95.5,117.9-86.1,30.6-15.3-4.2-17.4,10.7-23.5,21.2-23.9,30.1-43.6,59.8-66.5,90.2-43,30.2-83.3,61.7-113.5,105.4-17.4,33.6-25,17.9-49.3,16.1C740.7,263.2,767.5,588.2,991,545.7c14.1,3.6,4.2,63.7,20.3,68.1C1060.7,617.7,1153,591.7,1046.4,590.7ZM855.2,2666.5c-1.2-11.7,3.8-18.6,17.4-19.5-25.9.1,9.9-55.9,19.9-57.8,9.3-5.2,19.2,6.2,29.4,3.8,11.6-10,39-.6,50.7,1,7.1,2,4.1,13.1,11.3,15.1,18.7-18,24.4-6.7,45.4-3,.2,4.2-4.4,13.5,4.6,12.2,18.3-18.6,44.9,13.7,71.3,15.6,5.9.2,9.9-2.2,12.3-9.1,12.9-49.6,59.6-132,70.8-137.2,63.1,1.2,125.2,12.5,189.1,11,76,4.9,10.2-102.1,3.1-134.2-19.4-45.4-24.4-97.4-49.5-128.5-17.2-27.6-140.1-67.6-113.1-85.1,81.6-95.3,109.6-152.6-20.4-194,26.3-67,13.9-55.4,55.1-35.7,12,6.4,51.4,17.7,22.8-.6-27.1-13.9-69-54.2-73.1-28.8-5.2,29.5-47.2,105.8-9.1,88.2,35.3-1.6,82,26,70.9,66.6-24.1,95.7-95.5,129.3-171.8,107.6-17.1,65-8,18.6-25.3,55.5-17.2,28.4-26.9,45.4-18.3,1.7,2.1-14.1-11.1-61.1-18.3-47.6,19.7,52.2,9.7,95.8-40.3,114.5-55.2,28.5-110.1,48.7-171.9,60.7-279.8-40.3-247.4-98.7-323.6-202.4-5.1-10.1-19.1-29.7-15.3-7.6,14,23.5,95.5,137.4,55.6,102.9-155-147.3-89.1-176.3-103.2-188.7-11.8-4.7-20.8,15.5-34.5,10.1-140.4-13.9-92.4-200.9-59.6-212.3,38.6-27,95.4,39,87.5-3.8-24.8-148,11.3-116.7-113.8-109.8-10.3.8-13.9-.8-12.1,11.8,2.6,22.1,79.1-12.7,88.1.1,6.8,3.5,24.4,93.9,15.7,85.7-113.7-26.3-128.8,80.7-112.3,161.6,13.3,60.5,69.4,83.3,123.6,85,4.9,149.8,248.4,219.1,125.3,212.1-90.4,3.3-176.1,9.6-266.2,3-86.7-4.8-76.3-21.2-60.8,21-.7,11.3-42.3-2.4-50.8.7-33,.2-25.3-.7-17.1-25.1,52.7-116.9,34.8-63.8,90.5-51.1,2.6,14.5,9.7,34.9,25.5,40.4,31.3,13.3,43.7-5.5,64.1-11.1,25.6,1.5,38.1,9.5,58.6-8.3,33.2-32.7,8.7-38,19-60.8,30-32.1-48.1-105.5-64.3-119.9-30.2-11.3-93.1,34.6-111.5,36.9-22.2,10.8-46.9,10.4-68.8,23-32.8,31.9-50.6,77.3-75.5,116.2-114.8,170-12,128.6,118,149.7,28.4,1.7,22.5,1.4,25.6,22.7,25.1,188,11.7,79.8,140.2,121,34,9.9,52.8,4.2,67,22.6,4.2,1.8,9-3.2,15.6-4.7.9,12.7-8.5,36.8-20.9,44.6,11.8,6.9,2.6,19.3,1.6,31.5-4.5,28.1-9,32-.5,30.6Zm883.7-2384c-17.3,2.7-25.4-24-43.1-26.3,4.3,5.1,39.6,32.7,20.5,29.9-12.9-8-22.4-26.1-35.2-25,57.3,51.5,17.2,21.3,2.6,15.8-10.3-3.7,17.9,14.5,16.5,19.7-7.2-2.7-14.9-10.3-23.7-11.2,12.6,11.2,36.3,23,3,14.1,12.2,7.4-1.4,8.8-7.5,13.7-11.6,7.7,15.9,3.9,8.8,10-26.1,24.6,26.4-1.9,29.7-13.5,35.9-33.5-42.6,78.4,78.9-7.3,1.8-12.7-56.5-67.5-34.4-73.8,92.2-88.6,63-185.1-17.8-206.2-77-27.6-131.9,28.1-171.1,83.1-14.5,7-35.3-.8-52.8.8-80.4-3.4-74.2,19.9-69.4-8.1-1.4-4.7-4.7,1.8-9.1,5.9-16,18.4-30.3,22.9-3.5,30.8,7.6-5.5,17.4-12.6,26.6-15.2,106-1.2,97.7,32.7,130,39.1,23.4,4.1-8.9-16.3-10.9-27.5-8.1-8.2,46.8,11.8,37.6,21,11.9.1,24.5,5,34.3,11.8,5,4.8,5.6-9,9.4-14.5,5.4,2.6,9.5-.8,11.5-6.1,14.6-38.3,58.7-50.1,63.5-33.9,18.7,35-9.4,89.7-52.7,73.4,3.3,22.9-69.7,5.5-45.4,23.1,30.8,9.8,66.3,8.5,89.8,31.6,69.3,91.5,54,84.5-9.1,16.4C1703.1,248.5,1735.8,278.4,1738.9,282.5Zm-286.1-85.7c-96.6,59.6-22.2,192.3-96.3,76.3,6.3,15.8,16.9,33.4,19.6,51.5-26.9-55-55.2-88.8-114-87.6-130.1-7.3-153.9,159.8-91.5,242.4-1.8,29.4,16.9-11.9,26-17.1,15.5-18.4,57.9-52.3,40.6-9-1.5,12.5-10.4,17.7-20,27.7-14.3,13.5,10.2.6,16.5-3.3-3.4,32.6,16.4,53.2,36.4,67.7,61.2,32.2,133.4,20.7,196.2,3,136.5-33.4,134.6-187.7,93-207.4-6.7-8.5-22-9-24.4-18.5l96.1-6.9c18.5-6.1-52.6-2.1-57.3-1.9-13.5.7-91.9,5.3-56.9-4.4,30.5-12.9,57.4-16.9,64.5-29-15.5,4.3-30.5,11.2-47.1,16.2-202.4,58.3-14.1-70.9,31.7-67.9,25.4-2,49.8.1,68.7,18-.4-1.6,13.4-1.6,8.3-6.2-20.5-11.8-44.6-50.4-63.9-46.5,86.2,72.2-27.8-26.6-117,66.9-15.5,13.6-27.3,31.2-39.2,48-24.4,22.2-1.4-83.4,6.5-87.1C1434.1,213.3,1469.6,181.6,1452.8,196.8ZM610.9,2009.4c-115.4,1-83.9,171.6,2.7,206,147.1,82.5,310.5,66.4,354.7,20,5.3,10.6-13.9,22.3,5.9,18.9,15.9-20,11.5-54.3,5.3-78.4-35.9-120.3-137.8-64.4-218.9-87-50.2-12.8-94-37.1-141.7-57.1C571.6,2014.1,565.7,2025.3,610.9,2009.4ZM2000,270.5c-23.8,35-60.2,65.4-59.9,92.2,11.9,22.6,127.9-5.1,54.8-1.8-49.7-.3-45.4,2.1-29.9-22.5,13.3-27.5,50.4-51.6,59.7-70.2-5.3-2.8-21.2-3.4-9.1-8.6,22.5-15.4-15.7-6.2-23.6.2-46,21.9-87.5,42.7-128.9,71.3-2.2-67,24.7-143.8-11.7-97.5-76.8,142.2-26.9,34.2-86.4,94.9-6.5,3.2,3.5,8.5,7.6,9.8,56.8,22.3,55.1-27.8,74.8-63,10.1-19.8.8,65.1,5.1,67.2,11.6,20.4,27.6-5.1,40.5-11.6C1929.1,309.9,1962.3,288.6,2000,270.5ZM989.5,885c-10.7,100.3-50,109.4-40.8,121.6,15.8,3.3,51.1-71.7,56.9-75.5,77.9-111.3-55.6-53.2-102-26.3-16.2,5.4-92,17.5-74.3,31C839,959.5,972.4,875.5,989.5,885ZM1002,775.5c-14.8-20.9-96.6-10.2-109.2-11.1-67.5-13.3-61.5,3.9-89.4-15.7-27-1.4,20.9,23.7,29.1,22.3,76.2,10.7,155.5-1,130.4,15.7C822.6,924.5,833.6,887.6,837.3,906.8c7.3,21.2,153.4-133.1,162-117.7C1003.9,787.6,994.5,780.6,1002,775.5ZM417.1,1674c-11.7,8.3-13.1,7.6-26.6,4.8-38.2-5.1-72-21.7-76.7-4.3,18.9,21,136.1,20.4,139.1,15.4,22.7-17.4-24.4-7.6-30.5-40.1-12.2-19.9-36.2-102-56.6-70.5C380.1,1610.4,400.5,1641.7,417.1,1674Zm266.2,11c98-34.4,293.5-12.6,325.5-.3,5.5,3.6,7.7,3.9,8.9-4.1C987.7,1657.6,626.3,1632,683.3,1685ZM946.1,705.2c-16,16.6-158.6,36.9-126.1,43.4,12.9.7,29.4-1.6,43.2-5.4,124-37.6,195-9.4,75.5-62.1-8.7-6.6-66.3-31.3-52.2-11.9C905.2,685.1,926.4,688.4,946.1,705.2ZM1180,1807.5c13.8,45.4,142.2,90.1,118.1,67.1-11.3-9-82.3-32.6-55.8-40.9,26.5.1,67,12.6,86.8,9-23.2-23.6-59.3-16.3-90.3-24.1C1205.9,1813.7,1194.5,1800.5,1180,1807.5Zm-21.9-714.3c14.7,1.3,9.6-75.6,12.5-82.9,6.6-57.4-2.2-59-26.6-11-60.9,90.8-71.1,89.9-59.9,100.4,9.7,14.6,21.4-29.6,27.4-34.8,10.9-13.7,48.7-76.9,45.5-61.8C1158.2,1034.8,1154.4,1061.2,1158.1,1093.2Zm81.3-102.6c-11.8,15.1-73.2,128-26.6,100.9.6-16.1,31.6-98.2,33.1-73.2,7.1,21.7,8.3,55.2,22.9,56.3,13.1,4.6-10.8-69.3-8.7-73.4C1258.2,988,1252.1,987.3,1239.4,990.6ZM1180.1,1734c3.3,31.1,38.6,22,60.6,31.1,28.2,14.4,58.9,15.1,88.8,23.4,18.4,1.9,58.4,23.4,58.9,13.8,9.4-15-105.1-32.3-111.1-36.3s-17.8-2.2-21.2-7.9C1262,1734.1,1192.2,1744,1180.1,1734Zm-706.2-81.6c-28.4-39.6-45.2-84.2-61.1-133-51.3-44.9,8.7,74.6,15.1,85.9C449.1,1641,448.3,1664.2,473.9,1652.4Zm17.7-233.2c.7,119.4-36.1,228.3-5.1,227.2,21.7,7.5.7-97.8,3.8-104.5C498.6,1461.4,510.3,1418.6,491.6,1419.2Zm522.6-767.7c-32.8,10-66.6-14.7-101.1-10.4,8.6,10.4,23,10.3,37.3,14.2,119.8,29.6,41.4,1.1,108.1-8.2,30.2-7.4-50.5-33.8-44.3-20.8C1024.2,655.7,1001.3,640,1014.2,651.5ZM588.9,1790.6c75.4-24.8,98.7-29.7,160.9,16.2,28.3,33.4,28.4,3.2,55.7,14.6,8.4-11.5-40.7-1.5-44.4-11.8C711.2,1755,615.9,1756.2,588.9,1790.6Zm21.4-121.2c21.9,22.3,16.8-33.1,138.2-57.4C706.6,1607.4,644.2,1631.5,610.3,1669.4Zm205.9,145c24.9,23.3,54.4-115.3,176.4-36.5C913.7,1708.5,858.3,1771.4,816.2,1814.4Zm-77.6,20.9c-26.7-28.2-122.7-50-134.5-22,45.9-16.8,98.2-7.1,133.2,29.3,11.7,1.3,23.9-10.4,38.9-9.4C763,1830.1,750.4,1832,738.6,1835.3ZM952.5,1724c-26.8-22.5-126.7,16.8-117.3,38.3C864.3,1729.4,907.2,1715.8,952.5,1724Zm-267.1,27.6c29.1,12,69.5-2.5,89.7,33,.6.8,2.7,2.7,4.4-2.1C764.3,1754.7,717.8,1750.7,685.4,1751.6ZM1155,1903.2c-9.9-7.3-20.3-10.1-30.4-15.1C1126.5,1904.9,1142.8,1910.7,1155,1903.2ZM1052,497.9c7,7.2,28.5,18.2,37.6,19.3C1078.8,506.5,1067.7,500,1052,497.9Zm71.6,1054.2c-13.3,1.9-27.4,1.5-36.4,14.1C1099.5,1561.9,1112.5,1559.5,1123.6,1552.1ZM1058.1,481.9c.5,5.8,14.7,10.4,20.5,15.6C1106.1,514.6,1069.7,478,1058.1,481.9Zm81.8,1447.8c-1.8-10-11.1-10.5-20.4-13.2C1125.6,1931,1126.2,1929.1,1139.9,1929.7ZM1571.6,1513c-5.3-16.6,6.1-46.9,6.8-66.5,3.8-39.6-74.2,50.5-54.3,10.8,34.4-106.3,30.3-89.3,20.2-93.1-20.5,121.1-47.3,98.6-26.4,118.4,18.4-4.6,29.1-22.6,46.7-31.6-5.6,84.5-13.4,96.5,30,52.8,25.2-32.4,5.1,38.8,23.3,43.7,8.8-1.9,27.2-23.5,19.7-21.8-36.1,36.9-10.9-44.3-24.8-50.2C1595.6,1483.8,1588,1502.5,1571.6,1513Zm114.6,839.6c8.2-17.1,13.5-34.9,12.8-55.8C1689.2,2306.2,1685,2324.2,1686.2,2352.6Zm29.9,55.3c7.4-6.1,1.3-30.9,3-41.9C1709.3,2333,1706.1,2403.4,1716.1,2407.9Zm-98.9-771.4c8.8-7.9,16-22.8,8.1-30C1611.5,1597.7,1614.8,1627.9,1617.2,1636.5Zm688,1030c-134-558.3-161-569.5-125.2-543.6,8.7,9.3,4.3-20.9.8-25.7-17.7-63.7-23.9-41.6-28.1-60.3,3.4-41.7-24.9-87-32.6-129.2-7.6-21.5-9.5-40.1-15.4-64.2-8.7-10.1-14.4-21.9-19.1-34.6-3.8-9.2,16.6.6,21.3-.5-11.5-23.2-25.1-43.9-43.5-63.7-43.6-42.6,53.4,22.4,40.5-10.5-9-41.3-38.9-74.9-60.6-111.4-16-22.7,44-8.2,54.3-11.5-8.8-15.1-24.4-26.9-38.1-38.6-104.6-70.6,35.9-47.3,3.3-77-29.2-15.6-51.6-37.9-69.7-66.6-32.3-57,73.7-2.6,52.5-30.1-5-10.7-11.8-21.3-17.6-32.4-23.4-39.5-39-77.5-69.3-99.3-21.2-42.6,74.8,25.8,82.4,29.2-9.8-57.8-63.7-142.2-110.4-192.9-6.6-6.5-4.3-25,9.5-20.7,108.3,17.9-45.1-49.3-46.3-67.3-3.2-14.6,22-11.7,34.2-14.1,82.4-9.3-120.5-23.9-55.2-69.3,17.2-26-33.3,4.6-51.8-17.9,14.9-3.9,44.4,1.6,62.4-12.7,15.5-9.7,50.3,7.4,26.3,13.4-17.5,2.3-18.3,16-26.1,25.4-9.9,6-18.8,9.9-5.4,18.8,18.6,11.6,157.5,46.8,113.9,50.2-20.8,1.4-42.1.9-64,3.5-48.2,4.5,23.8,29.2,34.5,39.6,14.3,9.9,62,48.9,38,49.5-46.6-3.2-57.2-11.4-21.8,28.6,10.1,1.5,51-35.9,48.1-22.1-10.2,55-40.7,37.9-34.7,51.2,60.6,108.8,36.3,100.8,75.8,48.1,14.6-28.9-4.7-33.1,1.3-52.4,74.2-55.2,97.8-5.8,107.8-105.9,11.7-71.9-4.4-213.4-54.8-237.4-14.1,11.3-17.8,35.4-36.1,39.7-29.9-5.1-60.5-12.4-88.8-25-10.2-6.7-20.9-9.3-33.5-6.7-29.3-1.8,12,28.9,11.8,46.1,12,16.4,66.4,189.5,29.2,122.4-6.7-52.3-124.5-142-147.5-141.4-10.8-.8-51.8-19.2-47.2-7.9-13.9,72.3-15.5,131.6-44.3,152.2-54.4,44.5-117.8,67.4-184.6,85.8-170.1,66.8-213.5-74.8-240.2-44.5-16,5-14.5-1.5-22.4,14.7-48.4,64.7,49,139.2,32.1,153.2-27.6,20.3-73.9-33.1-84.9-47.1-5.2-7.5-6.5,10-11.2,14.5-9.5,23.2-28.3,45.8-31.7,67.5,18.2,25.2,19.2,60.1,34.6,88.7,14,41.3,40.5,77.4,66,112.2,2.8,17.5,53.4,21.9,23.7,42.5-145.3,136.1-154.6,109.8-51.1,145.2,53.7,5.2,47.8,18.9,61.9-9.2,3.4-7.4,4.8-18.6,11.1-17.3,18.4,4,62.8,23.2,58.5-3,.8-50.1,12.2-100.2-3.4-96.4-17.7,0-36.8-12.2-44.6,9.2-27.9,21-15.7-34.2-14.1-48.7,10.9-49.5,32.5-93.9,42-140.6,5.5-25.3-29.7,22.7-37.7,25.4-25.6,19.5-50.4,13.8-35.4-17.9s27.9-60.2,40.4-89.8c-15.1-5.7-51.2,32.2-40.1-10.8,124.9-148.7-41.1,5.7,32.3-100.5,24.8-26-58.1,20-38-15.9,22.4-10.2,39.5-29.9,58-45.5,7.8,19.2-22.5,38.7-38.9,41.5-14.7,7.4,44.7-7.2,47.5,7.6-13.5,11.4-23.9,29.5-42.6,38.9,16.4,1,33.7-8.4,44.9-17.4,21.5,9-50.5,88.9-53.5,93.4-5.6,7.8,17.9-4.5,23.3-6.3,101.5-55.3-71.2,159.1,7.8,95.9,130.2-102.1-1.3,112.3,6.5,158-9,34.3,57.8-53.9,58.1-56,9.1-3.5,17.9-1.7,29.6-3.4-33.2,85.3-17.5,180.3-30.7,270.9,93.8-124.7,71-34.2,74.6-7.2-.4,23.9,5.5,156.7,17.3,135.5,55.7-80.1,22.5,23.7,47.2,47.4-15.2,15-8.4,36.8-8.7,57.3-2.5,36.9-10.8,76.6-8,114.2,1.5,56.4,31.7-97.4,23.7,57.3,20.1,198.6,27.4,42,34.9,128.4,3.3,84.7,27.5,161,46.6,240.3,11.4,67.1,19.1,150.8,31.4,207h-86.5c-13.8-2-42.6,4.2-39.8-2.8,3-19.8-22.9-18.5-7.2-29.8-5.8-136.5-45.1-275.4-67.7-412.1-39.3-182.4-68.8-346.5-92.7-411.9,23.9-34.9,31.5,56.3,39.8,70.1,15,.5,32.8-2.3,47.7-6.9,77.4-26.6,59.3-20.7,61.2-64.5-31.7,46.1-34.6,49.9-42.2-8.5-17.8-155.4-4.8-169.8-20.7-153.3-52.9,51.2-86,159.4-67.5,8.4-14.9-4.3-8.6,15.5-14.7,22.6-1.1,6.6-20.4,3.6-10.7,9.7,5.8,2.6,12.6-.7,15.8,8.1,8.6,21-62-8.2-67.7-9-26-1.9-51.3-1.9-79.5-7-96.9-10.2-198,5.3-122-46.3,149.2-134.6,189-152.2,164.8-149.4-12.9,4.4-24.3,5.8-37.3,4.4-15.2,14.2-34.7,14.1-53.8,19.2-24.7,8.6-44.4,20.8-70.2,28.7-46.1,12.3-86.8,26.7-131.2,42.8-72.9,6.3-32.6-54.1-15.7-85.7,21.9-42,42.4-81.8,64.1-123.8,31.2-58.7,22.3-39.8-18.1-20.1-90.4,45.4-99.5,67.3-128.2,83.1-5.7-9.2-13.8,18.2-17.8,19.9-42,12.2-88.9,86.6-123.2,60.7-16.1-8.3.8-16.5.9-27,3.6-21.2,9.7-42.1,14.4-63.8,8.9-41.2,19.5-79.6,26.6-121.4-35.7,53.9-85.2,99.4-111.7,160.9-79.5,94.7-60.1,89.8-87.9,79,13.6-152.3,25.4-98.5,16.3-63.9-18.1,80.5,22.1,4.8,44.5-27.7-5.1-14.8-33.1-21.5-42.4-38.2,1.5-16.4,32.4,7.4,38.8,12.6,6.3,1.2,11,15.6,16.3,8.5,11.5-16.3,23-30,36.3-46.5,32-36.4,24.6-29.5,11.4-63.5-47.9-115.1-49.6-220.5-73.6-250.9-26.7-52.5-95.1-34.9-114.4,8.1-37.7,82.1,89.7,258.8,93,312.3,5.9,19.2-5.7,8.5-12.1.8-26,67.3-61,131-84,199.7-1,19.8-5.5,21.6-22.3,13.3,2-8.8,6.6-20.4,10.3-30.9,28-62.1,7.6-54.5,5-97,2.7-62.2,38.9-76.4,84.5-90.3-29.3-97.5-98.2-187.4-98.9-265.6-3.9-68.5,47.3-105.5,107.9-100.2,64.4-11.5,64.2,102.7,73.5,140.7,12.5,61.5,30.2,119.7,54.3,175.3,45.7-2.2,30.2-263,55.4-281.1C847,999.6,914.8,988.2,958,1030h-.1c52.8,48-31.1,231.9-29.3,282.1-22,90.5,8.2,88,70.8,47.1,31.4-19.7,63.4-31.2,94.5-51.6,18.5-34.9,47.4,4.8,33,15.9-24.9,27.4-43.5,60.7-58.4,96-27.4,46.4-72,86-47.9,129.2,64.7-94.1,118.2-198.1,169-299.7,31.1-45.5,52.5-97.5,79.5-145.9,8.2-20.1,30.5-36.8,17.8-47.1,9.1-31.8,43.6-43.5,38.3-49.8-55-23.6,4.6-17.6,21.6.7,47.7,33.7,102.1,64,160.5,59.5,91.5-15.6,195.8-54.5,238.2-98.2,56.4-69.8,45.7-161.4,72-240.3,24-60.8-4.1,63.1-7.8,72.4,17.7,4,26.2,20.4,43.5,27.4,5.7-7.9,9.3-13.7.9-23.3-45.8-120.1,116.6,18.9,81.7-25-16.2-24.7-40.6-44.7-50.3-68.3,12-12.5,93.9,12.1,57.7-12-61.5-38.2-52.8-67.1-26-113.7,2.2-9.3-26.7,17.6-25.3,23.6-2.3,1.9-4.2,1-8.8-.4,23-29.2,31.6-43.1-5.9-13.2-15.7,9.1-38.4,76.5-41.6,59.6-.6-12.3,15.5-27.1,12.2-34.9-28.9,18.8-51.9,50.3-83.8,66.1,49.6-56.9,124.4-113.4,98.4-104.8-75.1,0-78.8,3.4-121.4,30.2-98.4,68.4-142,188.2-233.8,262.2-35.2,59.5-78.4,125.8-151.6,92.9-99.3-62.7-26.3-166.9-43.2-170.3-65.5-38.5-63.7-78.6-85.1-35.1-19.5,26.5,9.8-45.3,21.6-43.5,22-13,44.6-15.6,69.3-20.9,11.1-4.8,54.5-24.9,27.4.3,1.1.8.8,2.9,4.1,1,17.2-4.3,77.8-75.2,69-28.7-.4,4.8.1,3.7,4.3-1,23.3-31,19.3-39.7,33.8-3.7,1.7,4,1.5,2.7,4.7-4,21.6-59.1,7.4-42.4,56.2-41,24.5,3-28.2-9.7,35.5-23.1,14.1-3.8-4-7.6-9.5-13.1-10-5,51.2-9.5,52.5-11.7,14.6-3.8,3.1,4.8-4.6,10.1,9.9,13.8,24.6,51.4,36.1,39.8,16.6-17.7,11.3-46.9,10.3-65.3-11.3,2.6-55.5,16.9-26.4.4,53.7-20.9-45.3-8.1,52.6-43.6,36.2-9.5-24.9-5.4,10.1-14.8,28.2-22.1,66.3-34.8,97.4-55.6,47-35.1,63.5-21.4,93.8-28.4,83.3-10.2,38.6-23.5-5.2-29.8-83,1.5-134.6,2.1-160.1,15.1,14.7-25.3,50.7-12.1,75.3-19.6-9.6-10.8-57.5-16.3-69.4-18.1,14.9-11.5,60.3,11.2,75.1,10.1,270.8,13.1,75.7,43.3,242.8,20.6,32.9,2.9-.9-45.7,7.9-65.3,26-132.6,133.9-86.6,153.3-69.8,13.7,20.2-.8,46.1-1.9,69.9-15,67.2,35.8,54.7,62.2,86.7,41,96.5,82.6,111.3,171.7,110.7,81.3,5.1,175.9-2.7,249.5,15.3V817.9c0,8.4,2.1,14.1-9.8,11.1-36.3-7.4-71.1-21.9-109-31.2-1.6,127.5-16.7,137.9-61.4,204.7,214.5-59.7,176.1-54.8,179.9-29.8-6.9,3.2-12.7,2.5-22.4,4.7-117.7,32.8-153.4,38.6-196.6,63.1a612.6,612.6,0,0,0-123.7,35.9c-152.2,67.3-201.6,68.8-221.6,91.7-13,5.6,1.7,33.8,1.7,43.5,37.3,190.4,75.9,377.2,125.5,564.6,157.6,677.8,136.3,605.3,155.4,627.3-14.3,22.2,6.3,55.8,13.3,78.2,2.8,61.4,37.6,131,37.5,184.8-6.8-2-23.3,4.6-21.7-4.1-9.9-32.8-25.1-127.8-32-115.2-73.5,72.2-77.5,30.4-78,54.9C2307.1,2655,2353.2,2670.1,2305.2,2666.5ZM2098.6,743.1c122.1,66.1,222.2-37.5,251.8-18.3,6.6,5.6.7,5.9-6.4,8.4,4.9,3.1,10.1,6.2,13.5,6.3,7.2-.3,16.7-10.1,24.4-16,28.2-38.9,45.7-181-14.6-180.9-14.5-2.5-9.6,8.8-20.1,3.2-31.1-18.4-58.9-40.7-89.5-60.3-4.4-3.8-33.8-20.9-22.9-19.1,31.8,15.1-9.6-51.9-16.8-55.4-123.7-66.5,15.4-157.6-99-156.6-85,12.9-79.8,111.6-60,132.3,29.1,20.6,69.4,18.1,97,43-30.2-.6-60.6-17.1-92.1-19.9-72.5-1.3-143.9,7.3-215.4,20.8-119.7,19.2-120.9,135.3-44.2,142.4,44.7-5.7,96-10.4,137.8-18.4,5.9-26.1,35.1-95.2,57.4-71.6-3,2.6-4.2,3-10,7.3-34.9,26.9-29.7,40.5-30.9,76.4-2.7,5.2-1.9,10.4-7.2,14.3-50.4,34.6-31.7,88.5,12,110.8,16.4-2.2,12.4-62.1,19-71.2,11.2-35.1,11.3-4.9,8,12.5,8.3,78.6-42.4,99-25.5,145.2,14,29.4,50.3,34.5,78.4,44.2,38.7,20.9,65.9-14.5,84.8-42.6,6.5-17.5-31.6-17.2-38.2-6.4C2060,792.4,2091.8,750.6,2098.6,743.1Zm140.1,51.3c60.7,48.2,37.4,144.3,34,217.9,10,74.1,23.2,46.9,59.1,39.4,104.2-32.8,82.5-19.7,101-46.8,32.9-51.5,37.7-116.9,24.1-176.9-5.4-26.5-18.9-59.9-45.5-55.8C2352.8,777.8,2298,787.2,2238.7,794.4Zm-73,1225.9c30.3-4.1,93.1-58.8,81.7-76.5-15.5-69.5-32-136.2-49-204.7-18.8-3.6-61.6,52-82.3,40.3-5.6-2.3-13.6-1.5-4.5-7.9,43.2-37.3,88.7-62.2,68.6-106.9-11.1-35-11.4-70.6-29.4-102.8-4-6.1-14.7,6.3-22.1,7.8-55.1,24.8-33.7,15.9-11.2,54.4,3.3,13-73.3-13.6-47.6,13,15.9,28.1,85,149.1,17.5,119-11.2-3.7-6.1-.9-1.2,7.2,9.5,18.1,62.2,74.6,38,63.8-5.3.1-23.2-10.7-16.7-.7C2134.6,1886.9,2137.7,1958.2,2165.7,2020.3ZM2463.6,545.1c57.8,86.7,11.1,134.1-20.4,207.8,190.3,36.4,165.2,52.2,181,29.6,29.5-52.5,33.2-113.6,13.7-170.6C2620.8,520.2,2528.1,554.9,2463.6,545.1ZM904.4,1370.9c15.9-135,78.7-303.6,40.3-330-24.1-23.3-60.8-22.9-86.3-2.7-61,42.4-38.5,187.9-57.8,243.3-2.6,44.4,32-79.8,58-36.2C816.3,1414.9,797.7,1336.9,904.4,1370.9Zm531.1-628.3c-117.6-30.2-163.6,194.2-44.9,217.3,77.8-6.1,80.1-72.6,117.1-106,73-48.5,33.8-101.6,5.5-105.5-27.4-6.2-54.9-7.7-79.6,9.3C1407.8,756.7,1425.2,748.2,1435.5,742.6Zm62.8,1398.6c62.4,282.5,28.1,264.5,137.8,277.5,14.2,4.8,3.6-13.2,4.3-22.4-36-228.5-27.5-123.8-43.9-165.5C1568.4,2093.9,1592.4,2156.8,1498.3,2141.2Zm764.5-117.8c-49.5,32.9-85.7,28.2-82.3,40.9,19.9,92.7,31.4,93.8,10.4,97.8,7.9,28.6,14.4,56.2,22.3,85,6.9,18,1.2,32.7,20.9,19.2,35.4-21.1,76.1-32.6,69.3-46.4C2289.8,2152.8,2282.4,2089.3,2262.8,2023.4Zm-19.1,354.7c66.8,236.9,45.6,196.5,73,174.9,25.8-30.1,49.6-62.5,47.6-93.4-13.7-51.4-27.1-100.1-42.6-151.2C2318.2,2273.7,2250.9,2375.6,2243.7,2378.1Zm-942.6-916.5c-131.4-122.7-131.3-120.4-129.7-136.7-63.8,128.4-78.8,130.4-56.4,164.9,7.9,9.4,14.1,26.4,26.9,23.1C1194,1495.3,1248.3,1482.3,1301.1,1461.6Zm717.1-40.8c-22.8,34.8,109.2,118,118.7,82.1-52.5-267.9-25.2-217.9-77.3-202.3-11.1,17.1-31.9-.4-47.3-3-22-6.8,15.8,47.4,17,54.6C2066.8,1410.9,2102.3,1439.3,2018.2,1420.8Zm-528.6,678.3c92,4.9,66.3,8.4,63.3-56.5-8.2-73.8,4.6-86.7-4.1-114.1-104.6,10.1-95.7-12.4-93.1,11.4C1461.9,1977.5,1485,2087.1,1489.6,2099.1Zm77.2,383.4c9.4,56.8,15.5,125.5,24.6,126,23.8,7.6,73.3,10.8,78-15.7C1648.3,2433.5,1682.6,2484.4,1566.8,2482.5ZM801.2,1481.2c17.3-7.8,140.1-78.5,121.1-77.7-65.8-37-51.9-13.9-94.4-25.1-16.6,1.6-10.6,36-14.9,48.3C810.3,1446,803.2,1460.7,801.2,1481.2ZM1857.7,767.8c-6.2,58.5,47.7,36.1,80,32.6C1907.1,787.8,1879.4,769.5,1857.7,767.8Zm-1288,728.1c15.1-29.4,29.3-56.7,43.8-84.8C580,1412.8,556.2,1458,569.7,1495.9ZM1937.2,770.2c25.7-61.3,10.4-43-33.7-52C1894.4,719,1937.1,766.1,1937.2,770.2Zm309.3,3c12.2,3,81.3-9.5,95.6-14.7,7-1.5-25.5-8.5-34.1-10.8C2286.5,750.4,2267.3,765.5,2246.5,773.2Zm-882.2-76.7c17.1,20.2,68.8,33.2,39.6-5.3C1395.2,663.3,1377.7,686.7,1364.3,696.5Zm8.1,986.5c-9.1-48.6-15.1-36.2-32.9-3.1Zm-313-145.9c39.1-8.7,30.3-11.9,20.7-36.5C1070.3,1511.6,1061.6,1526.9,1059.4,1537.1ZM2169.7,781.4c-15.6-8.8-33.5-2-28.9,9.3C2151.5,790.1,2161,792.1,2169.7,781.4ZM1215.5,2320.2c.8,1.8-2.4,24.3,5,14.1,21.4-42.4,27.8,56.9-60.9-9.2-18.2-21.2,24.4-65.4,19.6-80.4-3.1-27.5-1-20.2-10.6-1.6-21.5,45-25.3,61.5-18.2,91.9-54.6-.2-63.3-78.5-7.4-22.5,2.4-10.1-9.2-15.1-15.9-23.3-18.8-22.5,39.5-67.2,39.4-85.1-14.4-6.7-48.6,55.3-51.6,58.2-21-28.1,23.1-44.5,35.4-66.4,36-49.7,41.3-30.5,76.8-9.7,35.8,23.3,74.4,35.2,99.6,63,6.2,7.3,11.7,15.6,13.8,26.6,31.3,121.6,77.1,182.2,55.9,205.1-34.5,14.7-142.2-6.1-157.1-3-40-5-55.5,7-27.5-29.7,11.2-12,15.9-28.9,30.7-35.2,31.7,3.3,58.8,8.5,90.1,14.4,0-26-28.8-135.5-39.2-122.5-33.2,34.2-41.7,12.2-72.8.7C1201.2,2308.6,1188.3,2322.7,1215.5,2320.2ZM179.7,2382.8c-41.7-9.8-80.6-1.4-121.8-14.7-47.8-13.4,91.5-193,94.8-215.7,10.5-19.8,37.3-15.8,56.5-23.3,40.7-10.4,67.7-31.4,109.6-47.2,26-16.9,63.7,69.7,76.6,83.4,3.2,6.2-6.5,29.9-11.3,14.5-17.9-24.9-39.2-74.6-41.2-57.4,1.3,22.8,24.5,41,29.4,65.2-7.3,73.3-46.4-27.5-47.6-46-20.4,32.1,33.5,70.2,8.2,96.2-99.1,69.1-98.3-37.9-45.4-3.1.6-5.6,1.4-13.6,2.2-20.9,8.1-17.8-38.7,16.3-52.7,5.7-76.5-26.6-45-64-117.8,93.7,29,18.3,62.8,8.6,96.2,15.4C222.9,2400.7,235.3,2387.6,179.7,2382.8Zm923.7-60.4c19.4,25.1,41.4,21.9,65.8,28,21.3,7.3,48.2,22.9,61.2,11.4,28.3-53,23.4.2,59.2-37.8,5-4.5,5.9-5.3,6.7-1.6,37,116.2,27.8,83.8-24.6,81.7-34.6-.9,11.7-12.6-27.1-20.4-99.5-7.9-193.7-33.5-290.5-56.5-37.7-11.6,15.5-18.2,26.5-26.6,28.8-14.6,53.2-30.2,79-48.7,52.8-42.8,27.6-95.2,81.9-65.4-30.4,38.4-58.2,42.2-43.4,78.1C1098.6,2290.4,1083.7,2299.3,1103.4,2322.4Zm-752.1-83.3c9.1-4.9,44.7-40.8,41.5-29.8C394.6,2246.8,316.1,2269.6,351.3,2239.1ZM1337.7,342.8c-6.1-35.2-48-47.3-56.8-10.9-6.4,16.8,6.2,30.7,3.8,45.8-30.3,37-72,54.9-107.3,87.2-44.1-41.1-44.3-126-7.1-173.6,61.5-82.8,166.5-52.1,196,37.4Zm-27.4.1c3.8,11.1-12.6,8.6-14.4,2.4C1295.6,322,1303.3,332.9,1310.3,342.9ZM830.2,2259.5c-63.1,12.3-12.9-53.2-26.8-84.7-8.7-8.7-3.9,9.3-5.5,15.5-5.5,80.4,6.7,72.9-57.6,63.8-16.8-5.9-52.3-11.6-53.3-22.4-2.1-16.6,18.6-109-1.9-75.2-11.4,89.7,5,80.2-29.1,66.3-63.5-31.4-85.4-42.9-63.8-96.7,10.7-5.8,14,11.1,29.2,5.8,15.8-1.6,4.5,61,8.6,68.3,10.6,26.8,8.4-11.1,8-21.2-.8-15.6,2.3-27.8,4.5-44.5-4.8-10.3-34-3.5-28.3-22.9,8.6-74.3,10.9-72.6,62-39.3.2,10.1-12,92-.8,68.3,4.8-25.7,2.3-73.8,16.2-63.9,66,23.5,53.7,14.7,50.9,41.5-.6,7.9-8.4,49.7.1,42.7,9.8-21.5,2.4-58.1,13-61.4,21.2,4.6,58.7,2.6,57.5,10.8-3.3,24.1,0,91,8,37.6,3.1-13.3-1.9-35.9,6.4-39.9,8-.5,50-6.6,52,3.4-.6,19.2,1.2,47.1-5.5,61.5-3.4,1.5-19.2-.4-7.1,5.3,9.1,7.6,27.2,3.1,28.3,13.8.6,13-15.6,69.8-1,52.9,14.8-42.5,3-59.7,25.4-57.6,8.1.8,19.9-6.2,16.1,6.6-7,21.3-8.8,46.2-18.8,56.2-109.5,21-72.7,16.6-62.8-55.6,4.7-14.7,3.9-27.3-8-16.8C843.5,2206.5,837.1,2232,830.2,2259.5ZM617.5,2042.7c-14.3,82.6-4.9,79.5-28.1,66-32.2-20.5-19.1-38.2-15.1-65.9C582.6,2024.8,602.1,2039,617.5,2042.7Zm296.3,68.1c-.7,44.2,9.4,74.8-30.9,59.2C892.1,2100.8,885.2,2102.9,913.8,2110.8Zm34.5,76.9c34.5-6.9-24.7,84.7-15.9,50.2C938.6,2220.2,942.5,2207.4,948.3,2187.7ZM704.5,1931c-36.8-10.5-75.5-25.2-115-22.9C575.3,1857.5,728.6,1891.1,704.5,1931Zm139.7,1c-5.2,24.2,17.1,31.4,6.8,32.6C812.3,1970.7,831.9,1937.1,844.2,1932Zm15.7-5.2c6.1,7.1,5.1,10.7-4.6,17.2C851.1,1937.4,852.4,1932.7,859.9,1926.8Zm-139.3-3.6c5.3,3.7,11.1,8-.9,7.7C719.9,1929.6,720.1,1927.6,720.6,1923.2Zm237.3-893.3h.1c12.5-34.2,106.9-82.4,118.3-90.2,40.5-9.3,7.4,40.9-1.5,51.1-4.9,20-24,93.4-28,81.9-5.4-31.9,29.6-64.9,19.3-100.5,19.6-43.3-52.6,20.7-59.8,26.9C991.6,1011.3,979.6,1040,957.9,1029.9Zm494.9-833.1c1.6.5,2.8-8.8,6.7-3.9C1458.4,193.8,1456.9,193.6,1452.8,196.8ZM741,2250.7c6.8,2,7.7-17.2,9.1-25.9.8-23.4,14.3-66.2,1-60.8C740.1,2182.8,739.9,2236,741,2250.7Zm0,0c6.8,2,7.7-17.2,9.1-25.9.8-23.4,14.3-66.2,1-60.8C740.1,2182.8,739.9,2236,741,2250.7ZM507,1781.4c-4.5,9.7-50.2,21.1-38,3C481.3,1783.1,496.9,1777.1,507,1781.4Zm-14.5-26.9c-9.3,11.9-21.7,13.1-30.7,3.7C471.7,1756.2,480.9,1753.5,492.5,1754.5ZM867.6,1963c30.9-44.9-14.8-42.9-7.7-50.7,28.5-40.6,70.3-51.6,115.8-31.8,29.5,15.4,31.8,61.5,17,93C955.9,1970,909.6,1960.6,867.6,1963Zm59.7-113.5C867,1852,773,2031.7,798.6,1908.9c-2.7-.4-9.3,23.7-11.1,24.8.7,32-25.6,13.9-23,7.6-7.2-17.5.1-42.3-7.3-37.8-11.3,0-6.2,2.6-6.2,11.8,23.3,81.6-53.8-56.2-95.9-49.9-42.1-10.6-54.5-5.2-88.2,17.3-13.4,7.9-10.9,15.9,4.8,15.8,8.4-5.9,9.7,4.5,11.5,10-1.9,3-15.6.8-11.8,6.7,30.8,3.6,66.2-1.5,89.9,9.2,26.9,7.7,42.8,14.2,63.4,22.7,28.4,11.5-67.4,15.7-78.1,11.6-21.3-2.3-44.1-17.4-46.8-12.2,12.3,7.4,25.5,12.1,36.8,15.4,49.7,13,125.2-10.5,99.4.7-33,15.5-35.1,10.6-57.9,9.1-32.4-.7-55.2,6.5-84.2,15.1-5.3,5.5,56.1-4.1,62.6-4.4,14.9-2.4,42.1-.3,48,2.5-20.8,76,145.2,119.1,155,32.7,30.8,11.2,113.4,114.5,89.2,81.3-77.2-107.6-119.5-108-95.7-108.3,49.3,6.6,176.1,51.5,76.5,12.5-5.8-4.7,26.5,3.1,23.8-1-156-21.9-93.3-32.8-145.5-25.9-15.5,5,39.2,8.6,28.7,23.8.1,2,1.2,2.3,4.9,5.7,15.1,33.9-65,45.2-84.4,35-64-19.2-38.9-79.5,1.6-51,2.5.7,2-1.4-1.4-5.2-4.9-6.5-19.4-10.3-19.5-14s28.5.3,24.1-4.4c-3.5-6.3-21.3-.2-9.6-11.9,21.2,5.8,30.1,6.4,40.7,4.7,4.1,6.5-.2,22.6,8.1,25,4.2-30.3,8.6-12.8,30.2-15.4,5.3,3.6,3.7,7.1,13.3,4.9,136.3-14.6,139,19.2,172.1,17.6,9.5-4.6-23.4-8.3-18.1-13.8,27.4-52.9-11.7-99.9,3.6-82.7C1055.6,1973.9,1014.7,1835.6,927.3,1849.5Z" transform="translate(-32.6 -15.1)"/></svg>