<?xml version="1.0" encoding="utf-8"?>
<svg version="1.1" id="Layer_1" x="0px" y="0px" width="1760px" height="1135px" viewBox="0 0 1760 1135" style="enable-background:new 0 0 1760 1135;" xmlns="http://www.w3.org/2000/svg" xmlns:bx="https://boxy-svg.com">
  <defs>
    <linearGradient id="color-0" gradientUnits="userSpaceOnUse" gradientTransform="matrix(0.350777, 0, 0, 4.400662, 977.373467, -462.796803)" bx:pinned="true">
      <stop style="stop-color: rgb(21, 4, 98);"/>
    </linearGradient>
  </defs>
  <style type="text/css">
	.st0{fill:#CD6271;}
	.st1{fill-rule:evenodd;clip-rule:evenodd;fill:#CE616F;}
	.st2{fill-rule:evenodd;clip-rule:evenodd;fill:#B33747;}
	.st3{fill-rule:evenodd;clip-rule:evenodd;fill:#C84C5D;}
	.st4{fill-rule:evenodd;clip-rule:evenodd;fill:#C64D5E;}
	.st5{fill-rule:evenodd;clip-rule:evenodd;fill:#CD6271;}
	.st6{fill-rule:evenodd;clip-rule:evenodd;fill:#180765;}
	.st7{fill-rule:evenodd;clip-rule:evenodd;fill:#A53343;}
	.st8{fill-rule:evenodd;clip-rule:evenodd;fill:#CF6473;}
	.st9{fill:#C84C5D;}
	.st10{fill:#D98A94;}
	.st11{fill:#B33747;}
	.st12{fill:#180765;}
	.st13{fill:none;stroke:#180765;stroke-width:2;stroke-miterlimit:10;}
	.st14{fill:#C64D5E;}
	.st15{fill:none;stroke:#CB4C5E;stroke-width:2;stroke-miterlimit:10;}
	.st16{fill:#BF3B4D;}
	.st17{fill:none;stroke:#180765;stroke-miterlimit:10;}
	.st18{fill:none;stroke:#CC6170;stroke-miterlimit:10;stroke-dasharray:12;}
	.st19{fill:none;stroke:#CC6170;stroke-miterlimit:10;}
	.st20{fill:none;stroke:#CC6170;stroke-miterlimit:10;stroke-dasharray:11.8935,11.8935;}
	.st21{fill:none;stroke:#D6908F;stroke-miterlimit:10;}
	.st22{fill:none;stroke:#C64C5D;stroke-miterlimit:10;}
	.st23{fill:none;stroke:#B94543;stroke-miterlimit:10;}
	.st24{fill:#A53343;}
	.st25{fill:none;stroke:#180765;stroke-linecap:round;stroke-miterlimit:10;}
	.st26{fill:none;stroke:#180765;stroke-width:2;stroke-linecap:round;stroke-miterlimit:10;}
	.st27{fill:none;stroke:#A53443;stroke-width:12;stroke-linecap:round;stroke-miterlimit:10;stroke-dasharray:0,30;}
	.st28{fill:none;stroke:#180765;stroke-width:3;stroke-miterlimit:10;}
	.st29{fill:none;stroke:#180765;stroke-width:3;stroke-linecap:round;stroke-miterlimit:10;}
	.st30{fill:none;stroke:#180765;stroke-width:4;stroke-linecap:round;stroke-miterlimit:10;}
	.st31{fill:none;stroke:#C64C5D;stroke-width:3;stroke-miterlimit:10;}
	.st32{fill:url(#SVGID_1_);}
	.st33{fill:none;stroke:#D6908F;stroke-linecap:round;stroke-miterlimit:10;}
	.st34{fill:#CF6473;}
</style>
  <path id="_x30_1-Film_roll" d="M 387.695 398.589 C 407.88 379.386 420.463 352.268 420.463 322.209 C 420.463 263.993 373.269 216.8 315.054 216.8 C 256.838 216.8 209.645 263.993 209.645 322.209 C 209.645 380.424 256.838 427.618 315.054 427.618 C 316.3 427.618 318.774 427.617 318.774 427.617 C 340.47 427.617 357.277 425.105 374.973 419.219 C 416.897 405.277 443.255 418.79 444.356 419.372 L 448.313 411.995 L 452.312 404.642 C 451.143 404.006 426.601 391.038 387.695 398.589 Z M 364.955 261.895 C 367.921 260.183 371.714 261.2 373.425 264.165 L 394.506 300.68 C 396.22 303.645 395.204 307.438 392.237 309.15 C 379.21 316.671 362.492 312.192 354.969 299.164 C 347.447 286.135 351.928 269.417 364.955 261.895 Z M 265.153 382.522 C 262.187 384.235 258.394 383.218 256.682 380.253 L 235.6 343.738 C 233.889 340.773 234.905 336.98 237.87 335.269 C 250.898 327.746 267.617 332.226 275.138 345.254 C 282.661 358.282 278.18 375.001 265.153 382.522 Z M 275.138 299.164 C 267.617 312.192 250.898 316.671 237.87 309.15 C 234.905 307.437 233.889 303.645 235.6 300.68 L 256.682 264.165 C 258.395 261.2 262.187 260.183 265.153 261.895 C 278.18 269.417 282.661 286.135 275.138 299.164 Z M 336.136 401.782 L 293.972 401.782 C 290.547 401.782 287.772 399.006 287.772 395.582 C 287.772 380.539 300.009 368.3 315.054 368.299 C 330.097 368.299 342.336 380.539 342.336 395.582 C 342.336 399.006 339.559 401.782 336.136 401.782 Z M 295.182 322.209 C 295.182 311.233 304.079 302.336 315.054 302.336 C 326.03 302.336 334.926 311.233 334.926 322.209 C 334.926 333.183 326.03 342.081 315.054 342.081 C 304.079 342.081 295.182 333.184 295.182 322.209 Z M 315.054 276.118 C 300.011 276.118 287.772 263.879 287.772 248.835 C 287.772 245.412 290.547 242.635 293.972 242.635 L 336.136 242.635 C 339.559 242.635 342.336 245.412 342.336 248.835 C 342.336 263.879 330.097 276.118 315.054 276.118 Z M 373.425 380.253 C 371.714 383.218 367.921 384.235 364.956 382.522 C 351.928 375.001 347.448 358.282 354.969 345.254 C 362.492 332.226 379.211 327.746 392.238 335.269 C 395.205 336.981 396.22 340.773 394.507 343.738 L 373.425 380.253 Z" style="fill: url(#color-0);"/>
  <path id="_x30_6-Movie_Clapper" d="M 1402.291 191.451 C 1401.787 187.214 1400.284 183.28 1398.018 179.895 L 1601.01 112.119 L 1590.355 80.203 C 1588.806 75.565 1583.789 73.062 1579.154 74.609 L 1358.343 148.334 C 1353.708 149.881 1351.2 154.897 1352.749 159.535 L 1357.974 175.182 C 1352.758 180.025 1349.486 186.934 1349.486 194.597 C 1349.486 204.521 1354.972 213.183 1363.068 217.724 L 1363.068 342.744 C 1363.068 347.635 1367.035 351.597 1371.922 351.597 L 1604.715 351.597 C 1609.6 351.597 1613.567 347.634 1613.567 342.744 L 1613.567 191.451 L 1402.291 191.451 Z M 1531.672 100.876 L 1558.547 91.903 L 1552.08 118.043 L 1525.205 127.016 L 1531.672 100.876 Z M 1465.273 123.045 L 1492.15 114.072 L 1485.683 140.211 L 1458.808 149.185 L 1465.273 123.045 Z M 1375.984 208.098 C 1368.542 208.098 1362.486 202.042 1362.486 194.598 C 1362.486 187.154 1368.542 181.098 1375.984 181.098 C 1383.428 181.098 1389.484 187.154 1389.484 194.598 C 1389.484 202.042 1383.428 208.098 1375.984 208.098 Z M 1398.877 145.214 L 1425.754 136.241 L 1419.287 162.381 L 1392.41 171.355 L 1398.877 145.214 Z M 1425.279 221.344 L 1396.945 221.344 L 1411.357 198.598 L 1439.691 198.598 L 1425.279 221.344 Z M 1481.357 198.598 L 1509.691 198.598 L 1495.279 221.344 L 1466.945 221.344 L 1481.357 198.598 Z M 1474.402 308.524 L 1474.402 248.524 L 1522.185 278.524 L 1474.402 308.524 Z M 1565.279 221.344 L 1536.945 221.344 L 1551.357 198.598 L 1579.691 198.598 L 1565.279 221.344 Z" style="fill: url(#color-0);"/>
  <path d="M -13.634 976.844 C 50.125 1006.001 93.247 1040.332 256.269 1037.4 C 419.292 1034.468 571.598 948.259 744.012 952.364 C 916.425 956.471 1225.98 1008.921 1400.799 1008.408 C 1575.623 1007.894 1736.166 964.691 1766.98 950.289" style="stroke-width: 0px; fill: none; opacity: 0.08;"/>
  <path d="M -19.987 980.156 C -19.987 980.156 -12.069 983.835 -8.24 985.674 C -4.41 987.512 -0.632 989.358 3.163 991.218 C 10.753 994.937 18.381 998.695 26.247 1002.373 C 41.977 1009.727 59.17 1016.968 79.339 1023.081 C 119.435 1035.236 173.586 1043.355 256.598 1041.988 C 422.894 1038.282 574.818 952.072 743.575 956.949 C 914.735 960.938 1224.536 1013.39 1400.853 1012.998 C 1577.822 1012.211 1741.471 968.39 1773.243 953.644 L 1760.717 946.935 C 1730.861 960.992 1573.423 1003.577 1400.745 1003.817 C 1227.425 1004.452 918.115 952.004 744.448 947.778 C 568.378 944.446 415.69 1030.655 255.939 1032.812 C 175.929 1034.376 127.008 1026.797 88.848 1015.229 C 69.89 1009.483 54.159 1002.857 38.776 995.665 C 31.086 992.07 23.612 988.386 16.002 984.658 C 8.394 980.93 -7.214 973.565 -7.214 973.565 C -7.223 973.56 -19.958 980.17 -19.987 980.156 Z" style="stroke-width: 0px; fill: none; opacity: 0.08;"/>
  <path d="M -13.634 982.269 C 50.125 1011.426 93.247 1061.903 256.269 1058.971 C 419.292 1056.04 571.598 929.988 744.012 934.095 C 916.425 938.199 1225.98 1023.075 1400.799 1022.562 C 1575.623 1022.048 1736.166 970.116 1766.98 955.714" style="stroke-width: 0px; fill: none; opacity: 0.08;"/>
  <path d="M -20.189 985.481 C -20.189 985.481 -12.226 989.246 -8.442 991.18 C -4.655 993.114 -0.954 995.091 2.807 997.151 C 10.329 1001.274 17.835 1005.6 25.643 1010.01 C 41.257 1018.83 58.232 1028.06 78.309 1036.217 C 118.319 1052.473 173.002 1064.816 256.598 1063.559 C 340.849 1061.576 422.346 1028.844 502.278 997.507 C 582.209 966.17 660.34 936.169 743.575 938.68 C 914.002 942.505 1223.802 1027.383 1400.853 1027.152 C 1578.14 1026.271 1741.788 973.721 1773.243 959.069 L 1760.717 952.359 C 1730.544 966.511 1573.105 1017.826 1400.745 1017.971 C 1228.159 1018.767 918.849 933.893 744.448 929.509 C 655.269 927.913 571.041 958.885 490.96 990.281 C 410.879 1021.676 334.712 1053.435 255.939 1054.384 C 176.514 1056.059 128.124 1044.629 89.878 1029.09 C 70.828 1021.35 54.878 1012.677 39.38 1003.923 C 31.633 999.547 24.036 995.169 16.36 990.961 C 8.679 986.752 -6.858 979.174 -6.858 979.174 C -6.94 979.13 -20.115 985.518 -20.189 985.481 Z" style="stroke-width: 0px; fill: none; opacity: 0.08;"/>
  <path d="M -13.634 984.319 C 50.125 1013.476 93.247 1086.465 256.269 1083.533 C 419.292 1080.602 571.598 913.946 744.012 918.053 C 916.425 922.157 1225.98 1059.608 1400.799 1059.093 C 1575.623 1058.582 1736.166 974.97 1766.98 960.566" style="stroke-width: 0px; fill: none; opacity: 0.08;"/>
  <path d="M -20.441 987.319 C -20.441 987.319 -12.429 991.204 -8.695 993.27 C -4.953 995.342 -1.327 997.508 2.401 999.853 C 9.868 1004.55 17.28 1009.686 25.044 1015.124 C 40.575 1026.004 57.349 1037.992 77.305 1048.97 C 117.155 1070.893 172.343 1089.114 256.597 1088.043 C 341.303 1085.847 423.274 1042.749 503.223 1001.262 C 583.172 959.775 660.831 919.837 743.574 922.56 C 913.161 926.089 1222.961 1063.543 1400.852 1063.605 C 1578.957 1062.389 1742.605 978.16 1773.243 963.843 L 1760.715 957.134 C 1729.725 971.626 1572.286 1054.619 1400.745 1054.425 C 1228.998 1055.519 919.688 918.07 744.447 913.389 C 654.777 912.006 570.076 953.343 490.013 994.89 C 409.95 1036.436 334.256 1078.132 255.938 1078.868 C 177.17 1080.729 129.287 1063.921 90.881 1042.793 C 71.708 1032.246 55.559 1020.703 39.977 1009.788 C 32.185 1004.33 24.495 999.002 16.763 994.138 C 9.015 989.264 -6.454 981.384 -6.454 981.384 C -6.606 981.292 -20.315 987.386 -20.441 987.319 Z" style="stroke-width: 0px; fill: none; opacity: 0.08;"/>
  <path d="M -13.634 984.821 C 50.125 1013.981 93.247 1109.104 256.269 1106.17 C 419.292 1103.239 571.598 898.516 744.012 902.622 C 916.425 906.727 1225.98 1044.178 1400.799 1043.663 C 1575.623 1043.151 1736.166 974.284 1766.98 959.882" style="stroke-width: 0px; fill: none; opacity: 0.08;"/>
  <path d="M -20.66 987.774 C -20.66 987.774 -12.607 991.773 -8.912 993.974 C -5.201 996.184 -1.622 998.545 2.087 1001.175 C 9.528 1006.449 16.9 1012.4 24.644 1018.858 C 40.141 1031.782 56.799 1046.486 76.66 1060.222 C 116.362 1087.677 171.865 1111.642 256.598 1110.758 C 341.598 1108.387 423.876 1055.596 503.838 1004.59 C 583.801 953.585 661.152 904.307 743.575 907.208 C 913.162 910.736 1222.962 1048.19 1400.853 1048.253 C 1578.636 1047.189 1742.284 977.703 1773.243 963.236 L 1760.717 956.527 C 1730.048 970.864 1572.61 1039.114 1400.745 1039.072 C 1228.999 1040.166 919.689 902.718 744.448 898.037 C 654.458 896.832 569.45 947.862 489.399 998.924 C 409.349 1049.986 333.962 1101.022 255.939 1101.583 C 177.651 1103.632 130.082 1081.502 91.527 1054.84 C 72.26 1041.516 55.994 1027.156 40.38 1014.135 C 32.568 1007.62 24.836 1001.378 17.079 995.88 C 9.291 990.361 -6.138 982.173 -6.138 982.173 C -6.335 982.044 -20.491 987.868 -20.66 987.774 Z" style="stroke-width: 0px; fill: none; opacity: 0.08;"/>
  <path d="M -13.634 990.886 C 50.125 1020.043 93.247 1146.908 256.269 1143.976 C 419.292 1141.044 571.527 869.309 744.012 866.054 C 957.697 862.021 1225.98 1094.608 1400.799 1094.094 C 1575.623 1093.581 1752.823 982.52 1766.98 964.331" style="stroke-width: 0px; fill: none; opacity: 0.08;"/>
  <path d="M -20.929 993.67 C -20.929 993.67 -12.836 997.831 -9.181 1000.227 C -5.498 1002.642 -1.956 1005.297 1.743 1008.34 C 9.174 1014.456 16.531 1021.603 24.266 1029.533 C 39.751 1045.408 56.318 1064.026 76.086 1081.706 C 95.857 1099.387 119.464 1116.562 148.332 1128.885 C 177.291 1141.246 213.819 1149.101 256.598 1148.563 C 300.209 1147.265 343.831 1128.864 384.27 1102.571 C 424.529 1076.394 464.529 1041.794 504.521 1007.447 C 544.512 973.099 584.475 939.018 625.156 913.288 C 665.657 887.672 704.014 870.919 744.357 870.641 C 847.872 867.997 964.954 924.469 1080.508 982.008 C 1196.06 1039.546 1310.1 1098.232 1400.853 1098.685 C 1490.693 1098.072 1581.753 1069.623 1650.224 1039.277 C 1718.856 1008.859 1767.863 975.625 1775.53 965.997 L 1758.43 962.666 C 1751.94 971.226 1705.267 1002.617 1638.055 1032.405 C 1570.681 1062.265 1485.729 1089.604 1400.745 1089.504 C 1316.68 1090.47 1209.169 1033.12 1093.453 975.5 C 977.74 917.882 853.837 860.077 743.666 861.466 C 697.766 862.817 652.412 881.251 610.764 907.592 C 569.295 933.82 528.669 968.466 488.664 1002.825 C 448.658 1037.185 409.252 1071.272 369.726 1096.972 C 330.381 1122.555 293.84 1139.221 255.939 1139.388 C 217.208 1140.316 187.213 1133.413 160.243 1121.9 C 133.184 1110.35 111.459 1094.536 92.101 1077.223 C 72.741 1059.909 56.384 1041.527 40.758 1025.506 C 25.108 1009.462 -5.388 988.873 -5.388 988.873 C -5.486 988.778 -20.714 993.801 -20.929 993.67 Z" style="stroke-width: 0px; fill: none; opacity: 0.08;"/>
  <path d="M -13.634 990.886 C 50.125 1020.043 93.247 1123.981 256.269 1121.05 C 419.292 1118.118 571.527 891.291 744.012 888.035 C 957.697 884.002 1225.98 1073.601 1400.799 1073.087 C 1575.623 1072.574 1752.823 982.52 1766.98 964.331" style="stroke-width: 0px; fill: none; opacity: 0.08;"/>
  <path d="M -20.739 993.791 C -20.739 993.791 -12.673 997.835 -8.992 1000.09 C -5.29 1002.356 -1.725 1004.797 1.981 1007.541 C 9.417 1013.047 16.78 1019.327 24.52 1026.192 C 40.012 1039.934 56.637 1055.723 76.468 1070.554 C 116.118 1100.207 171.712 1126.449 256.598 1125.637 C 341.728 1123.177 424.142 1064.755 504.122 1007.287 C 584.102 949.819 661.69 893.281 744.357 892.623 C 848.229 890.131 965.661 936.014 1081.208 982.809 C 1196.75 1029.604 1310.44 1077.386 1400.853 1077.678 C 1490.336 1077.167 1581.056 1054.105 1649.556 1029.043 C 1718.269 1003.902 1767.613 975.779 1775.53 965.997 L 1758.43 962.666 C 1752.19 971.072 1705.855 997.07 1638.723 1021.632 C 1571.378 1046.272 1486.086 1068.494 1400.745 1068.497 C 1316.34 1069.302 1208.479 1022.542 1092.753 975.673 C 977.032 928.807 853.48 881.907 743.666 883.448 C 653.849 886.045 569.077 944.548 489.063 1002.041 C 409.047 1059.533 333.833 1115.991 255.939 1116.462 C 177.803 1118.582 130.326 1094.321 91.72 1065.449 C 72.423 1051.017 56.124 1035.538 40.504 1021.682 C 32.687 1014.749 24.948 1008.149 17.186 1002.401 C 9.387 996.626 -6.032 988.316 -6.032 988.316 C -6.241 988.173 -20.556 993.896 -20.739 993.791 Z" style="stroke-width: 0px; fill: none; opacity: 0.08;"/>
  <g transform="matrix(1.841093, 0, 0, 1.841093, 1556.889893, 439.651886)" style="">
    <path class="st0" d="M 36.88 -14.143 L 71.52 -28.593 L 101.39 2.177 L 87.45 36.707 C 63.81 43.257 41.79 52.817 21 64.667 L 16.78 59.427 L 58.01 18.547 C 58.84 18.927 59.74 19.117 60.65 19.117 C 60.65 19.117 60.66 19.117 60.66 19.117 C 64.22 19.117 67.1 16.237 67.1 12.677 C 67.1 9.127 64.22 6.237 60.66 6.237 C 57.11 6.237 54.22 9.117 54.22 12.677 C 54.22 13.827 54.52 14.907 55.05 15.837 L 14.25 56.377 L 8.59 51.207 C 21.04 30.827 30.56 9.097 36.88 -14.143 Z M 81.39 -36.593 L 110.32 -6.953 L 107.68 -4.383 L 105.04 -1.813 L 76.11 -31.463 L 78.75 -34.033 L 81.39 -36.593 Z M 13.02 70.767 C 26.58 83.247 34.56 77.807 45.85 70.087 C 55.19 63.707 66.48 55.997 83.6 53.447 C 84.82 49.347 88.62 46.357 93.11 46.357 C 98.59 46.357 103.03 50.797 103.03 56.277 C 103.03 61.757 98.59 66.197 93.11 66.197 C 89.26 66.197 85.92 64.007 84.28 60.797 C 68.96 63.227 58.59 70.307 50 76.167 C 35.53 86.047 25.42 92.947 7.7 75.927 C 6.51 76.407 5.24 76.657 3.96 76.657 C 3.96 76.657 3.95 76.657 3.95 76.657 C -1.53 76.657 -5.97 72.217 -5.97 66.737 C -5.97 61.257 -1.53 56.817 3.95 56.817 C 9.43 56.817 13.87 61.257 13.87 66.737 C 13.87 66.737 13.87 66.747 13.87 66.747 C 13.87 68.137 13.58 69.497 13.02 70.767 Z" style="clip-rule: evenodd; fill-rule: evenodd; fill: url(#color-0);"/>
  </g>
  <g transform="matrix(0.906308, 0.422618, -0.422618, 0.906308, 227.86142, 883.027344)" style="transform-origin: 61.44px 43.175px;">
    <path class="st0" d="M43.12,36.55l-7.4,4.51l-5.27-3.46c-0.7-2.1-3.1-4.05-7.2-5.82L12.34,27C4.12,23.39,0,18.94,0,13.62 c0-2.83,1.06-5.23,3.17-7.18c2.11-1.95,4.69-2.94,7.7-2.94c4.3,0,8.08,1.45,11.32,4.35c3.23,2.9,4.84,6.29,4.84,10.12 c0,0.29-0.07,1.25-0.22,2.9l-0.05,1.2c-0.07,0.77-0.11,1.34-0.11,1.74c0,2.51,1.99,4.67,5.98,6.5c0.7,0.34,1.38,0.72,2.04,1.09 L43.12,36.55L43.12,36.55z M67.23,65.77l40.69,20.58l14.96-2.84L77.96,50.96c-4.84-3.5-4.88-4.35-10.79-2.64l-1.9,0.55l-11.21-6.25 l-7.78,4.97l12.14,8.59l0.77,2.64C60.54,63.47,62.95,63.6,67.23,65.77L67.23,65.77z M64.6,20.27L104.67,0l16.27,1.31L76.33,34.14 c-4.82,3.55-5.71,5.83-11.69,4.1l-2.61-0.76l-4.7,2.62l-12.87,7.47c-1.95,1.15-3.31,1.88-4.05,2.15l-1.15,0.43 c-3.01,1.11-4.51,3.12-4.51,6.02v0.49l0.11,1.31l0.16,2.58c0.23,4.74-2.33,9.37-7.72,13.84c-5.39,4.51-11.07,6.77-17.01,6.77 c-3.01,0-5.46-0.77-7.4-2.29C0.97,77.34,0,75.43,0,73.08c0-3.05,2.99-6.45,8.97-10.19L25.6,52.5c3.64-2.27,5.46-4.32,5.46-6.13 c0-0.22-0.04-0.56-0.09-1.06l14.69-9.16l0,0l9.52-5.97l0.92-3.17C57.36,22.66,60.64,22.27,64.6,20.27L64.6,20.27z M10.87,21.76 l2.56,1.26c2.31,1.09,4.19,1.63,5.62,1.63c2.8,0,4.19-1.95,4.19-5.88c0-2.87-1.29-5.52-3.89-7.93c-2.58-2.42-5.43-3.62-8.54-3.62 c-1.86,0-3.46,0.65-4.8,1.94C4.67,10.46,4,12,4,13.78C4,16.75,6.29,19.42,10.87,21.76L10.87,21.76z M21.53,59.6L9.51,67.08 C5.84,69.39,4,71.42,4,73.12c0,1.42,0.55,2.46,1.68,3.15c1.11,0.7,2.8,1.06,5.03,1.06c4.62,0,9.15-1.81,13.6-5.41 c4.44-3.6,6.66-7.27,6.66-11.02c0-2.53-1.11-3.78-3.31-3.78C26.33,57.12,24.29,57.95,21.53,59.6L21.53,59.6z M44.4,44.8 c1.7,0,2.56-0.82,2.56-2.47c0-1.65-0.86-2.47-2.56-2.47c-1.68,0-2.52,0.82-2.52,2.47C41.88,43.98,42.72,44.8,44.4,44.8L44.4,44.8z" style="clip-rule: evenodd; fill-rule: evenodd; fill: url(#color-0);"/>
  </g>
  <g transform="matrix(1.233701944351, 0, 0, 1.233701944351, 1444.574031115029, 560.958878392946)" style="transform-origin: 61.435px 60.86px;">
    <path class="st0" d="M1.7,95.33h7.26V26.41H1.49C0.67,26.41,0,25.74,0,24.92V1.49C0,0.67,0.67,0,1.49,0h24.17 c0.82,0,1.49,0.67,1.49,1.49v6.77h68.57V1.49c0-0.82,0.67-1.49,1.49-1.49h24.17c0.82,0,1.49,0.67,1.49,1.49v23.42 c0,0.82-0.67,1.49-1.49,1.49h-7.13v68.92h7.13c0.82,0,1.49,0.67,1.49,1.49v23.42c0,0.82-0.67,1.49-1.49,1.49H97.22 c-0.82,0-1.49-0.67-1.49-1.49v-5.52H27.37v5.52c0,0.82-0.67,1.49-1.49,1.49H1.7c-0.82,0-1.49-0.67-1.49-1.49V96.82 C0.21,96,0.88,95.33,1.7,95.33L1.7,95.33z M18.03,95.33h7.84c0.82,0,1.49,0.67,1.49,1.49v8.84h68.36v-8.84 c0-0.82,0.67-1.49,1.49-1.49h7.97V26.41h-7.97c-0.82,0-1.49-0.67-1.49-1.49v-7.59H27.16v7.59c0,0.82-0.67,1.49-1.49,1.49h-7.63 V95.33L18.03,95.33z" style="clip-rule: evenodd; fill-rule: evenodd; fill: url(#color-0);"/>
  </g>
  <g transform="matrix(0.596389, 0, 0, 0.596389, -359.803284, 532.227722)" style="">
    <path d="M 758.762 674.849 L 802.524 674.849 L 830.162 722.739 C 832.028 725.973 835.477 727.966 839.211 727.966 C 842.944 727.966 846.394 725.974 848.261 722.742 L 875.914 674.85 L 919.679 674.85 C 938.696 674.85 954.168 659.405 954.168 640.422 L 954.168 525.153 C 954.168 506.177 938.696 490.738 919.679 490.738 L 758.762 490.738 C 739.753 490.738 724.289 506.175 724.289 525.153 L 724.289 640.421 C 724.289 659.405 739.753 674.849 758.762 674.849 Z M 745.186 525.153 C 745.186 517.7 751.276 511.636 758.761 511.636 L 919.677 511.636 C 927.171 511.636 933.268 517.7 933.268 525.153 L 933.268 640.421 C 933.268 647.883 927.171 653.951 919.677 653.951 L 869.88 653.951 C 866.148 653.951 862.697 655.943 860.831 659.175 L 839.213 696.615 L 817.608 659.177 C 815.742 655.942 812.292 653.95 808.558 653.95 L 758.761 653.95 C 751.275 653.95 745.186 647.88 745.186 640.42 L 745.186 525.153 Z" style="fill: url(#color-0);"/>
    <path d="M 812.266 622.467 C 813.884 623.403 815.689 623.87 817.496 623.87 C 819.295 623.87 821.096 623.406 822.71 622.476 L 875.886 591.858 C 879.125 589.994 881.121 586.542 881.121 582.804 C 881.121 579.067 879.126 575.614 875.888 573.749 L 822.712 543.115 C 819.479 541.254 815.498 541.255 812.267 543.122 C 809.036 544.989 807.047 548.437 807.047 552.169 L 807.047 613.421 C 807.047 617.152 809.036 620.6 812.266 622.467 Z M 827.945 570.248 L 849.735 582.801 L 827.945 595.348 L 827.945 570.248 Z" style="fill: url(#color-0);"/>
  </g>
  <g id="_x31_1-DSLR_Camera" transform="matrix(0.869609, 0, 0, 0.869609, 1470.286621, 883.614563)" style="">
    <path d="M284.909,66.146h-81.345l-16.426-27.595c-1.607-2.698-4.514-4.351-7.654-4.351h-51.662c-3.14,0-6.048,1.653-7.654,4.351 l-16.426,27.595H77.049v-6.082c0-4.919-3.988-8.907-8.907-8.907H35.185c-4.92,0-8.907,3.988-8.907,8.907v6.082h-3.88 C10.027,66.146,0,76.174,0,88.543v162.166c0,12.37,10.027,22.398,22.397,22.398h262.512c12.37,0,22.398-10.028,22.398-22.398 V88.543C307.308,76.174,297.279,66.146,284.909,66.146z M153.653,233.379c-35.21,0-63.753-28.543-63.753-63.754 c0-35.209,28.543-63.753,63.753-63.753c35.21,0,63.753,28.544,63.753,63.753C217.406,204.836,188.863,233.379,153.653,233.379z M270.935,112.322h-27.91c-4.919,0-8.907-3.988-8.907-8.908c0-4.92,3.988-8.908,8.907-8.908h27.91c4.921,0,8.908,3.988,8.908,8.908 C279.843,108.334,275.855,112.322,270.935,112.322z" style="fill: url(#color-0);"/>
    <circle cx="153.653" cy="169.625" r="44.538" style="fill: url(#color-0);"/>
  </g>
  <g transform="matrix(0.59146, -0.125719, 0.125719, 0.59146, -892.612488, 57.552624)" style="transform-origin: 1026.6px 519.746px;">
    <path d="M 1179.591 762.179 L 1086.706 514.578 C 1107.615 505.036 1126.183 490.465 1140.82 471.639 C 1144.223 467.262 1143.434 460.954 1139.057 457.551 C 1134.68 454.15 1128.373 454.937 1124.969 459.314 C 1112.657 475.149 1097.114 487.478 1079.625 495.703 L 1066.994 462.033 C 1095.715 447.305 1115.415 417.384 1115.415 382.95 C 1115.415 337.374 1080.905 299.713 1036.646 294.709 L 1036.646 273.786 C 1036.645 268.242 1032.15 263.747 1026.606 263.747 C 1021.062 263.747 1016.567 268.242 1016.567 273.786 L 1016.567 294.708 C 972.304 299.71 937.792 337.371 937.792 382.95 C 937.792 417.385 957.492 447.306 986.213 462.033 L 973.598 495.661 C 967.941 492.995 962.464 489.897 957.215 486.367 C 952.615 483.274 946.378 484.495 943.282 489.095 C 940.188 493.696 941.409 499.934 946.01 503.028 C 952.566 507.437 959.433 511.253 966.531 514.501 L 873.616 762.179 C 871.669 767.37 874.299 773.157 879.49 775.104 C 880.652 775.54 881.843 775.746 883.015 775.746 C 887.08 775.746 890.905 773.259 892.417 769.23 L 985.327 521.564 C 998.615 525.514 1012.489 527.557 1026.605 527.557 C 1040.815 527.557 1054.691 525.515 1067.899 521.607 L 1160.793 769.23 C 1162.305 773.26 1166.13 775.746 1170.195 775.746 C 1171.367 775.746 1172.558 775.539 1173.72 775.104 C 1178.908 773.157 1181.539 767.37 1179.591 762.179 Z M 957.87 382.949 C 957.87 348.458 983.409 319.829 1016.567 314.956 L 1016.567 343.99 C 1016.567 349.535 1021.063 354.029 1026.606 354.029 C 1032.15 354.029 1036.645 349.534 1036.645 343.99 L 1036.645 314.957 C 1069.8 319.833 1095.336 348.462 1095.336 382.95 C 1095.336 408.784 1081.003 431.325 1059.878 443.064 L 1036.004 379.424 C 1035.967 379.326 1035.92 379.233 1035.88 379.137 C 1035.812 378.971 1035.742 378.806 1035.666 378.643 C 1035.595 378.493 1035.518 378.349 1035.441 378.205 C 1035.366 378.064 1035.289 377.925 1035.207 377.787 C 1035.117 377.636 1035.021 377.49 1034.924 377.345 C 1034.841 377.221 1034.755 377.097 1034.666 376.977 C 1034.562 376.835 1034.453 376.699 1034.342 376.563 C 1034.245 376.445 1034.146 376.329 1034.043 376.215 C 1033.931 376.091 1033.815 375.971 1033.698 375.854 C 1033.583 375.739 1033.465 375.625 1033.344 375.516 C 1033.228 375.411 1033.109 375.309 1032.989 375.21 C 1032.856 375.101 1032.722 374.994 1032.583 374.892 C 1032.46 374.801 1032.334 374.714 1032.207 374.629 C 1032.064 374.534 1031.921 374.44 1031.773 374.351 C 1031.633 374.268 1031.491 374.19 1031.348 374.113 C 1031.205 374.037 1031.064 373.961 1030.916 373.891 C 1030.751 373.813 1030.583 373.742 1030.414 373.673 C 1030.319 373.634 1030.229 373.587 1030.132 373.551 C 1030.09 373.535 1030.048 373.526 1030.006 373.511 C 1029.826 373.446 1029.644 373.392 1029.46 373.337 C 1029.322 373.296 1029.186 373.252 1029.048 373.218 C 1028.875 373.175 1028.7 373.142 1028.525 373.108 C 1028.374 373.079 1028.224 373.045 1028.073 373.023 C 1027.91 372.999 1027.746 372.987 1027.582 372.97 C 1027.418 372.954 1027.256 372.934 1027.093 372.926 C 1026.938 372.918 1026.783 372.923 1026.627 372.922 C 1026.454 372.922 1026.282 372.918 1026.111 372.926 C 1025.963 372.933 1025.815 372.952 1025.667 372.966 C 1025.488 372.983 1025.31 372.997 1025.133 373.023 C 1024.993 373.044 1024.854 373.075 1024.714 373.102 C 1024.527 373.138 1024.342 373.172 1024.158 373.218 C 1024.027 373.251 1023.898 373.293 1023.768 373.331 C 1023.577 373.387 1023.388 373.444 1023.202 373.512 C 1023.162 373.527 1023.121 373.536 1023.08 373.551 C 1022.987 373.586 1022.9 373.631 1022.808 373.669 C 1022.634 373.74 1022.462 373.813 1022.292 373.893 C 1022.148 373.961 1022.011 374.035 1021.872 374.109 C 1021.725 374.187 1021.579 374.268 1021.436 374.353 C 1021.291 374.439 1021.151 374.532 1021.012 374.625 C 1020.881 374.712 1020.752 374.802 1020.625 374.895 C 1020.489 374.995 1020.358 375.1 1020.227 375.207 C 1020.104 375.308 1019.982 375.412 1019.864 375.519 C 1019.745 375.627 1019.63 375.738 1019.517 375.851 C 1019.397 375.97 1019.279 376.093 1019.165 376.219 C 1019.065 376.33 1018.967 376.445 1018.872 376.56 C 1018.759 376.698 1018.648 376.836 1018.542 376.981 C 1018.455 377.099 1018.371 377.22 1018.289 377.342 C 1018.191 377.489 1018.093 377.637 1018.002 377.79 C 1017.921 377.926 1017.845 378.064 1017.771 378.203 C 1017.693 378.349 1017.615 378.494 1017.544 378.645 C 1017.468 378.807 1017.398 378.971 1017.331 379.137 C 1017.291 379.234 1017.244 379.326 1017.206 379.425 L 993.332 443.065 C 972.203 431.324 957.87 408.784 957.87 382.949 Z M 1026.602 411.532 L 1041.083 450.134 C 1036.412 451.14 1031.57 451.682 1026.602 451.682 C 1021.634 451.682 1016.793 451.14 1012.121 450.134 L 1026.602 411.532 Z M 1026.602 507.48 C 1014.918 507.48 1003.433 505.847 992.4 502.703 L 1005.006 469.1 C 1011.922 470.835 1019.155 471.76 1026.602 471.76 C 1034.049 471.76 1041.282 470.833 1048.198 469.1 L 1060.818 502.74 C 1049.848 505.851 1038.358 507.48 1026.602 507.48 Z" style="fill: url(#color-0);"/>
    <path d="M 918.868 484.605 C 920.811 486.449 923.296 487.364 925.779 487.364 C 928.435 487.364 931.088 486.316 933.061 484.237 C 936.879 480.216 936.714 473.863 932.694 470.045 C 928.154 465.735 923.904 461.043 920.061 456.101 C 916.659 451.724 910.349 450.935 905.974 454.337 C 901.597 457.74 900.808 464.047 904.21 468.424 C 908.667 474.159 913.599 479.603 918.868 484.605 Z" style="fill: url(#color-0);"/>
  </g>
  <path d="M 1168.709 745.387 L 1163.621 767.177 L 1158.523 743.789 L 1153.434 759.729 L 1150.031 746.973 L 1146.069 748.036 L 1140.971 620.478 L 1136.442 753.892 L 1131.904 748.576 L 1127.941 762.931 L 1124.547 752.294 L 1118.882 766.648 L 1111.525 742.732 L 1111.525 772.498 L 1105.868 755.489 L 1099.636 761.339 L 1099.636 750.702 L 1094.54 752.834 L 1088.884 614.106 L 1085.48 748.047 L 1079.825 748.582 L 1076.429 771.441 L 1073.027 750.179 L 1070.198 773.562 L 1066.795 754.961 L 1062.266 768.78 L 1056.041 703.158 L 1053.789 748.582 L 1048.683 741.135 L 1048.683 768.246 L 1045.289 749.105 L 1041.878 770.901 L 1038.489 743.255 L 1034.528 766.643 L 1030.566 752.823 L 1026.028 765.579 L 1022.632 754.943 L 1019.236 767.165 L 1015.291 639.614 L 1012.453 733.158 L 1007.357 708.708 L 1004.521 764.517 L 1001.126 751.759 L 997.723 760.798 L 994.319 746.978 L 988.663 762.391 L 985.819 746.978 L 980.738 776.21 L 976.767 678.936 L 972.262 749.633 L 967.725 745.916 L 962.627 769.826 L 958.664 743.249 L 955.837 761.856 L 952.433 742.715 L 949.03 756.006 L 946.201 748.564 L 941.664 766.637 L 941.664 741.663 L 936.007 754.42 L 936.007 731.038 L 932.605 737.417 L 929.209 688.55 L 923.545 766.648 L 920.142 750.702 L 917.315 761.339 L 913.91 745.393 L 909.948 763.999 L 907.112 753.897 L 902.581 775.688 L 898.61 710.758 L 894.098 763.988 L 888.442 716.038 L 885.614 754.42 L 881.643 745.381 L 877.689 773.555 L 874.285 754.42 L 870.324 765.579 L 866.928 745.381 L 864.092 762.924 L 859.57 741.135 L 855.041 764.522 L 852.205 686.959 L 848.242 765.591 L 843.711 744.33 L 841.451 760.804 L 838.615 752.306 L 834.086 761.873 L 830.69 741.141 L 827.294 762.402 L 825.034 737.423 L 819.937 772.504 L 816.533 636.959 L 812.572 780.468 L 809.168 752.828 L 806.899 761.327 L 804.071 746.444 L 800.668 757.603 L 798.407 747.501 L 795.003 752.282 L 791.599 738.997 L 789.339 769.297 L 786.503 756.541 L 781.973 761.856 L 779.136 747.501 L 774.607 758.661 L 770.644 665.644 L 766.682 770.883 L 762.721 753.346 L 759.317 763.447 L 759.317 741.135 C 759.317 741.135 754.787 764.522 754.787 766.114 C 754.787 767.712 750.825 754.42 750.825 754.42 L 747.421 766.114 L 744.585 757.075 L 741.189 767.177 L 734.966 660.347 L 731.003 774.63 L 727.601 743.801 L 724.197 765.591 L 720.793 748.582 C 720.793 748.582 717.957 763.994 717.957 766.654 C 717.957 769.315 713.436 750.708 713.436 750.708 C 713.436 750.708 710.032 763.999 710.032 766.654 C 710.032 769.309 706.629 737.423 706.629 737.423 L 701.03 766.648 L 701.03 741.663 L 697.068 777.808 L 697.068 688.715 L 690.845 771.964 L 688.008 752.828 L 684.045 764.528 L 680.642 753.369 L 676.121 765.063 L 676.121 751.766 L 669.898 762.402 L 669.898 746.991 L 665.936 761.868 L 663.667 745.921 L 659.136 769.309 L 656.309 712.097 L 652.904 765.321 L 650.069 755.489 L 647.734 775.153 L 647.734 781.532 L 647.734 783.129 L 647.734 792.696 L 653.399 789.502 L 653.957 819.267 L 659.053 797.471 L 664.151 820.865 L 669.249 804.913 L 672.651 817.676 L 676.614 816.607 L 681.712 944.176 L 686.241 810.769 L 690.771 816.084 L 694.741 801.736 L 698.144 812.366 L 703.8 798.012 L 711.167 821.929 L 711.167 792.174 L 716.822 809.177 L 723.045 803.339 L 723.045 813.97 L 728.142 811.85 L 733.799 868.557 L 737.203 816.613 L 742.857 816.09 L 746.262 793.225 L 749.666 814.481 L 752.493 791.099 L 755.897 809.706 L 760.427 795.88 L 766.65 912.278 L 768.91 816.084 L 774.006 823.514 L 774.006 796.414 L 777.402 815.55 L 780.806 793.76 L 784.209 821.406 L 788.171 798.006 L 792.134 811.832 L 796.663 799.069 L 800.067 809.706 L 803.47 797.484 L 807.433 925.052 L 810.27 855.43 L 815.366 863.928 L 818.203 800.15 L 821.606 812.907 L 825.01 803.868 L 828.413 817.694 L 834.069 802.276 L 836.898 817.694 L 841.994 788.456 L 845.956 885.73 L 850.494 815.039 L 855.024 818.757 L 860.121 794.84 L 864.083 821.423 L 866.92 802.816 L 870.324 821.946 L 873.727 808.66 L 876.564 816.108 L 881.093 798.03 L 881.093 823.015 L 886.758 810.252 L 886.758 833.646 L 890.16 827.261 L 893.563 867.476 L 899.221 798.035 L 902.581 813.97 L 905.418 803.333 L 908.823 819.28 L 912.784 800.673 L 915.621 810.781 L 920.15 788.985 L 924.113 950.689 L 928.642 800.673 L 934.298 818.21 L 937.143 810.24 L 941.097 819.28 L 945.059 791.105 L 948.462 810.252 L 952.426 799.093 L 955.829 819.285 L 958.657 801.748 L 963.187 823.544 L 967.725 800.15 L 970.56 930.38 L 974.523 799.087 L 979.045 820.342 L 981.314 803.868 L 984.15 812.372 L 988.68 802.805 L 992.075 823.52 L 995.471 802.264 L 997.74 827.25 L 1002.828 792.168 L 1006.232 927.707 L 1010.193 784.192 L 1013.597 811.832 L 1015.849 803.328 L 1018.685 818.216 L 1022.089 807.057 L 1024.342 817.154 L 1027.738 812.378 L 1031.132 825.664 L 1033.393 795.375 L 1036.229 808.126 L 1040.768 802.81 L 1043.595 817.159 L 1048.133 806.006 L 1052.087 899.028 L 1056.05 793.783 L 1060.012 811.321 L 1063.415 801.219 L 1063.415 823.544 C 1063.415 823.544 1067.946 800.161 1067.946 798.564 C 1067.946 796.966 1071.908 810.252 1071.908 810.252 L 1075.311 798.564 L 1078.14 807.597 L 1081.543 797.501 L 1087.774 852.217 L 1091.737 790.054 L 1095.132 820.883 L 1098.528 799.087 L 1101.931 816.096 C 1101.931 816.096 1104.766 800.684 1104.766 798.03 C 1104.766 795.363 1109.297 813.97 1109.297 813.97 C 1109.297 813.97 1112.693 800.679 1112.693 798.03 C 1112.693 795.375 1116.096 827.255 1116.096 827.255 L 1121.76 798.03 L 1121.76 823.003 L 1125.714 786.864 L 1125.714 933.545 L 1131.937 792.685 L 1134.773 811.832 L 1138.744 800.138 L 1142.14 811.291 L 1146.678 799.61 L 1146.678 812.895 L 1152.901 802.259 L 1152.901 817.676 L 1156.863 802.787 L 1159.115 818.733 L 1163.646 795.345 L 1166.482 910.158 L 1169.885 799.339 L 1172.713 809.171 L 1175.056 789.502 L 1175.056 783.129 L 1175.056 781.532 L 1175.056 771.964 L 1169.4 775.147 L 1168.709 745.387 Z" style="fill: url(#color-0); fill-opacity: 0.51;"/>
  <g transform="matrix(2.550529, 0, 0, 2.550529, 376.991669, 406.571442)" style="">
    <path d="M91.42,0v8.53h10.59v9.26H91.42v14.76l-9.26,3.73v-18.5H19.85v66.09h62.31V72.62l9.26-3.03v14.31h10.59v9.26H91.42v8.86 h-9.26v-8.86H19.85v8.86h-9.26v-8.86H0v-9.26h10.59V17.79H0V8.53h10.59V0h9.26v8.53h62.31V0H91.42L91.42,0z M85.71,46.3 c3.38,3.98,5.76,8.27,7.04,12.9l27.13-19.8c2.31-1.46,3.72-2.8,2.64-5.94c-0.65-0.99-1.42-1.6-2.31-1.84 c-0.89-0.24-1.9-0.1-3.02,0.42L85.71,46.3L85.71,46.3z M44.95,76.48c8.2-3.73,18.63,4.06,24.92-4.01c1.67-2.14,2.57-5.34,1.99-8.13 c-0.23-1.13-0.7-2.18-1.43-3.06c-0.33-0.39-0.7-0.75-1.13-1.08c-5.33-4.1-12.3-1.2-16.55,3.11C48.85,67.28,46.42,72.72,44.95,76.48 L44.95,76.48z M72.45,57.41c1.55,1.27,3.48,4.03,3.55,6.65l14.44-3.7c-1.41-5.09-3.6-9.64-7.11-13.25 C77.97,51.97,78.34,52.95,72.45,57.41L72.45,57.41z M56.85,46.06L45.16,58.8V39.44H34.15v-9.71h33.71v9.71H56.85V46.06L56.85,46.06 z" style="fill: url(#color-0);"/>
  </g>
  <g transform="matrix(0.75471, -0.656059, 0.656059, 0.75471, 259.937561, 74.769089)" style="transform-origin: 938.948px 855.939px;">
    <g>
      <path d="M 1145.479 691.89 L 1084.089 691.89 C 1078.318 691.89 1073.64 696.568 1073.64 702.339 L 1073.64 763.781 C 1073.64 769.552 1078.318 774.23 1084.089 774.23 L 1103.808 774.23 C 1099.043 866.504 1031.588 945.109 941.447 963.754 L 941.447 947.341 C 941.447 941.571 936.769 936.892 930.998 936.892 L 868.858 936.892 C 863.087 936.892 858.409 941.571 858.409 947.341 L 858.409 963.703 C 768.411 944.962 701.065 866.383 696.301 774.231 L 715.765 774.231 C 721.536 774.231 726.214 769.553 726.214 763.782 L 726.214 702.339 C 726.214 696.568 721.536 691.89 715.765 691.89 L 654.377 691.89 C 648.606 691.89 643.928 696.568 643.928 702.339 L 643.928 763.781 C 643.928 769.552 648.606 774.23 654.377 774.23 L 675.37 774.23 C 677.717 824.875 697.068 873.325 730.464 911.65 C 751.394 935.671 776.985 954.789 805.372 967.991 L 760.283 967.991 C 754.512 967.991 749.834 972.67 749.834 978.44 C 749.834 984.21 754.512 988.889 760.283 988.889 L 858.41 988.889 L 858.41 1009.539 C 858.41 1015.309 863.088 1019.988 868.859 1019.988 L 930.999 1019.988 C 936.77 1019.988 941.448 1015.309 941.448 1009.539 L 941.448 988.889 L 1110.693 988.889 C 1116.464 988.889 1121.142 984.21 1121.142 978.44 C 1121.142 972.67 1116.464 967.991 1110.693 967.991 L 994.735 967.991 C 1023.084 954.808 1048.645 935.726 1069.564 911.746 C 1103.012 873.405 1122.394 824.921 1124.742 774.23 L 1145.479 774.23 C 1151.25 774.23 1155.928 769.552 1155.928 763.781 L 1155.928 702.339 C 1155.928 696.568 1151.25 691.89 1145.479 691.89 Z M 664.826 712.788 L 705.318 712.788 L 705.318 753.332 L 664.826 753.332 L 664.826 712.788 Z M 920.549 999.09 L 879.307 999.09 L 879.307 957.79 L 920.549 957.79 L 920.549 999.09 Z M 1135.03 753.332 L 1094.538 753.332 L 1094.538 712.788 L 1135.03 712.788 L 1135.03 753.332 Z" style="fill: url(#color-0); fill-opacity: 0.51; stroke: rgb(0, 0, 0); stroke-opacity: 0.25;"/>
      <path d="M 1215.511 943.916 L 1183.423 943.916 C 1173.244 943.916 1164.963 952.201 1164.963 962.385 L 1164.963 967.991 L 1143.385 967.991 C 1137.614 967.991 1132.936 972.67 1132.936 978.44 C 1132.936 984.21 1137.614 988.889 1143.385 988.889 L 1164.963 988.889 L 1164.963 994.495 C 1164.963 1004.678 1173.244 1012.963 1183.423 1012.963 L 1215.511 1012.963 C 1225.689 1012.963 1233.969 1004.678 1233.969 994.495 L 1233.969 962.385 C 1233.969 952.201 1225.689 943.916 1215.511 943.916 Z M 1213.071 992.064 L 1185.861 992.064 L 1185.861 964.814 L 1213.071 964.814 L 1213.071 992.064 Z" style="fill: url(#color-0); fill-opacity: 0.51; stroke: rgb(0, 0, 0); stroke-opacity: 0.25;"/>
    </g>
    <path d="M 734.891 967.991 L 712.934 967.991 L 712.934 962.383 C 712.934 952.2 704.655 943.917 694.479 943.917 L 662.388 943.917 C 652.209 943.916 643.928 952.2 643.928 962.383 L 643.928 994.495 C 643.928 1004.678 652.209 1012.963 662.388 1012.963 L 694.474 1012.963 C 704.653 1012.963 712.934 1004.678 712.934 994.495 L 712.934 988.889 L 734.89 988.889 C 740.661 988.889 745.339 984.21 745.339 978.44 C 745.34 972.67 740.662 967.991 734.891 967.991 Z M 692.036 992.064 L 664.826 992.064 L 664.826 964.814 L 692.036 964.814 L 692.036 992.064 Z" style="fill: url(#color-0); fill-opacity: 0.51; stroke: rgb(0, 0, 0); stroke-opacity: 0.25;"/>
  </g>
  <g transform="matrix(0.735285, 0, 0, 0.735285, 453.909119, 875.52301)" style="">
    <g>
      <path d="M114.003,255.595c-5.043,3.696-10.324,8.09-11.102,9.663c-1.353,2.705-3.244,17.252-2.889,22.24 c0.073,1.053,0.306,4.26,13.972,4.266l0.042,3.06v-3.06c13.666-0.006,13.898-3.213,13.972-4.271 c0.355-4.976-1.53-19.523-2.889-22.234C124.407,263.851,119.682,259.762,114.003,255.595z" style="fill: url(#color-0);"/>
      <path d="M200.111,290.032c-18.954,0-34.37,15.423-34.37,34.37s15.416,34.364,34.37,34.364s34.37-15.417,34.37-34.364 S219.065,290.032,200.111,290.032z" style="fill: url(#color-0);"/>
      <rect x="227.994" y="238.771" width="18.898" height="7.711" style="fill: url(#color-0);"/>
      <circle cx="465.824" cy="194.529" r="19.866" style="fill: url(#color-0);"/>
      <path d="M114.003,232.84c5.686-4.167,10.404-8.256,11.108-9.669c1.353-2.699,3.244-17.246,2.889-22.24 c-0.08-1.053-0.306-4.254-13.972-4.26c-13.708,0.006-13.935,3.207-14.015,4.26c-0.355,4.987,1.53,19.535,2.889,22.24 C103.685,224.744,108.96,229.15,114.003,232.84z" style="fill: url(#color-0);"/>
      <path d="M92.962,233.11c-2.46-1.229-14.584-2.925-20.918-2.925c-0.502,0-0.937,0.012-1.31,0.042 c-1.059,0.074-4.266,0.301-4.271,13.966c0.006,13.709,3.213,13.936,4.266,14.009c0.379,0.031,0.82,0.043,1.316,0.043 c6.34,0,18.464-1.688,20.918-2.925c1.671-0.839,6.353-6.573,9.676-11.102C98.936,239.181,94.529,233.893,92.962,233.11z" style="fill: url(#color-0);"/>
      <path d="M157.284,230.234c-0.379-0.031-0.82-0.043-1.316-0.043c-6.34,0-18.464,1.689-20.924,2.925 c-1.566,0.784-5.973,6.065-9.669,11.108c3.317,4.528,7.999,10.27,9.669,11.102c2.46,1.23,14.584,2.925,20.918,2.925 c0.496,0,0.936-0.012,1.31-0.042c1.059-0.074,4.266-0.3,4.271-13.966c0-0.05,0-0.092,0-0.129 C161.525,230.528,158.336,230.301,157.284,230.234z" style="fill: url(#color-0);"/>
      <circle cx="512.446" cy="241.152" r="19.865" style="fill: url(#color-0);"/>
      <circle cx="465.824" cy="287.774" r="19.865" style="fill: url(#color-0);"/>
      <circle cx="419.202" cy="241.152" r="19.865" style="fill: url(#color-0);"/>
      <polygon points="333.062,246.586 349.171,241.751 333.062,237.381 &#9;&#9;" style="fill: url(#color-0);"/>
      <path d="M381.362,290.032c-18.954,0-34.37,15.423-34.37,34.37s15.416,34.364,34.37,34.364c18.953,0,34.369-15.417,34.369-34.364 S400.315,290.032,381.362,290.032z" style="fill: url(#color-0);"/>
      <path d="M 561.234 241.611 C 558.793 223.306 551.063 189.536 517.703 166.347 L 509.563 135.019 C 509.563 135.019 508.75 127.29 498.578 121.591 C 498.578 121.591 499.19 116.303 489.833 113.862 C 480.476 111.42 458.706 106.745 433.284 115.288 C 433.284 115.288 429.416 116.304 429.624 122.002 C 429.624 122.002 417.623 127.901 415.181 138.887 C 412.74 149.872 409.484 163.703 409.484 163.703 L 372.568 163.703 L 211.195 163.703 L 171.635 163.703 C 171.635 163.703 168.379 149.872 165.937 138.887 C 163.495 127.902 151.494 122.002 151.494 122.002 C 151.696 116.304 147.834 115.288 147.834 115.288 C 122.405 106.745 100.643 111.42 91.285 113.862 C 81.928 116.303 82.539 121.591 82.539 121.591 C 72.368 127.289 71.554 135.019 71.554 135.019 L 63.414 166.347 C 30.054 189.535 22.324 223.306 19.882 241.611 C 17.441 259.921 1.579 380.344 0.354 394.58 C -0.864 408.821 -1.678 462.114 47.142 469.844 C 95.962 477.574 121.592 433.229 121.592 433.229 L 154.548 376.068 C 228.184 433.229 263.172 355.523 263.172 355.523 L 317.946 355.523 C 317.946 355.523 352.934 433.229 426.57 376.068 L 459.526 433.229 C 459.526 433.229 485.157 477.574 533.976 469.844 C 582.795 462.114 581.981 408.816 580.763 394.58 C 579.546 380.338 563.677 259.916 561.234 241.611 Z M 465.824 168.544 C 480.15 168.544 491.809 180.202 491.809 194.529 C 491.809 208.855 480.15 220.514 465.824 220.514 C 451.497 220.514 439.839 208.855 439.839 194.529 C 439.839 180.203 451.497 168.544 465.824 168.544 Z M 93.911 200.502 C 94.615 190.564 108.189 190.558 113.978 190.551 C 119.823 190.558 133.385 190.564 134.101 200.496 C 134.48 205.82 132.687 221.72 130.588 225.906 C 128.813 229.456 120.784 235.539 116.01 238.942 C 115.875 239.064 115.729 239.168 115.563 239.259 C 115.08 239.541 114.541 239.682 114.009 239.682 C 113.807 239.682 113.605 239.658 113.409 239.62 C 113.171 239.571 112.938 239.498 112.718 239.4 C 112.455 239.271 112.216 239.125 112.002 238.941 C 108.795 236.664 99.339 229.73 97.43 225.905 C 95.325 221.72 93.525 205.821 93.911 200.502 Z M 70.288 264.316 C 60.35 263.612 60.343 250.038 60.343 244.243 C 60.343 238.404 60.349 224.83 70.294 224.126 C 70.79 224.09 71.377 224.071 72.044 224.071 C 77.699 224.071 91.573 225.577 95.704 227.639 C 99.529 229.548 106.463 239.016 108.74 242.223 C 108.942 242.461 109.114 242.731 109.236 243.031 C 109.402 243.428 109.481 243.851 109.475 244.267 C 109.469 244.719 109.365 245.178 109.157 245.601 C 109.041 245.828 108.9 246.041 108.741 246.231 C 106.936 248.79 99.69 258.82 95.705 260.809 C 91.58 262.871 77.7 264.377 72.045 264.377 C 71.377 264.371 70.784 264.353 70.288 264.316 Z M 134.101 287.927 C 133.391 297.871 119.823 297.878 114.034 297.884 L 114.01 297.884 C 108.19 297.878 94.622 297.871 93.918 287.927 C 93.539 282.615 95.332 266.715 97.431 262.523 C 99.34 258.704 108.808 251.764 112.009 249.487 C 112.144 249.371 112.291 249.267 112.45 249.175 C 112.682 249.04 112.927 248.936 113.178 248.863 C 113.973 248.649 114.837 248.735 115.571 249.157 C 115.767 249.273 115.95 249.408 116.11 249.554 C 120.908 252.982 128.833 258.997 130.59 262.517 C 132.681 266.721 134.48 282.615 134.101 287.927 Z M 155.968 264.371 C 150.319 264.371 136.439 262.866 132.314 260.804 C 128.324 258.815 121.072 248.76 119.278 246.22 C 119.15 246.073 119.033 245.902 118.935 245.724 C 118.642 245.192 118.513 244.592 118.55 244.004 C 118.574 243.631 118.666 243.264 118.831 242.908 C 118.954 242.651 119.106 242.413 119.29 242.198 C 121.585 238.979 128.501 229.549 132.313 227.639 C 136.444 225.577 150.318 224.071 155.973 224.071 C 156.634 224.071 157.227 224.09 157.729 224.126 C 167.601 224.83 167.674 238.227 167.674 244.084 C 167.674 244.133 167.674 244.176 167.674 244.219 C 167.668 250.038 167.662 263.613 157.717 264.317 C 157.223 264.353 156.629 264.371 155.968 264.371 Z M 200.111 364.892 C 177.785 364.892 159.621 346.728 159.621 324.408 C 159.621 302.083 177.785 283.919 200.111 283.919 C 222.437 283.919 240.601 302.083 240.601 324.408 C 240.607 346.728 222.437 364.892 200.111 364.892 Z M 253.013 247.712 C 253.013 250.404 250.822 252.602 248.123 252.602 L 226.765 252.602 C 224.066 252.602 221.875 250.412 221.875 247.712 L 221.875 237.54 C 221.875 234.848 224.066 232.65 226.765 232.65 L 248.123 232.65 C 250.822 232.65 253.013 234.841 253.013 237.54 L 253.013 247.712 Z M 332.708 253.08 C 332.427 253.172 332.126 253.209 331.826 253.209 C 329.134 253.209 326.936 251.018 326.936 248.318 L 326.936 235.705 C 326.936 232.731 329.794 230.136 332.627 230.92 L 358.87 238.043 C 360.204 238.404 361.128 239.616 361.128 240.993 C 361.128 243.502 359.225 245.577 356.789 245.852 L 332.708 253.08 Z M 381.362 364.892 C 359.036 364.892 340.872 346.728 340.872 324.408 C 340.872 302.083 359.036 283.919 381.362 283.919 C 403.687 283.919 421.851 302.083 421.851 324.408 C 421.852 346.728 403.688 364.892 381.362 364.892 Z M 419.202 267.137 C 404.875 267.137 393.216 255.479 393.216 241.152 C 393.216 226.825 404.875 215.167 419.202 215.167 C 433.528 215.167 445.187 226.825 445.187 241.152 C 445.182 255.479 433.528 267.137 419.202 267.137 Z M 465.824 313.759 C 451.497 313.759 439.839 302.101 439.839 287.774 C 439.839 273.447 451.497 261.789 465.824 261.789 C 480.15 261.789 491.809 273.447 491.809 287.774 C 491.804 302.101 480.15 313.759 465.824 313.759 Z M 512.446 267.137 C 498.119 267.137 486.461 255.479 486.461 241.152 C 486.461 226.825 498.119 215.167 512.446 215.167 C 526.773 215.167 538.431 226.825 538.431 241.152 C 538.426 255.479 526.772 267.137 512.446 267.137 Z" style="fill: url(#color-0);"/>
      <path d="M270.437,203.63c1.407,0.997,2.993,1.444,4.541,1.462c1.181,0,2.167-0.171,3.103-0.52 c0.067-0.024,0.116-0.074,0.184-0.099c0.012-0.006,0.031,0,0.043-0.006c1.334-0.502,2.466-1.279,3.292-2.454 c1.114-1.579,1.377-3.292,0.704-5.116c-0.472-1.279-1.334-2.265-2.473-2.986c-0.563-0.355-1.138-0.631-1.72-0.839 c-1.806-0.703-3.703-0.74-5.667-0.11c-1.396,0.447-2.577,1.236-3.464,2.412c-1.193,1.585-1.53,3.341-0.888,5.232 C268.527,201.874,269.353,202.859,270.437,203.63z" style="fill: url(#color-0);"/>
    </g>
  </g>
  <g transform="matrix(0.673106, 0, 0, 0.673106, -34.725628, -97.040352)" style="opacity: 0.65;">
    <g>
      <path d="M142.139,183.985c-14.957,0-27.124,12.167-27.124,27.124c0,14.957,12.167,27.13,27.124,27.13 c14.958,0,27.124-12.167,27.124-27.13C169.263,196.151,157.096,183.985,142.139,183.985z" style="fill: rgb(41, 23, 120);"/>
      <circle cx="399.932" cy="212.094" r="18.77" style="fill: rgb(41, 23, 120);"/>
      <path d="M142.139,168.153c-23.69,0-42.962,19.266-42.962,42.956s19.272,42.962,42.962,42.962 c23.685,0,42.957-19.272,42.957-42.962S165.829,168.153,142.139,168.153z M142.139,244.353c-18.329,0-33.244-14.92-33.244-33.25 c0-18.33,14.915-33.244,33.244-33.244c18.33,0,33.244,14.915,33.244,33.244C175.383,229.432,160.474,244.353,142.139,244.353z" style="fill: rgb(41, 23, 120);"/>
      <circle cx="249.019" cy="212.094" r="9.804" style="fill: rgb(41, 23, 120);"/>
      <path d="M 505.765 151.733 C 489.51 141.341 501.237 135.404 484.412 122.54 C 467.588 109.676 399.308 87.901 387.429 97.797 C 375.55 107.693 362.196 109.67 362.196 109.67 L 290.084 109.67 L 289.962 109.67 L 217.844 109.67 C 217.844 109.67 204.484 107.693 192.611 97.797 C 180.738 87.901 112.451 109.67 95.628 122.54 C 78.804 135.404 90.53 141.341 74.275 151.733 C 58.02 162.125 15.467 305.619 15.467 305.619 C 15.467 305.619 -39.95 465.443 59.011 484.739 C 59.011 484.739 83.259 469.403 104.036 444.66 C 124.82 419.917 165.389 384.788 187.164 384.292 C 208.462 383.809 286.553 384.273 289.956 384.292 C 289.956 384.292 289.98 384.292 290.017 384.292 C 290.06 384.292 290.079 384.292 290.079 384.292 C 293.482 384.273 371.573 383.809 392.871 384.292 C 414.64 384.788 455.216 419.917 475.999 444.66 C 496.782 469.403 521.023 484.739 521.023 484.739 C 619.984 465.443 564.567 305.619 564.567 305.619 C 564.567 305.619 522.02 162.125 505.765 151.733 Z M 438.047 149.107 C 451.775 149.107 462.937 160.276 462.937 173.997 C 462.937 187.718 451.768 198.887 438.047 198.887 C 424.326 198.887 413.157 187.724 413.157 173.997 C 413.157 160.27 424.319 149.107 438.047 149.107 Z M 399.932 187.204 C 413.659 187.204 424.822 198.367 424.822 212.094 C 424.822 225.821 413.653 236.984 399.932 236.984 C 386.21 236.984 375.041 225.815 375.041 212.094 C 375.041 198.373 386.204 187.204 399.932 187.204 Z M 332.146 196.17 C 340.928 196.17 348.07 203.318 348.07 212.1 C 348.07 220.882 340.928 228.024 332.146 228.024 C 323.364 228.024 316.221 220.882 316.221 212.1 C 316.221 203.318 323.364 196.17 332.146 196.17 Z M 93.062 211.103 C 93.062 184.041 115.082 162.027 142.145 162.027 C 169.207 162.027 191.221 184.041 191.221 211.103 C 191.221 238.166 169.207 260.186 142.145 260.186 C 115.082 260.185 93.062 238.166 93.062 211.103 Z M 256.399 317.578 C 256.399 319.267 255.028 320.638 253.339 320.638 L 230.891 320.638 L 230.891 343.093 C 230.891 344.781 229.52 346.153 227.831 346.153 L 203.596 346.153 C 201.907 346.153 200.536 344.782 200.536 343.093 L 200.536 320.638 L 178.088 320.638 C 176.399 320.638 175.028 319.268 175.028 317.578 L 175.028 293.343 C 175.028 291.654 176.399 290.284 178.088 290.284 L 200.536 290.284 L 200.536 267.829 C 200.536 266.14 201.907 264.769 203.596 264.769 L 227.831 264.769 C 229.52 264.769 230.891 266.14 230.891 267.829 L 230.891 290.284 L 253.339 290.284 C 255.028 290.284 256.399 291.654 256.399 293.343 L 256.399 317.578 Z M 249.019 228.019 C 240.237 228.019 233.095 220.877 233.095 212.095 C 233.095 203.313 240.237 196.164 249.019 196.164 C 257.801 196.164 264.943 203.312 264.943 212.095 C 264.943 220.878 257.794 228.019 249.019 228.019 Z M 365.299 349.745 C 338.236 349.745 316.222 327.724 316.222 300.662 C 316.222 273.6 338.236 251.586 365.299 251.586 C 392.361 251.586 414.375 273.6 414.375 300.662 C 414.375 327.725 392.361 349.745 365.299 349.745 Z M 438.047 277.083 C 424.319 277.083 413.157 265.92 413.157 252.193 C 413.157 238.466 424.326 227.303 438.047 227.303 C 451.768 227.303 462.937 238.472 462.937 252.193 C 462.937 265.914 451.774 277.083 438.047 277.083 Z M 479.1 236.99 C 465.373 236.99 454.21 225.821 454.21 212.1 C 454.21 198.379 465.373 187.21 479.1 187.21 C 492.828 187.21 503.991 198.373 503.991 212.1 C 503.99 225.828 492.827 236.99 479.1 236.99 Z" style="fill: rgb(41, 23, 120);"/>
      <circle cx="438.047" cy="252.192" r="18.77" style="fill: rgb(41, 23, 120);"/>
      <circle cx="479.1" cy="212.094" r="18.77" style="fill: rgb(41, 23, 120);"/>
      <circle cx="332.146" cy="212.094" r="9.804" style="fill: rgb(41, 23, 120);"/>
      <circle cx="438.047" cy="173.997" r="18.77" style="fill: rgb(41, 23, 120);"/>
      <path d="M365.299,257.713c-23.685,0-42.957,19.266-42.957,42.956s19.272,42.962,42.957,42.962 c23.684,0,42.956-19.271,42.956-42.962S388.982,257.713,365.299,257.713z M365.299,333.912c-18.33,0-33.244-14.92-33.244-33.25 c0-18.329,14.914-33.243,33.244-33.243c18.329,0,33.243,14.915,33.243,33.243C398.542,318.992,383.628,333.912,365.299,333.912z" style="fill: rgb(41, 23, 120);"/>
      <path d="M365.299,273.545c-14.958,0-27.124,12.167-27.124,27.124c0,14.957,12.166,27.13,27.124,27.13 c14.957,0,27.123-12.167,27.123-27.13C392.416,285.711,380.256,273.545,365.299,273.545z" style="fill: rgb(41, 23, 120);"/>
      <path d="M224.771,293.343v-22.454h-18.115v22.454c0,1.689-1.371,3.061-3.06,3.061h-22.448v18.114h22.448 c1.689,0,3.06,1.371,3.06,3.061v22.454h18.115v-22.454c0-1.689,1.371-3.061,3.06-3.061h22.448v-18.114h-22.448 C226.142,296.403,224.771,295.032,224.771,293.343z" style="fill: rgb(41, 23, 120);"/>
    </g>
  </g>
  <polyline class="st1" points="854.907 54.368 918.43 125.693 982.511 54.368 1046.035 125.693 1109.559 54.368 1173.082 125.693 1237.163 54.368 1300.686 125.693" style="clip-rule: nonzero; fill: none; fill-rule: nonzero; stroke-miterlimit: 10; stroke: url(#color-0); stroke-width: 23px; stroke-linecap: round; stroke-linejoin: round; stroke-opacity: 0.33;"/>
  <g transform="matrix(4.283298, 0, 0, 4.283298, 18.041611, 462.666687)" style="">
    <path class="st3" d="M97.9,80h6.8v4.6h-7.3l-1.1,8.5h-4.6l1.1-8.5h-8.5l-1.1,8.5h-4.6l1.1-8.5h-6.8V80h7.3l1.2-8.9h-6.8v-4.6h7.3 L83,58h4.6l-1.1,8.5h8.4L96,58h4.6l-1.1,8.5h6.7l0.1,4.6H99L97.9,80z M93.3,80l1.1-8.9H86L84.8,80H93.3z" style="clip-rule: nonzero; fill-rule: nonzero; fill: url(#color-0); fill-opacity: 0.43;"/>
  </g>
  <g transform="matrix(4.040514, 0, 0, 4.040514, -380.730927, 548.632629)" style="">
    <rect x="91.9" y="136" transform="matrix(0.7071 -0.7071 0.7071 0.7071 -72.0995 111.7674)" class="st2" width="13.9" height="13.9" style="clip-rule: nonzero; fill-rule: nonzero; fill: url(#color-0); fill-opacity: 0.45;"/>
    <rect x="114.9" y="136" transform="matrix(0.7071 -0.7071 0.7071 0.7071 -65.3674 128.0352)" class="st2" width="13.9" height="13.9" style="clip-rule: nonzero; fill-rule: nonzero; fill: url(#color-0); fill-opacity: 0.45;"/>
    <rect x="137.9" y="136" transform="matrix(0.7071 -0.7071 0.7071 0.7071 -58.6354 144.303)" class="st2" width="13.9" height="13.9" style="clip-rule: nonzero; fill-rule: nonzero; fill: url(#color-0); fill-opacity: 0.45;"/>
  </g>
  <g class="st2" style="clip-rule: nonzero; fill: rgb(0, 0, 0); fill-rule: nonzero; opacity: 0.25;" transform="matrix(2.983007, 0, 0, 2.983007, 531.595032, 148.290924)">
    <circle class="st3" cx="32.2" cy="32.8" r="29.7" style="clip-rule: nonzero; fill: none; fill-rule: nonzero; stroke-miterlimit: 10; stroke-width: 4px; stroke: url(#color-0);"/>
    <circle class="st3" cx="32.2" cy="32.8" r="20.5" style="clip-rule: nonzero; fill: none; fill-rule: nonzero; stroke-miterlimit: 10; stroke-width: 4px; stroke: url(#color-0);"/>
    <circle class="st3" cx="32.2" cy="32.8" r="11.4" style="clip-rule: nonzero; fill: none; fill-rule: nonzero; stroke-miterlimit: 10; stroke-width: 4px; stroke: url(#color-0);"/>
  </g>
  <g transform="matrix(4.833309, 0, 0, 4.833309, 500.419098, 367.483521)" style="">
    <line class="st1" x1="127.1" y1="45.2" x2="153.2" y2="45.2" style="clip-rule: nonzero; fill: none; fill-rule: nonzero; stroke-miterlimit: 10; stroke-width: 4px; stroke: url(#color-0);"/>
    <line class="st1" x1="127.1" y1="34.8" x2="153.2" y2="34.8" style="clip-rule: nonzero; fill: none; fill-rule: nonzero; stroke-miterlimit: 10; stroke-width: 4px; stroke: url(#color-0);"/>
    <line class="st1" x1="127.1" y1="24.4" x2="153.2" y2="24.4" style="clip-rule: nonzero; fill: none; fill-rule: nonzero; stroke-miterlimit: 10; stroke-width: 4px; stroke: url(#color-0);"/>
    <line class="st1" x1="127.1" y1="14" x2="153.2" y2="14" style="clip-rule: nonzero; fill: none; fill-rule: nonzero; stroke-miterlimit: 10; stroke-width: 4px; stroke: url(#color-0);"/>
    <line class="st1" x1="127.1" y1="3.6" x2="153.2" y2="3.6" style="clip-rule: nonzero; fill: none; fill-rule: nonzero; stroke-miterlimit: 10; stroke-width: 4px; stroke: url(#color-0);"/>
  </g>
  <g style="opacity: 0.15;" transform="matrix(1, 0, 0, 1, -6.77093, -35.402)">
    <path style="stroke-width: 18px; fill: none; stroke: rgb(0, 0, 0);" d="M 1377.15 555.825 C 1377.15 555.825 1333.844 828.103 1333.844 827.995"/>
    <ellipse style="fill: none; stroke-width: 20px; stroke: rgb(0, 0, 0);" cx="1376.524" cy="1045.408" rx="42.68" ry="42.68"/>
    <ellipse style="fill: none; stroke-width: 20px; stroke: rgb(0, 0, 0);" cx="1321.227" cy="870.675" rx="42.68" ry="42.68"/>
    <ellipse style="fill: none; stroke-width: 20px; stroke: rgb(0, 0, 0);" cx="1072.053" cy="1040.939" rx="42.68" ry="42.68"/>
    <path style="stroke-width: 18px; fill: none; stroke: rgb(0, 0, 0);" d="M 1283.369 894.598 L 1097.539 1002.728"/>
    <path style="stroke-width: 18px; fill: none; stroke: rgb(0, 0, 0);" d="M 1330.139 912.754 C 1330.139 912.754 1364.015 1002.728 1363.907 1002.728"/>
    <ellipse style="fill: none; stroke-width: 20px; stroke: rgb(0, 0, 0);" cx="1695.069" cy="790.707" rx="42.68" ry="42.68"/>
    <ellipse style="fill: none; stroke-width: 20px; stroke: rgb(0, 0, 0);" cx="1376.524" cy="512.213" rx="42.68" ry="42.68"/>
    <path style="stroke-width: 18px; fill: none; stroke: rgb(0, 0, 0);" d="M 1406.249 540.974 C 1406.249 540.974 1613.567 652.394 1665.828 764.272"/>
  </g>
  <g transform="matrix(2.916771, 0, 0, 2.916771, 1031.830322, -377.89743)" style="">
    <g transform="matrix(1, 0, 0, 1, 90.077766, -1.639795)">
      <polygon class="st6" points="160.6 148.2 143.5 148.2 160.6 131.2" style="clip-rule: nonzero; fill-rule: nonzero; fill: url(#color-0);"/>
      <polygon class="st6" points="144.7 148.2 127.6 148.2 144.7 131.2" style="clip-rule: nonzero; fill-rule: nonzero; fill: url(#color-0);"/>
      <polygon class="st6" points="128.8,148.2 111.8,148.2 128.8,131.2 &#9;" style="clip-rule: nonzero; fill-rule: nonzero; fill: url(#color-0);"/>
      <polygon class="st6" points="112.9,148.2 95.9,148.2 112.9,131.2 &#9;" style="clip-rule: nonzero; fill-rule: nonzero; fill: url(#color-0);"/>
    </g>
  </g>
  <g transform="matrix(3.220232, 0, 0, 3.220232, 473.356171, 17.506287)" style="">
    <g>
      <path d="M6.934,20.62V0.169H0V20.62v41.268h6.934V20.62z M2.083,2.252H4.85V20.62H2.083V2.252z" style="fill: url(#color-0);"/>
      <path d="M14.688,6.635V0.169H7.755v6.465v55.253h6.933L14.688,6.635L14.688,6.635z M9.839,2.252h2.767v4.382H9.839V2.252z" style="fill: url(#color-0);"/>
      <path d="M22.676,12.308V0.169h-6.933v12.139v49.58h6.933V12.308z M17.826,2.252h2.767v10.056h-2.767V2.252z" style="fill: url(#color-0);"/>
      <path d="M30.665,27.348V0.169h-6.933v27.179v34.54h6.933V27.348z M25.815,2.252h2.766v25.096h-2.766V2.252z" style="fill: url(#color-0);"/>
      <path d="M38.651,33.22V0.169h-6.933v33.05v28.668h6.933V33.22z M33.804,2.252h2.767V33.22h-2.767V2.252z" style="fill: url(#color-0);"/>
      <path d="M47.428,30.251v31.636h6.933V30.251V0.169h-6.933V30.251z M49.511,2.252h2.766v27.999h-2.766V2.252z" style="fill: url(#color-0);"/>
      <path d="M55.123,13.363v48.524h6.934V13.363V0.169h-6.934V13.363z M57.206,2.252h2.767v11.111h-2.767V2.252z" style="fill: url(#color-0);"/>
      <path d="M46.496,40.213V0.169h-6.934v40.043v21.675h6.934V40.213z M41.646,2.252h2.767v37.96h-2.767V2.252z" style="fill: url(#color-0);"/>
    </g>
  </g>
  <g transform="matrix(2.814257, 0, 0, 2.814257, 555.371765, 687.745789)" style="">
    <g>
      <rect x="0.651" y="52.409" width="4.167" height="9.311" style="fill: url(#color-0);"/>
      <rect x="0.651" y="47.015" width="4.167" height="3.245" style="fill: url(#color-0);"/>
      <rect x="0.651" y="41.993" width="4.167" height="3.244" style="fill: url(#color-0);"/>
      <rect x="6.901" y="43.89" width="4.167" height="3.245" style="fill: url(#color-0);"/>
      <rect x="6.901" y="38.868" width="4.167" height="3.244" style="fill: url(#color-0);"/>
      <rect x="13.151" y="39.724" width="4.167" height="3.245" style="fill: url(#color-0);"/>
      <rect x="13.151" y="34.701" width="4.167" height="3.244" style="fill: url(#color-0);"/>
      <rect x="19.401" y="41.807" width="4.167" height="3.245" style="fill: url(#color-0);"/>
      <rect x="19.401" y="36.784" width="4.167" height="3.244" style="fill: url(#color-0);"/>
      <rect x="25.651" y="30.349" width="4.167" height="3.245" style="fill: url(#color-0);"/>
      <rect x="25.651" y="25.325" width="4.167" height="3.245" style="fill: url(#color-0);"/>
      <rect x="31.902" y="5.024" width="4.166" height="3.245" style="fill: url(#color-0);"/>
      <rect x="31.902" width="4.166" height="3.245" style="fill: url(#color-0);"/>
      <rect x="38.152" y="9.191" width="4.166" height="3.245" style="fill: url(#color-0);"/>
      <rect x="38.152" y="4.167" width="4.166" height="3.245" style="fill: url(#color-0);"/>
      <rect x="44.402" y="15.441" width="4.166" height="3.245" style="fill: url(#color-0);"/>
      <rect x="44.402" y="10.417" width="4.166" height="3.245" style="fill: url(#color-0);"/>
      <rect x="50.652" y="30.024" width="4.166" height="3.244" style="fill: url(#color-0);"/>
      <rect x="50.652" y="25" width="4.166" height="3.245" style="fill: url(#color-0);"/>
      <rect x="56.902" y="26.899" width="4.166" height="3.245" style="fill: url(#color-0);"/>
      <rect x="56.902" y="21.875" width="4.166" height="3.245" style="fill: url(#color-0);"/>
      <rect x="6.901" y="49.305" width="4.167" height="12.414" style="fill: url(#color-0);"/>
      <rect x="13.151" y="45.313" width="4.167" height="16.406" style="fill: url(#color-0);"/>
      <rect x="25.651" y="35.677" width="4.167" height="26.042" style="fill: url(#color-0);"/>
      <rect x="31.902" y="10.742" width="4.166" height="50.978" style="fill: url(#color-0);"/>
      <rect x="38.152" y="14.909" width="4.166" height="46.811" style="fill: url(#color-0);"/>
      <rect x="44.402" y="21.159" width="4.166" height="40.561" style="fill: url(#color-0);"/>
      <rect x="50.652" y="35.677" width="4.166" height="26.042" style="fill: url(#color-0);"/>
      <rect x="56.902" y="32.292" width="4.166" height="29.428" style="fill: url(#color-0);"/>
      <rect x="19.401" y="47.222" width="4.167" height="14.497" style="fill: url(#color-0);"/>
    </g>
  </g>
  <rect x="22.15" y="973.247" width="364.12" height="79.439" style="fill: none; stroke: url(#color-0); stroke-width: 8px;"/>
  <rect x="130.147" y="973.247" width="20.736" height="79.439" style="fill: none; stroke: url(#color-0); stroke-width: 8px;"/>
  <rect x="257.041" y="973.247" width="20.736" height="79.439" style="fill: none; stroke: url(#color-0); stroke-width: 8px;"/>
  <rect x="36.351" y="987.698" width="79.086" height="51.107" style="fill: none; stroke: url(#color-0); stroke-opacity: 0.34; stroke-width: 5px;"/>
  <rect x="164.917" y="987.698" width="79.086" height="51.107" style="fill: none; stroke: url(#color-0); stroke-opacity: 0.34; stroke-width: 5px;"/>
  <rect x="292.763" y="987.698" width="79.086" height="51.107" style="fill: none; stroke: url(#color-0); stroke-opacity: 0.34; stroke-width: 5px;"/>
</svg>