<?xml version="1.0" encoding="utf-8"?>
<svg viewBox="0 0 1024 1024" width="1024px" height="1024px" xmlns="http://www.w3.org/2000/svg">
  <path d="M 511.779 11.462 C 456.77 11.495 412.2 56.161 412.136 111.171 L 412.2 677.681 L 259.034 524.548 C 217.535 483.081 152.345 480.948 113.366 519.861 C 74.55 558.807 76.586 623.997 118.085 665.529 L 437.992 985.371 C 479.459 1026.967 544.681 1029.068 583.627 990.09 C 584.565 989.023 585.276 987.892 586.213 986.858 C 587.603 985.533 589.251 984.595 590.705 983.206 L 906.217 667.63 C 947.134 626.648 948.75 561.942 909.804 523.029 C 870.858 484.083 806.12 485.763 765.138 526.616 L 611.487 680.299 L 611.487 111.171 C 611.52 56.097 566.918 11.462 511.779 11.462 Z" style="fill: rgb(255, 255, 255);"/>
</svg>