<?xml version="1.0" encoding="utf-8"?>
<svg version="1.1" viewBox="0 0 1024 1024" width="1024px" height="1024px" xmlns="http://www.w3.org/2000/svg">
  <path style="fill: rgb(255, 255, 255);" d="M 510.591 10 C 234.139 10 10 234.139 10 510.591 C 10 787.076 234.139 1011.184 510.591 1011.184 C 787.044 1011.184 1011.184 787.076 1011.184 510.591 C 1011.179 234.139 787.041 10 510.591 10 Z M 650.816 891.947 C 647.937 852.776 644.716 804.249 644.528 784.601 C 643.277 769.521 641.648 731.163 605.232 706.666 C 749.808 694.559 818.607 614.653 823.554 509.06 C 827.683 448.928 803.778 396.048 761.325 353.376 C 763.484 307.729 759.946 253.633 757.008 229.857 C 724.406 220.472 648.381 260.613 627.134 277.789 C 582.329 260.392 472.672 254.292 406.029 277.789 C 358.786 244.562 305.004 224.039 275.689 229.764 C 248.625 289.741 266.021 346.434 271.306 353.189 C 236.452 385.041 187.833 424.245 201.037 506.372 C 222.217 626.793 306.942 691.749 443.352 707.639 C 414.258 713.586 409.343 735.299 406.902 744.714 C 315.295 782.508 289.11 721.375 277.531 705.451 C 239.082 657.863 204.57 671.659 202.441 672.41 C 200.377 673.158 198.814 676.163 199.033 677.602 C 200.971 687.865 221.904 698.285 222.934 699.127 C 251.313 720.277 261.824 758.48 268.3 769.366 C 309.004 836.29 403.617 808.538 404.525 809.101 C 404.585 814.951 403.868 864.2 403.304 902.525 C 230.792 855.405 103.86 698.031 103.86 510.591 C 103.86 285.95 285.95 103.863 510.589 103.863 C 735.226 103.863 917.32 285.95 917.32 510.591 C 917.32 685.892 806.252 834.783 650.816 891.947 Z"/>
</svg>