<?xml version="1.0" encoding="utf-8"?>
<svg fill="#000000" version="1.1" id="Capa_1" width="1024px" height="1024px" viewBox="0 0 1024 1024" xmlns="http://www.w3.org/2000/svg">
  <path d="M 998.928 461.584 L 846.03 308.686 L 846.03 132.063 C 846.03 100.127 820.151 74.246 788.168 74.246 C 756.259 74.246 730.379 100.127 730.379 132.063 L 730.379 193.037 L 616.535 79.188 C 560.249 22.933 462.386 23.032 406.229 79.29 L 23.927 461.584 C 1.358 484.197 1.358 520.786 23.927 543.364 C 46.505 565.971 83.165 565.971 105.736 543.364 L 488.001 161.06 C 500.454 148.672 522.403 148.672 534.791 161.024 L 917.121 543.364 C 928.458 554.669 943.239 560.291 958.016 560.291 C 972.823 560.291 987.628 554.663 998.93 543.364 C 1021.507 520.788 1021.507 484.199 998.928 461.584 Z" style="fill: rgb(255, 255, 255);"/>
  <path d="M 531.514 270.812 C 520.407 259.711 502.423 259.711 491.349 270.812 L 155.075 606.986 C 149.766 612.293 146.756 619.538 146.756 627.1 L 146.756 872.293 C 146.756 929.829 193.408 976.478 250.942 976.478 L 417.431 976.478 L 417.431 718.641 L 605.395 718.641 L 605.395 976.478 L 771.887 976.478 C 829.419 976.478 876.07 929.829 876.07 872.295 L 876.07 627.1 C 876.07 619.538 873.087 612.293 867.751 606.986 L 531.514 270.812 Z" style="fill: rgb(255, 255, 255);"/>
</svg>