<?xml version="1.0" encoding="utf-8"?>
<svg viewBox="0 0 1024 1024" width="1024px" height="1024px" xmlns="http://www.w3.org/2000/svg">
  <path d="M 1021.882 511.946 C 1021.849 456.207 976.59 411.046 920.852 410.981 L 346.83 411.046 L 501.994 255.85 C 544.011 213.8 546.172 147.746 506.743 108.251 C 467.281 68.919 401.226 70.983 359.144 113.032 L 35.061 437.18 C -7.086 479.197 -9.215 545.284 30.28 584.746 C 31.361 585.696 32.507 586.416 33.555 587.366 C 34.898 588.774 35.847 590.444 37.256 591.918 L 357.015 911.612 C 398.541 953.072 464.104 954.71 503.533 915.247 C 542.996 875.785 541.293 810.189 499.898 768.664 L 344.178 612.976 L 920.852 612.976 C 976.656 613.008 1021.882 567.815 1021.882 511.946 Z" style="fill: rgb(255, 255, 255);"/>
</svg>