<?xml version="1.0" encoding="utf-8"?>
<svg fill="#000000" version="1.1" id="Capa_1" width="1024px" height="1024px" viewBox="0 0 1024 1024" xmlns="http://www.w3.org/2000/svg">
  <rect style="fill: none; stroke: rgb(255, 255, 255); stroke-width: 69px;" x="46.039" y="357.881" width="620.119" height="621.968" rx="44" ry="44"/>
  <ellipse style="fill: rgb(255, 255, 255);" cx="462.385" cy="533.303" rx="82.92" ry="82.92"/>
  <path d="M 200.807 357.881 L 200.807 243.691 C 200.807 219.39 220.506 199.691 244.807 199.691 L 776.926 199.691 C 801.227 199.691 820.926 219.39 820.926 243.691 L 820.926 777.659 C 820.926 801.96 801.227 821.659 776.926 821.659 L 666.158 821.659" style="fill: none; stroke: rgb(255, 255, 255); stroke-width: 69px;"/>
  <path d="M 359.99 201.775 L 359.99 87.585 C 359.99 63.284 379.689 43.585 403.99 43.585 L 936.109 43.585 C 960.41 43.585 980.109 63.284 980.109 87.585 L 980.109 621.553 C 980.109 645.854 960.41 665.553 936.109 665.553 L 825.341 665.553" style="fill: none; stroke: rgb(255, 255, 255); stroke-width: 69px;"/>
  <path style="fill: none; stroke: rgb(255, 255, 255); stroke-linejoin: round; stroke-width: 48px;" d="M 663.242 811.66 C 663.242 811.66 457.261 796.911 457.403 796.982 C 457.545 797.053 379.539 704.335 379.465 704.335 C 379.391 704.335 293.309 772.4 293.309 772.4 L 212.042 598.258 C 212.042 598.258 55.284 832.516 55.136 832.516"/>
</svg>