<?xml version="1.0" encoding="utf-8"?>
<svg fill="#000000" version="1.1" id="Capa_1" width="1024px" height="1024px" viewBox="0 0 1024 1024" xmlns="http://www.w3.org/2000/svg">
  <path d="M 905.814 501.191 C 912.982 501.191 922.24 503.159 928.379 505.755 C 934.586 508.381 942.142 513.515 946.791 518.165 C 951.441 522.814 956.575 530.37 959.201 536.577 C 961.797 542.716 963.496 552.13 963.765 559.297 C 963.145 619.637 950.097 682.85 928.19 735.253 C 905.805 787.568 870.638 839.351 831.261 879.034 C 791.578 918.411 739.795 953.578 687.48 975.963 C 635.148 997.855 571.859 1011.538 511.369 1011.538 C 450.878 1011.538 387.59 997.855 335.259 975.963 C 282.944 953.578 231.16 918.411 191.477 879.034 C 152.102 839.351 116.934 787.569 94.549 735.253 C 72.656 682.921 58.974 619.631 58.974 559.142 C 58.974 498.652 72.656 435.363 94.55 383.031 C 116.934 330.716 152.103 278.932 191.477 239.249 C 231.161 199.875 282.943 164.706 335.259 142.322 C 361.458 131.304 391.719 121.841 420.257 115.937 C 441.499 111.694 453.238 111.128 469.659 109.736 L 469.659 8.635 L 787.557 167.584 L 469.659 326.533 L 469.659 225.185 C 460.775 226.259 452.522 227.625 443.493 229.485 C 420.676 234.089 401.398 240.127 380.409 249.068 C 338.343 266.603 305.283 289.353 273.432 321.204 C 241.58 353.056 218.83 386.116 201.295 428.181 C 183.268 470.233 174.875 510.711 174.875 559.142 C 174.875 607.574 183.268 648.053 201.295 690.103 C 218.83 732.169 241.427 765.382 273.432 797.08 C 305.13 829.086 338.342 851.682 380.409 869.218 C 422.459 887.244 462.938 895.637 511.369 895.637 C 559.801 895.637 600.279 887.244 642.331 869.219 C 684.396 851.682 717.609 829.085 749.307 797.08 C 781.313 765.382 803.909 732.17 821.445 690.105 C 839.491 647.96 848.518 607.394 847.864 559.142 C 848.132 551.974 849.832 542.716 852.428 536.577 C 855.054 530.37 860.188 522.814 864.837 518.165 C 869.487 513.515 877.042 508.381 883.25 505.755 C 889.388 503.159 898.647 501.191 905.814 501.191 Z" style="fill: rgb(255, 255, 255);"/>
</svg>