<?xml version="1.0" encoding="utf-8"?>
<svg fill="#000000" version="1.1" id="Capa_1" width="1024px" height="1024px" viewBox="0 0 1024 1024" xmlns="http://www.w3.org/2000/svg">
  <path d="M 880.823 519.46 C 887.576 519.46 896.299 521.315 902.082 523.76 C 907.93 526.234 915.049 531.071 919.429 535.452 C 923.81 539.832 928.647 546.951 931.121 552.799 C 933.566 558.582 935.167 567.452 935.421 574.204 C 934.836 631.052 922.544 690.607 901.904 739.977 C 880.815 789.264 847.683 838.051 810.585 875.437 C 773.198 912.535 724.412 945.667 675.125 966.757 C 625.821 987.382 566.195 1000.273 509.205 1000.273 C 452.215 1000.273 392.59 987.382 343.287 966.757 C 294 945.667 245.212 912.535 207.826 875.437 C 170.73 838.051 137.597 789.265 116.507 739.977 C 95.881 690.674 82.991 631.046 82.991 574.058 C 82.991 517.068 95.881 457.442 116.508 408.139 C 137.597 358.851 170.731 310.064 207.826 272.677 C 245.213 235.582 293.999 202.448 343.287 181.36 C 367.97 170.979 396.48 162.064 423.366 156.502 C 443.379 152.504 454.438 151.971 469.909 150.659 L 469.909 13.82 L 780.312 205.16 L 469.909 402.684 L 469.909 259.427 C 461.539 260.439 453.764 261.726 445.257 263.478 C 423.761 267.816 405.598 273.505 385.824 281.928 C 346.193 298.448 315.046 319.882 285.038 349.89 C 255.029 379.898 233.596 411.045 217.076 450.676 C 200.092 490.294 192.185 528.43 192.185 574.058 C 192.185 619.687 200.092 657.823 217.076 697.44 C 233.596 737.071 254.885 768.362 285.038 798.226 C 314.902 828.38 346.192 849.668 385.824 866.189 C 425.441 883.172 463.577 891.079 509.205 891.079 C 554.835 891.079 592.97 883.172 632.588 866.19 C 672.219 849.668 703.51 828.379 733.374 798.226 C 763.527 768.362 784.816 737.072 801.337 697.442 C 818.338 657.736 826.843 619.517 826.227 574.058 C 826.479 567.305 828.081 558.582 830.527 552.799 C 833.001 546.951 837.838 539.832 842.218 535.452 C 846.599 531.071 853.716 526.234 859.565 523.76 C 865.348 521.315 874.071 519.46 880.823 519.46 Z" style="fill: rgb(255, 255, 255);"/>
</svg>