<?xml version="1.0" encoding="utf-8"?>
<svg viewBox="0 0 1024 1024" width="1024px" height="1024px" xmlns="http://www.w3.org/2000/svg">
  <path d="M 2 511.857 C 2.033 567.595 47.292 612.756 103.03 612.821 L 677.052 612.756 L 521.888 767.953 C 479.871 810.002 477.709 876.057 517.139 915.552 C 556.601 954.883 622.656 952.82 664.738 910.77 L 988.82 586.622 C 1030.968 544.606 1033.097 478.518 993.602 439.056 C 992.521 438.106 991.375 437.386 990.327 436.436 C 988.984 435.028 988.034 433.358 986.626 431.884 L 666.867 112.19 C 625.341 70.73 559.778 69.093 520.348 108.555 C 480.886 148.017 482.589 213.613 523.984 255.139 L 679.704 410.827 L 103.03 410.827 C 47.226 410.794 2 455.987 2 511.857 Z" style="fill: rgb(255, 255, 255);"/>
</svg>