<?xml version="1.0" encoding="utf-8"?>
<svg viewBox="0 0 1024 1024" width="1024px" height="1024px" xmlns="http://www.w3.org/2000/svg">
  <g style="" transform="matrix(32.748829, 0, 0, 32.748829, -18.614882, 0)">
    <g id="c100_arrow"/>
    <g id="Capa_1_46_"/>
  </g>
  <g style="" transform="matrix(32.748829, 0, 0, 32.748829, -18.614882, 0.15045)"/>
  <g style="" transform="matrix(32.748829, 0, 0, 32.748829, -18.614882, 0.15045)"/>
  <g style="" transform="matrix(32.748829, 0, 0, 32.748829, -18.614882, 0.15045)"/>
  <g style="" transform="matrix(32.748829, 0, 0, 32.748829, -18.614882, 0.15045)"/>
  <g style="" transform="matrix(32.748829, 0, 0, 32.748829, -18.614882, 0.15045)"/>
  <g style="" transform="matrix(32.748829, 0, 0, 32.748829, -18.614882, 0.15045)"/>
  <g style="" transform="matrix(32.748829, 0, 0, 32.748829, -18.614882, 0.15045)"/>
  <g style="" transform="matrix(32.748829, 0, 0, 32.748829, -18.614882, 0.15045)"/>
  <g style="" transform="matrix(32.748829, 0, 0, 32.748829, -18.614882, 0.15045)"/>
  <g style="" transform="matrix(32.748829, 0, 0, 32.748829, -18.614882, 0.15045)"/>
  <g style="" transform="matrix(32.748829, 0, 0, 32.748829, -18.614882, 0.15045)"/>
  <g style="" transform="matrix(32.748829, 0, 0, 32.748829, -18.614882, 0.15045)"/>
  <g style="" transform="matrix(32.748829, 0, 0, 32.748829, -18.614882, 0.15045)"/>
  <g style="" transform="matrix(32.748829, 0, 0, 32.748829, -18.614882, 0.15045)"/>
  <g style="" transform="matrix(32.748829, 0, 0, 32.748829, -18.614882, 0.15045)"/>
  <path style="fill: none; stroke-linecap: round; stroke-linejoin: round; stroke-width: 202px; stroke: rgb(255, 255, 255);" d="M 563.464 177.639 L 895.228 507.883 C 895.228 507.883 561.724 842.493 561.724 842.565"/>
  <path style="fill: none; stroke-linecap: round; stroke-linejoin: round; stroke-width: 202px; stroke: rgb(255, 255, 255);" d="M 130.306 177.639 L 462.07 507.883 C 462.07 507.883 128.566 842.493 128.566 842.565"/>
</svg>