<?xml version="1.0" encoding="utf-8"?>
<svg viewBox="0 0 1024 1024" width="1024px" height="1024px" xmlns="http://www.w3.org/2000/svg">
  <path d="M 511.766 1018 C 566.775 1017.968 611.345 973.301 611.409 918.292 L 611.345 351.781 L 764.511 504.915 C 806.01 546.382 871.2 548.515 910.179 509.601 C 948.995 470.655 946.959 405.465 905.46 363.933 L 585.553 44.091 C 544.086 2.495 478.864 0.394 439.918 39.372 C 438.98 40.439 438.269 41.57 437.332 42.604 C 435.942 43.93 434.294 44.867 432.84 46.257 L 117.328 361.832 C 76.411 402.815 74.795 467.52 113.741 506.434 C 152.687 545.38 217.424 543.699 258.407 502.846 L 412.058 349.163 L 412.058 918.292 C 412.025 973.366 456.627 1018 511.766 1018 Z" style="fill: rgb(255, 255, 255);"/>
</svg>